<?xml version="1.0" encoding="utf-8"?>
<!-- Generator: Adobe Illustrator 16.0.4, SVG Export Plug-In . SVG Version: 6.00 Build 0)  -->
<!DOCTYPE svg PUBLIC "-//W3C//DTD SVG 1.1//EN" "http://www.w3.org/Graphics/SVG/1.1/DTD/svg11.dtd">
<svg version="1.1" id="Layer_1" xmlns="http://www.w3.org/2000/svg" xmlns:xlink="http://www.w3.org/1999/xlink" x="0px" y="0px"
	 width="498.024px" height="749.332px" viewBox="-108.5 1.791 498.024 749.332"
	 enable-background="new -108.5 1.791 498.024 749.332" xml:space="preserve">
<polygon stroke="#000000" points="389.024,689.667 
                                  -108,730.557 
                                  -108,32.356 
                                  389.024,63.247 "/>
<g id="Floor_1_STATIC">
	<rect x="-25.797" y="89.887" fill="#008000" width="383.217" height="569.795"/>
	<g>
		<g>
			<rect x="82.706" y="521.413" width="2.569" height="13.527"/>
			<rect x="86.366" y="521.413" width="2.569" height="13.527"/>
			<rect x="90.026" y="521.413" width="2.569" height="13.527"/>
			<rect x="93.684" y="521.413" width="2.569" height="13.527"/>
			<rect x="97.344" y="521.413" width="2.569" height="13.527"/>
			<rect x="101.001" y="521.413" width="2.569" height="13.527"/>
			<rect x="104.66" y="521.413" width="2.569" height="13.527"/>
			<rect x="108.318" y="521.413" width="2.569" height="13.527"/>
			<rect x="111.978" y="521.413" width="2.569" height="13.527"/>
		</g>
		<g>
			<rect x="97.344" y="506.752" width="2.569" height="13.525"/>
			<rect x="101.001" y="506.752" width="2.569" height="13.525"/>
			<rect x="104.66" y="506.752" width="2.569" height="13.525"/>
			<rect x="108.318" y="506.752" width="2.569" height="13.525"/>
			<rect x="111.978" y="506.752" width="2.569" height="13.525"/>
			<rect x="115.638" y="506.752" width="2.569" height="13.525"/>
			<rect x="119.296" y="506.752" width="2.569" height="13.525"/>
			<rect x="122.956" y="506.752" width="2.569" height="13.525"/>
			<rect x="126.614" y="506.752" width="2.569" height="13.525"/>
		</g>
	</g>
	<g>
		<path fill="none" d="M206.005,641c0,0,0.597,0,1.329,0c0.733,0,1.331,0.617,1.331,1.371v14.572c0,0.752,0.617,1.375,1.371,1.375
			h146.016c0.75,0,1.369-0.619,1.369-1.375V144.185c0-0.754-0.617-1.37-1.369-1.37H205.944c-0.753,0-1.371,0.617-1.371,1.37v6.417
			c0,0.754-0.618,1.369-1.372,1.369h-33.247c-0.754,0-1.371-0.617-1.371-1.369v-6.417c0-0.754-0.618-1.37-1.372-1.37H20.986
			c-0.752,0-1.369-0.617-1.369-1.37V93.552c0-0.753-0.617-1.37-1.37-1.37h-41.152c-0.754,0-1.369,0.617-1.369,1.37v208.126
			c0,0.75,0.616,1.369,1.369,1.369h2.81c0.753,0,1.37,0.617,1.37,1.369v34.723c0,0.753-0.617,1.371-1.37,1.371h-2.81
			c-0.754,0-1.369,0.616-1.369,1.37V428.7c0,0.752,0.616,1.375,1.369,1.375h2.81c0.753,0,1.37,0.615,1.37,1.371v33.697
			c0,0.752-0.617,1.373-1.37,1.373h-2.81c-0.754,0-1.369,0.619-1.369,1.371v86.924c0,0.748,0.616,1.369,1.369,1.369h13.878
			c0.754,0,1.369,0.619,1.369,1.375v101.527c0,0.756,0.617,1.371,1.37,1.371h132.086c0.754,0,1.37-0.615,1.37-1.371v-16.707
			c0-0.752,0.616-1.373,1.37-1.373h3.302"/>
	</g>
	<polygon fill="none" points="90.026,505.454 80.761,521.413 79.874,505.454 	"/>
	<g>
		<line fill="none" x1="176.745" y1="641" x2="189.833" y2="641"/>
	</g>
	<g>
		<line fill="none" x1="162.319" y1="641" x2="169.181" y2="641"/>
	</g>
	<g>
		<path fill="none" d="M162.319,641"/>
	</g>
	<g>
		<line fill="none" x1="139.617" y1="641" x2="146.145" y2="641"/>
	</g>
	<g>
		<path fill="none" d="M353.725,653.52c0,0.756-0.617,1.377-1.371,1.377H213.175c-0.755,0-1.374-0.617-1.374-1.377v-20.316
			c0-0.752,0.617-1.375,1.374-1.375h139.178c0.753,0,1.379,0.617,1.379,1.375v20.316H353.725L353.725,653.52z"/>
	</g>
	<g>
		<path fill="none" d="M333.22,551.557c0,0.752-0.617,1.369-1.369,1.369h-10.403c-0.756,0-1.373-0.617-1.373-1.369v-19.664
			c0-0.752,0.617-1.373,1.373-1.373h10.403c0.752,0,1.369,0.619,1.369,1.373V551.557L333.22,551.557z"/>
	</g>
	<g>
		<path fill="none" d="M169.979,217.932c-0.752,0-1.371,0.618-1.371,1.37v19.75c0,0.753,0,1.986,0,2.742v12.614
			c0,0.754,0.618,1.37,1.371,1.37h11.134c0.748,0,1.369-0.618,1.369-1.37v-12.614c0-0.754,0.618-1.37,1.37-1.37h6.508
			c0.75,0,1.369-0.616,1.369-1.37v-19.75c0-0.753-0.618-1.37-1.369-1.37L169.979,217.932L169.979,217.932L169.979,217.932z"/>
	</g>
	<g>
		<path fill="none" d="M185.735,245.413c0-0.754,0.618-1.371,1.371-1.371h18.095c0.753,0,1.369,0.617,1.369,1.371v8.993
			c0,0.754-0.616,1.37-1.369,1.37h-18.095c-0.753,0-1.371-0.618-1.371-1.37V245.413z"/>
	</g>
	<g>
		<path fill="none" d="M206.572,239.053c0,0.753-0.617,1.37-1.369,1.37h-8.866c-0.753,0-1.37-0.617-1.37-1.37v-19.75
			c0-0.753,0.617-1.37,1.37-1.37h8.866c0.753,0,1.369,0.617,1.369,1.37V239.053z"/>
	</g>
	<g>
		<path fill="none" d="M208.665,605.481"/>
	</g>
	<g>
		<path fill="none" d="M206.005,636.524c0,0,0.597,0,1.329,0c0.733,0,1.331-0.619,1.331-1.371v-14.639"/>
	</g>
	<g>
		<path fill="none" d="M189.208,602.504h-2.197c-0.753,0-1.371,0.619-1.371,1.371v31.277c0,0.752,0.617,1.371,1.371,1.371h2.82"/>
	</g>
	<g>
		<line fill="none" x1="202.433" y1="602.504" x2="192.348" y2="602.504"/>
	</g>
	<g>
		<path fill="none" d="M202.433,602.504"/>
	</g>
	<g>
		<path fill="none" d="M208.665,605.481v-1.604c0-0.75-0.617-1.371-1.371-1.371h-1.722"/>
	</g>
	<g>
		<path fill="none" d="M-1.66,548.854v107.004c0,0.754,0.616,1.371,1.369,1.371h122.475c0.754,0,1.371-0.617,1.371-1.371V584.01
			c0-0.752-0.507-1.729-1.125-2.15l-13.085-9.104c-0.619-0.428-1.741-0.779-2.494-0.779H79.858"/>
	</g>
	<g>
		<path fill="none" d="M-1.66,548.854"/>
	</g>
	<g>
		<path fill="none" d="M-1.66,544.829"/>
	</g>
	<g>
		<path fill="none" d="M75.864,571.973H60.312c-0.754,0-1.371-0.617-1.371-1.371V494.7c0-0.748,0.617-1.371,1.371-1.371h19.034
			c0.753,0,1.37-0.617,1.37-1.369V257.15c0-0.754,0.616-1.369,1.369-1.369h21.521c0.754,0,1.37-0.617,1.37-1.37V147.745
			c0-0.754-0.616-1.37-1.37-1.37H17.345c-0.753,0-1.369-0.617-1.369-1.37V97.279c0-0.753-0.617-1.37-1.37-1.37h-34.472
			c-0.754,0-1.369,0.617-1.369,1.37v201.126c0,0.753,0.617,1.373,1.369,1.373h2.908c0.753,0,1.369,0.616,1.369,1.37v41.584
			c0,0.754-0.616,1.37-1.369,1.37h-2.908c-0.754,0-1.369,0.618-1.369,1.372v79.988c0,0.75,0.617,1.369,1.369,1.369h2.908
			c0.753,0,1.369,0.619,1.369,1.379v40.516c0,0.754-0.616,1.377-1.369,1.377h-2.908c-0.754,0-1.369,0.617-1.369,1.369v36.664
			c0,0.754,0.617,1.373,1.369,1.373H-3.03c0.753,0,1.37,0.619,1.37,1.371v33.963"/>
	</g>
	<g>
		<path fill="none" d="M207.809,339.946c0,0.755-0.617,1.371-1.369,1.371h-19.427c-0.753,0-1.371-0.617-1.371-1.371v-19.016
			c0-0.755,0.617-1.373,1.371-1.373h19.427c0.752,0,1.369,0.618,1.369,1.373V339.946L207.809,339.946z"/>
	</g>
	<g>
		<path fill="none" d="M105.064,567.02c0,0.754-0.616,1.373-1.369,1.373H85.169c-0.753,0-1.369-0.617-1.369-1.373v-9.328
			c0-0.754,0.617-1.377,1.369-1.377h18.526c0.754,0,1.369,0.617,1.369,1.377V567.02z"/>
	</g>
	<g>
		<path fill="none" d="M122.275,194.56"/>
	</g>
	<g>
		<line fill="none" x1="122.275" y1="230.955" x2="122.275" y2="200.458"/>
	</g>
	<g>
		<path fill="none" d="M122.275,230.955"/>
	</g>
	<g>
		<path fill="none" d="M182.215,264.805v-4.233c0-0.754-0.617-1.37-1.369-1.37h-57.2c-0.753,0-1.37-0.616-1.37-1.369v-20.979"/>
	</g>
	<g>
		<path fill="none" d="M182.215,264.805"/>
	</g>
	<g>
		<line fill="none" x1="182.215" y1="419.698" x2="182.215" y2="282.819"/>
	</g>
	<g>
		<line fill="none" x1="182.215" y1="536.87" x2="182.215" y2="423.631"/>
	</g>
	<g>
		<path fill="none" d="M182.215,536.87"/>
	</g>
	<g>
		<path fill="none" d="M176.745,636.524h4.102c0.753,0,1.369-0.619,1.369-1.371v-88.572"/>
	</g>
	<g>
		<line fill="none" x1="162.319" y1="636.524" x2="169.181" y2="636.524"/>
	</g>
	<g>
		<line fill="none" x1="139.617" y1="636.524" x2="146.145" y2="636.524"/>
	</g>
	<g>
		<path fill="none" d="M139.617,636.524"/>
	</g>
	<g>
		<path fill="none" d="M140.827,496.6H64.005c-0.753,0-1.37,0.617-1.37,1.375v53.555c0,0.752,0.617,1.375,1.37,1.375h76.399
			c0.753,0,1.369,0.617,1.369,1.371v29.85c0,0.752-0.616,1.373-1.369,1.373h-11.786c-0.753,0-1.37,0.617-1.37,1.375v48.289
			c0,0.752,0.617,1.375,1.37,1.375h3.222"/>
	</g>
	<g>
		<path fill="none" d="M105.946,317.843h58.747c0.752,0,1.369,0.618,1.369,1.373v176.015c0,0.75-0.617,1.369-1.369,1.369h-9.079"/>
	</g>
	<g>
		<path fill="none" d="M122.275,178.417v-6.56c0-0.753,0.617-1.369,1.369-1.369h40.096c0.753,0,1.371-0.617,1.371-1.37v-21.531
			c0-0.753-0.617-1.369-1.371-1.369h-53.7c-0.754,0-1.369,0.616-1.369,1.369v110.244c0,0.753-0.617,1.37-1.37,1.37H85.78
			c-0.754,0-1.371,0.617-1.371,1.369v55.902c0,0.753,0.617,1.369,1.371,1.369h4.814"/>
	</g>
	<g id="room_114c">
		<path fill="none" d="M353.464,508.137c0,0.75-0.615,1.371-1.37,1.371h-72.188c-0.753,0-1.372-0.619-1.372-1.371v-77.998
			c0-0.754,0.617-1.377,1.372-1.377h72.188c0.755,0,1.37,0.619,1.37,1.377V508.137L353.464,508.137z"/>
	</g>
	<g id="room_114">
		<path fill="none" d="M318.021,556.458c-0.752,0-1.371-0.619-1.371-1.377v-26.617c0-0.754,0.617-1.373,1.371-1.373h14.099
			c0.752,0,1.37-0.619,1.37-1.371v-11.42c0-0.748-0.617-1.371-1.37-1.371H279.68c-0.756,0-1.373,0.617-1.373,1.371v40.785
			c0,0.754-0.617,1.375-1.369,1.375H213.46c-0.752,0-1.371,0.619-1.371,1.369v69.209c0,0.752,0.617,1.371,1.371,1.371h138.894
			c0.752,0,1.369-0.619,1.369-1.371v-69.209c0-0.75-0.617-1.369-1.369-1.369L318.021,556.458L318.021,556.458L318.021,556.458z"/>
	</g>
	<g id="room_111h">
		<path fill="none" d="M353.751,254.406c0,0.754-0.617,1.37-1.369,1.37h-55.958c-0.753,0-1.373-0.618-1.373-1.37v-49.892
			c0-0.752,0.617-1.369,1.373-1.369h55.958c0.752,0,1.369,0.617,1.369,1.369V254.406z"/>
	</g>
	<g id="room_111c">
		<path fill="none" d="M292.998,146.282c-0.754,0-1.371,0.022-1.371,0.047c0,0.026-0.618,0.047-1.369,0.047h-53.202
			c-0.755,0-1.371,0.617-1.371,1.37v65.39c0,0.753,0.617,1.37,1.371,1.37h53.202c0.75,0,1.369-0.617,1.369-1.37v-11.93
			c0-0.752,0.617-1.369,1.371-1.369h59.096c0.755,0,1.379-0.617,1.379-1.371v-50.814c0-0.754-0.618-1.37-1.379-1.37L292.998,146.282
			L292.998,146.282L292.998,146.282z"/>
	</g>
	<g id="room_111b">
		<path fill="none" d="M209.386,145.991c-0.753,0-1.369,0.617-1.369,1.37v6.665c0,0.753-0.618,1.369-1.371,1.369h-36.667
			c-0.752,0-1.373,0.617-1.373,1.371v56.372c0,0.754,0.618,1.369,1.373,1.369h36.667c0.752,0,1.984,0,2.742,0h21.504
			c0.753,0,1.369-0.617,1.369-1.369v-65.776c0-0.753-0.617-1.369-1.369-1.369L209.386,145.991L209.386,145.991z"/>
	</g>
	<g>
		<path fill="none" d="M144.841,254.012c0,0.754-0.616,1.369-1.37,1.369h-13.876c-0.753,0-1.371-0.616-1.371-1.369v-8.295
			c0-0.753,0.618-1.369,1.371-1.369h13.876c0.754,0,1.37,0.617,1.37,1.369V254.012z"/>
	</g>
	<g>
		<path fill="none" d="M164.646,254.103c0,0.754-0.616,1.37-1.369,1.37h-13.875c-0.753,0-1.371-0.617-1.371-1.37V245.8
			c0-0.754,0.618-1.37,1.371-1.37h13.875c0.753,0,1.369,0.617,1.369,1.37V254.103z"/>
	</g>
	<g id="room_112">
		<path fill="none" d="M227.959,382.361c0,0.751-0.618,1.372-1.371,1.372H187.01c-0.753,0-1.371-0.619-1.371-1.372v-36.013
			c0-0.753,0.617-1.37,1.371-1.37h39.579c0.754,0,1.371,0.616,1.371,1.37L227.959,382.361L227.959,382.361z"/>
	</g>
	<g id="room_113">
		<path fill="none" d="M228.197,424.338c0,0.754-0.617,1.373-1.369,1.373h-39.817c-0.753,0-1.371-0.619-1.371-1.373v-16.537
			c0-0.75,0.617-1.373,1.371-1.373h39.817c0.753,0,1.369,0.617,1.369,1.373V424.338z"/>
	</g>
	<g id="room_111e">
		<path fill="none" d="M249.386,382.361c0,0.751-0.616,1.372-1.369,1.372h-15.145c-0.755,0-1.371-0.619-1.371-1.372v-14.812
			c0-0.755,0.618-1.374,1.371-1.374h15.145c0.753,0,1.369,0.618,1.369,1.374V382.361z"/>
	</g>
	<g id="unknown_room">
		<path fill="none" d="M210.758,402.313c0,0.754-0.618,1.377-1.37,1.377h-22.376c-0.753,0-1.371-0.619-1.371-1.377v-13.785
			c0-0.748,0.617-1.371,1.371-1.371h22.376c0.753,0,1.37,0.619,1.37,1.371V402.313z"/>
	</g>
	<g id="room_114e">
		<path fill="none" d="M232.869,387.157c-0.755,0-1.987,0-2.743,0h-15.145c-0.753,0-1.371,0.619-1.371,1.371v13.881
			c0,0.754,0.618,1.375,1.371,1.375h15.145c0.752,0,1.371,0.617,1.371,1.371v19.404c0,0.748,0.617,1.369,1.371,1.369h15.144
			c0.753,0,1.371-0.619,1.371-1.369v-36.031c0-0.748-0.618-1.371-1.371-1.371H232.869L232.869,387.157z"/>
	</g>
	<g id="room_111f">
		<path fill="none" d="M249.235,361.154c0,0.754-0.618,1.37-1.373,1.37h-14.994c-0.755,0-1.371-0.617-1.371-1.37v-14.806
			c0-0.753,0.617-1.37,1.371-1.37h14.994c0.755,0,1.373,0.616,1.373,1.37V361.154z"/>
	</g>
	<g id="room_111">
		<path fill="none" d="M334.793,303.015c-0.751,0-1.369-0.618-1.369-1.369v-41.003c0-0.753-0.618-1.37-1.371-1.37h-39.063
			c-0.752,0-1.37-0.617-1.37-1.369v-38.601c0-0.754-0.616-1.37-1.369-1.37h-78.893c-0.75,0-1.369,0.617-1.369,1.37v38.602
			c0,0.754-0.617,1.37-1.369,1.37h-21.617c-0.752,0-1.369,0.616-1.369,1.37v39.665c0,0.753,0,1.669,0,2.041c0,0.365,0,1.285,0,2.038
			v10.547c0,0.753,0.618,1.371,1.369,1.371h22.854c0.753,0,1.371,0.616,1.371,1.37V340.4c0,0.75,0.618,1.37,1.369,1.37h38.837
			c0.753,0,1.369,0.617,1.369,1.369v81.199c0,0.746,0.618,1.369,1.371,1.369h97.915c0.752,0,1.374-0.619,1.374-1.369V304.386
			c0-0.752-0.618-1.369-1.374-1.369h-17.295V303.015L334.793,303.015z"/>
	</g>
	<g id="room_114b">
		<g id="_x31_14B_1_">
			<path fill="none" d="M274.919,551.557c0,0.752-0.617,1.369-1.37,1.369h-86.538c-0.753,0-1.371-0.617-1.371-1.369V430.715
				c0-0.75,0.617-1.371,1.371-1.371h86.54c0.754,0,1.371,0.619,1.371,1.371v120.842H274.919L274.919,551.557L274.919,551.557z"/>
		</g>
		<g>
			<path fill="none" d="M270.887,429.344h2.664c0.754,0,1.371,0.619,1.371,1.371v4.547"/>
		</g>
		<g>
			<line fill="none" x1="274.919" y1="441.159" x2="274.919" y2="472.381"/>
		</g>
		<g>
			<path fill="none" d="M274.919,478.282v73.275c0,0.752-0.617,1.371-1.37,1.371h-26.427"/>
		</g>
		<g>
			<path fill="none" d="M237.414,552.926h-50.403c-0.753,0-1.373-0.617-1.374-1.371l-0.016-4.975"/>
		</g>
		<g>
			<path fill="none" d="M185.63,536.87l0.011-106.156c0-0.75,0.618-1.369,1.371-1.369h47.627"/>
		</g>
		<g>
			<line fill="none" x1="246.246" y1="429.344" x2="264.989" y2="429.344"/>
		</g>
	</g>
	<g id="polyconnect_furniture">
		<g>
			<path d="M196.354,440.852c0.103-0.182,0.337-0.248,0.522-0.146l5.338,2.955c0.183,0.102,0.247,0.334,0.143,0.516l-2.502,4.279
				c-0.11,0.176-0.103,0.475,0.011,0.65l5.325,8.688c0.111,0.174,0.366,0.326,0.579,0.326l13.438,0.025
				c0.206,0,0.383,0.176,0.383,0.381v5.652c0,0.209-0.175,0.381-0.383,0.381h-12.844c-0.208,0-0.476,0.143-0.591,0.316l-2.892,4.33
				c-0.117,0.176-0.365,0.23-0.543,0.127l-5.433-3.139c-0.179-0.111-0.238-0.332-0.121-0.516l2.68-4.178
				c0.112-0.174,0.121-0.469,0.017-0.65l-4.976-8.783c-0.104-0.184-0.362-0.334-0.569-0.332l-4.528,0.029
				c-0.208,0.004-0.38-0.174-0.38-0.375v-5.947c0-0.205,0.173-0.381,0.38-0.381h4.191c0.208,0,0.464-0.145,0.568-0.33
				L196.354,440.852z"/>
		</g>
		<g>
			<path d="M196.843,474.237c0.113-0.174,0.355-0.232,0.534-0.123l4.69,2.828c0.178,0.111,0.24,0.346,0.139,0.527l-2.362,4.129
				c-0.104,0.184-0.102,0.477,0.01,0.654l5.324,8.684c0.111,0.176,0.369,0.33,0.582,0.33l8.911,0.016
				c0.206,0.002,0.459-0.15,0.556-0.334l2.543-4.76c0.1-0.184,0.329-0.252,0.512-0.148l5.699,3.25
				c0.181,0.104,0.237,0.334,0.124,0.508l-2.871,4.416c-0.112,0.176-0.116,0.465-0.003,0.645l2.251,3.537
				c0.111,0.174,0.055,0.408-0.121,0.521l-4.867,2.98c-0.175,0.111-0.426,0.055-0.543-0.111l-2.607-3.758
				c-0.121-0.174-0.39-0.314-0.599-0.314h-9.021c-0.208,0-0.478,0.143-0.594,0.314l-2.68,3.916
				c-0.115,0.174-0.364,0.223-0.532,0.105l-5.036-3.283c-0.174-0.111-0.222-0.352-0.107-0.523l2.648-3.934
				c0.116-0.176,0.125-0.463,0.02-0.645l-4.949-8.451c-0.111-0.174-0.366-0.33-0.573-0.328l-4.528,0.031
				c-0.209,0.002-0.38-0.176-0.38-0.379v-5.941c0-0.207,0.171-0.379,0.38-0.377l4.457,0.008c0.206,0,0.465-0.145,0.586-0.32
				L196.843,474.237z"/>
		</g>
		<g>
			<path d="M265.121,441.176c-0.105-0.176-0.338-0.246-0.522-0.143l-5.339,2.955c-0.182,0.104-0.244,0.332-0.143,0.516l2.504,4.281
				c0.108,0.176,0.105,0.475-0.007,0.65l-5.326,8.686c-0.111,0.176-0.368,0.328-0.581,0.33l-7.933,0.025
				c-0.207,0-0.38,0.174-0.38,0.379v5.654c0,0.207,0.174,0.379,0.38,0.379h7.336c0.206,0,0.476,0.145,0.59,0.318l2.892,4.33
				c0.117,0.174,0.363,0.232,0.545,0.125l5.43-3.137c0.18-0.105,0.237-0.334,0.125-0.512l-2.68-4.182
				c-0.11-0.174-0.12-0.469-0.016-0.65l4.977-8.781c0.104-0.178,0.359-0.334,0.568-0.332l4.526,0.031
				c0.206,0.002,0.38-0.17,0.38-0.377v-5.943c0-0.207-0.174-0.379-0.38-0.379h-4.189c-0.208,0-0.464-0.146-0.567-0.334
				L265.121,441.176z"/>
		</g>
		<g>
			<path d="M196.843,507.274c0.113-0.176,0.355-0.232,0.534-0.125l4.69,2.832c0.178,0.111,0.24,0.346,0.139,0.525l-2.362,4.131
				c-0.104,0.18-0.102,0.479,0.01,0.652l5.324,8.688c0.111,0.174,0.369,0.324,0.582,0.324l8.911,0.016
				c0.206,0.002,0.459-0.143,0.556-0.334l2.543-4.76c0.1-0.184,0.329-0.25,0.512-0.146l5.699,3.246
				c0.181,0.109,0.237,0.332,0.124,0.506l-2.871,4.424c-0.112,0.174-0.116,0.459-0.003,0.641l2.251,3.535
				c0.111,0.174,0.055,0.406-0.121,0.523l-4.867,2.979c-0.175,0.111-0.426,0.057-0.543-0.111l-2.607-3.758
				c-0.121-0.174-0.39-0.312-0.599-0.312h-9.021c-0.208,0-0.478,0.143-0.594,0.316l-2.68,3.916
				c-0.115,0.176-0.364,0.223-0.532,0.109l-5.036-3.287c-0.174-0.111-0.222-0.35-0.107-0.523l2.648-3.932
				c0.116-0.176,0.125-0.465,0.02-0.65l-4.949-8.445c-0.111-0.178-0.366-0.328-0.573-0.326l-4.528,0.029
				c-0.209,0.004-0.38-0.174-0.38-0.375v-5.945c0-0.207,0.171-0.383,0.38-0.381l4.457,0.012c0.206,0.002,0.465-0.143,0.586-0.318
				L196.843,507.274z"/>
		</g>
		<g>
			<path d="M264.504,509.829c-0.113,0.176-0.354,0.236-0.535,0.123l-4.689-2.828c-0.177-0.111-0.237-0.346-0.137-0.523l2.363-4.135
				c0.104-0.178,0.1-0.479-0.016-0.65l-5.322-8.688c-0.111-0.174-0.367-0.324-0.582-0.324l-8.91-0.018
				c-0.207,0-0.46,0.148-0.558,0.332l-2.545,4.764c-0.1,0.18-0.327,0.248-0.51,0.143l-5.699-3.244
				c-0.178-0.105-0.237-0.334-0.12-0.51l2.87-4.42c0.111-0.174,0.109-0.457-0.019-0.619l-4.637-6.01
				c-0.129-0.168-0.082-0.395,0.089-0.5l4.813-3.029c0.175-0.111,0.428-0.072,0.562,0.094l5.058,6.271
				c0.132,0.168,0.41,0.299,0.618,0.299h9.023c0.205,0,0.477-0.143,0.592-0.311l2.68-3.916c0.115-0.176,0.363-0.223,0.532-0.107
				l5.036,3.283c0.176,0.111,0.223,0.35,0.107,0.523l-2.648,3.934c-0.116,0.174-0.127,0.459-0.02,0.641l4.949,8.447
				c0.11,0.18,0.365,0.334,0.572,0.334l4.526-0.031c0.21-0.002,0.381,0.168,0.381,0.377v5.941c0,0.207-0.175,0.379-0.381,0.379
				l-4.456-0.01c-0.207,0-0.473,0.145-0.586,0.32L264.504,509.829z"/>
		</g>
		<g>
			<path d="M264.631,544.424c-0.114,0.176-0.354,0.234-0.533,0.123l-4.69-2.832c-0.179-0.109-0.239-0.342-0.138-0.523l2.361-4.129
				c0.105-0.182,0.102-0.477-0.01-0.654l-5.326-8.68c-0.109-0.178-0.367-0.334-0.579-0.334l-8.911-0.016
				c-0.209,0-0.459,0.15-0.559,0.334l-2.542,4.76c-0.1,0.186-0.329,0.254-0.512,0.148l-5.702-3.248
				c-0.18-0.109-0.238-0.334-0.124-0.508l2.871-4.424c0.114-0.174,0.115-0.459,0.003-0.639l-2.251-3.537
				c-0.111-0.174-0.059-0.41,0.119-0.523l4.866-2.977c0.18-0.111,0.425-0.057,0.542,0.111l2.609,3.756
				c0.119,0.174,0.388,0.311,0.596,0.311h9.021c0.208,0,0.479-0.143,0.595-0.312l2.679-3.918c0.116-0.174,0.364-0.219,0.53-0.111
				l5.038,3.291c0.175,0.111,0.222,0.35,0.106,0.523l-2.649,3.932c-0.117,0.174-0.124,0.463-0.021,0.65l4.951,8.445
				c0.11,0.18,0.365,0.332,0.573,0.33l4.526-0.029c0.208-0.002,0.381,0.172,0.381,0.373v5.945c0,0.207-0.174,0.383-0.381,0.381
				l-4.455-0.01c-0.208-0.002-0.475,0.143-0.588,0.318L264.631,544.424z"/>
		</g>
	</g>
	<g id="atrium">
		<path fill="none" d="M161.072,490.383c0,0.752-0.618,1.371-1.371,1.371H86.646c-0.753,0-1.37-0.617-1.37-1.371V324.107
			c0-0.752,0.616-1.37,1.37-1.37h73.055c0.753,0,1.371,0.618,1.371,1.37V490.383z"/>
	</g>
	<g>
		<path fill="none" d="M105.946,322.739h53.755c0.753,0,1.371,0.616,1.371,1.369v166.275c0,0.754-0.618,1.377-1.371,1.377h-4.086"/>
	</g>
	<g>
		<path fill="none" d="M139.916,491.752H86.161c-0.754,0-1.37-0.617-1.37-1.371V324.107c0-0.752,0.617-1.37,1.37-1.37h4.087"/>
	</g>
	<g id="Bathrooms">
		<g id="mens_rear">
			<path fill="none" d="M126.807,191.354c-0.753,0-1.369,0.618-1.369,1.37v20.412c0,0.754,0.617,1.371,1.369,1.371h37.007
				c0.753,0,1.369-0.616,1.369-1.371v-20.412c0-0.753-0.616-1.37-1.369-1.37L126.807,191.354L126.807,191.354z"/>
		</g>
		<g id="womens_rear">
			<path fill="none" d="M126.807,240.165c-0.753,0-1.369-0.617-1.369-1.37v-20.412c0-0.753,0.617-1.371,1.369-1.371h37.007
				c0.753,0,1.369,0.617,1.369,1.371v20.412c0,0.753-0.616,1.37-1.369,1.37H126.807z"/>
		</g>
		<g id="mens_front">
			<path fill="none" d="M195.916,597.711c0,0.748-0.618,1.369-1.37,1.369h-7.534c-0.754,0-1.371-0.617-1.371-1.369v-24.625
				c0-0.756,0.618-1.373,1.371-1.373h7.534c0.753,0,1.37,0.617,1.37,1.373V597.711z"/>
		</g>
		<g id="womens_front">
			<path fill="none" d="M208.665,597.711c0,0.748-0.617,1.369-1.371,1.369h-6.581c-0.753,0-1.373-0.617-1.373-1.369v-24.449
				c0-0.752,0.618-1.369,1.373-1.369h6.581c0.755,0,1.371,0.617,1.371,1.369V597.711z"/>
		</g>
	</g>
	<g id="label_114b">
		<path d="M189.898,550.077h-0.897v-1.727c0-0.209,0.006-0.402,0.016-0.578c-0.055,0.068-0.123,0.137-0.206,0.205l-0.369,0.305
			l-0.459-0.561l1.121-0.906h0.795v3.256L189.898,550.077L189.898,550.077z"/>
		<path d="M192.572,550.077h-0.894v-1.727c0-0.209,0.004-0.402,0.014-0.578c-0.05,0.068-0.122,0.137-0.206,0.205l-0.37,0.305
			l-0.457-0.561l1.12-0.906h0.792V550.077L192.572,550.077z"/>
		<path d="M195.757,549.444h-0.36v0.631h-0.869v-0.631h-1.301v-0.648l1.347-1.982h0.813v1.971h0.36L195.757,549.444L195.757,549.444
			z M194.527,548.788v-0.379c0-0.072,0.001-0.168,0.006-0.289c0.006-0.117,0.011-0.18,0.016-0.189h-0.027
			c-0.047,0.111-0.11,0.221-0.174,0.324l-0.361,0.535h0.54L194.527,548.788L194.527,548.788z"/>
		<path d="M196.177,546.817h1.134c0.443,0,0.775,0.064,0.989,0.195c0.212,0.137,0.323,0.336,0.323,0.619
			c0,0.182-0.046,0.336-0.143,0.467c-0.094,0.131-0.217,0.211-0.369,0.25v0.02c0.203,0.049,0.35,0.143,0.438,0.27
			c0.091,0.127,0.139,0.287,0.139,0.486c0,0.301-0.11,0.529-0.333,0.705c-0.223,0.172-0.524,0.256-0.905,0.256h-1.268
			L196.177,546.817L196.177,546.817z M197.058,548.067h0.269c0.126,0,0.226-0.025,0.293-0.078c0.079-0.049,0.111-0.131,0.111-0.238
			c0-0.178-0.143-0.27-0.415-0.27h-0.248L197.058,548.067L197.058,548.067z M197.058,548.711v0.682h0.311
			c0.273,0,0.412-0.115,0.412-0.348c0-0.111-0.037-0.191-0.111-0.25c-0.073-0.057-0.178-0.08-0.318-0.08L197.058,548.711
			L197.058,548.711z"/>
	</g>
	<g id="label_114c">
		<path d="M282.376,506.752h-0.896v-1.729c0-0.209,0.006-0.4,0.015-0.576c-0.053,0.066-0.121,0.139-0.205,0.207l-0.368,0.303
			l-0.46-0.559l1.121-0.912h0.795v3.262L282.376,506.752L282.376,506.752z"/>
		<path d="M285.051,506.752h-0.894v-1.729c0-0.209,0.005-0.4,0.014-0.576c-0.05,0.066-0.122,0.139-0.206,0.207l-0.369,0.303
			l-0.457-0.559l1.119-0.912h0.795L285.051,506.752L285.051,506.752z"/>
		<path d="M288.235,506.12h-0.36v0.633h-0.869v-0.633h-1.301v-0.646l1.347-1.982h0.813v1.971h0.359L288.235,506.12L288.235,506.12z
			 M287.006,505.461v-0.379c0-0.072,0.001-0.174,0.006-0.289c0.006-0.121,0.01-0.184,0.016-0.191h-0.026
			c-0.048,0.111-0.11,0.223-0.175,0.324l-0.363,0.535h0.54l0,0H287.006z"/>
		<path d="M290.107,504.167c-0.208,0-0.372,0.084-0.491,0.26c-0.119,0.172-0.175,0.408-0.175,0.711c0,0.627,0.237,0.939,0.715,0.939
			c0.143,0,0.285-0.021,0.42-0.059c0.136-0.045,0.271-0.09,0.408-0.145v0.746c-0.272,0.119-0.58,0.178-0.926,0.178
			c-0.491,0-0.872-0.143-1.131-0.428c-0.264-0.285-0.395-0.699-0.395-1.236c0-0.334,0.064-0.635,0.191-0.891
			c0.127-0.254,0.311-0.453,0.549-0.588c0.238-0.143,0.52-0.205,0.84-0.205c0.354,0,0.688,0.078,1.008,0.232l-0.27,0.689
			c-0.122-0.053-0.239-0.107-0.363-0.145C290.374,504.186,290.246,504.167,290.107,504.167z"/>
	</g>
	<g id="label_114">
		<path d="M216.346,625.87h-0.894v-1.729c0-0.205,0.006-0.398,0.015-0.574c-0.055,0.068-0.124,0.139-0.206,0.205l-0.367,0.305
			l-0.46-0.561l1.123-0.906h0.794L216.346,625.87L216.346,625.87z"/>
		<path d="M219.023,625.87h-0.895v-1.729c0-0.205,0.004-0.398,0.014-0.574c-0.054,0.068-0.124,0.139-0.206,0.205l-0.37,0.305
			l-0.458-0.561l1.12-0.906h0.795V625.87L219.023,625.87z"/>
		<path d="M222.205,625.239h-0.359v0.629h-0.871v-0.629h-1.301v-0.646l1.348-1.982h0.814v1.971h0.358L222.205,625.239
			L222.205,625.239z M220.977,624.579V624.2c0-0.07,0.001-0.174,0.007-0.287c0.005-0.123,0.008-0.186,0.016-0.191h-0.023
			c-0.049,0.111-0.111,0.223-0.175,0.322l-0.361,0.537h0.54v-0.002H220.977z"/>
	</g>
	<g id="label_113_x0D_">
		<path d="M189.898,422.836h-0.897v-1.729c0-0.209,0.006-0.4,0.015-0.578c-0.053,0.068-0.123,0.139-0.205,0.207l-0.366,0.303
			l-0.459-0.559l1.123-0.906h0.794v3.258L189.898,422.836L189.898,422.836z"/>
		<path d="M192.572,422.836h-0.894v-1.729c0-0.209,0.004-0.4,0.014-0.578c-0.05,0.068-0.122,0.139-0.206,0.207l-0.37,0.303
			l-0.457-0.559l1.12-0.906h0.792V422.836L192.572,422.836z"/>
		<path d="M195.542,420.28c0,0.207-0.062,0.377-0.186,0.523c-0.124,0.143-0.3,0.252-0.534,0.316v0.016
			c0.543,0.07,0.816,0.33,0.816,0.773c0,0.303-0.122,0.543-0.363,0.715c-0.238,0.176-0.572,0.262-0.997,0.262
			c-0.175,0-0.339-0.016-0.491-0.037c-0.145-0.025-0.307-0.078-0.492-0.145v-0.73c0.144,0.078,0.289,0.125,0.437,0.162
			c0.148,0.041,0.284,0.053,0.407,0.053c0.195,0,0.333-0.027,0.424-0.078c0.087-0.053,0.142-0.145,0.142-0.26
			c0-0.084-0.021-0.154-0.079-0.207c-0.046-0.047-0.119-0.082-0.223-0.109c-0.103-0.021-0.236-0.037-0.396-0.037h-0.207v-0.664
			h0.207c0.451,0,0.675-0.109,0.675-0.338c0-0.084-0.033-0.148-0.103-0.189c-0.068-0.047-0.151-0.064-0.27-0.064
			c-0.206,0-0.424,0.07-0.647,0.205l-0.366-0.586c0.175-0.119,0.35-0.207,0.531-0.256c0.181-0.047,0.388-0.078,0.618-0.078
			c0.334,0,0.602,0.066,0.792,0.203C195.447,419.862,195.542,420.047,195.542,420.28z"/>
	</g>
	<g id="label_114e">
		<path d="M234.624,422.834h-0.895v-1.729c0-0.207,0.004-0.398,0.015-0.576c-0.055,0.066-0.123,0.139-0.206,0.205l-0.37,0.303
			l-0.458-0.559l1.12-0.912h0.795v3.262L234.624,422.834L234.624,422.834z"/>
		<path d="M237.3,422.834h-0.895v-1.729c0-0.207,0.006-0.398,0.015-0.576c-0.053,0.066-0.123,0.139-0.206,0.205l-0.365,0.303
			l-0.46-0.559l1.126-0.912h0.794v3.264L237.3,422.834L237.3,422.834z"/>
		<path d="M240.482,422.204h-0.36v0.631h-0.872v-0.631h-1.299v-0.646l1.355-1.982h0.809v1.973h0.364L240.482,422.204
			L240.482,422.204z M239.253,421.545v-0.379c0-0.078,0.003-0.174,0.008-0.289c0.004-0.121,0.009-0.184,0.015-0.191h-0.025
			c-0.046,0.111-0.11,0.223-0.174,0.322l-0.361,0.539h0.538V421.545L239.253,421.545z"/>
		<path d="M242.839,422.834h-1.936v-3.254h1.936v0.707h-1.056v0.514h0.975v0.713h-0.975v0.617h1.056V422.834z"/>
	</g>
	<g id="label_111e">
		<path d="M234.624,381.735h-0.895v-1.729c0-0.207,0.004-0.398,0.015-0.578c-0.055,0.068-0.123,0.14-0.206,0.209l-0.37,0.301
			l-0.458-0.559l1.12-0.908h0.795v3.262L234.624,381.735L234.624,381.735z"/>
		<path d="M237.3,381.735h-0.895v-1.729c0-0.207,0.006-0.398,0.015-0.578c-0.053,0.068-0.123,0.14-0.206,0.209l-0.365,0.301
			l-0.46-0.559l1.126-0.908h0.794v3.264H237.3L237.3,381.735z"/>
		<path d="M239.977,381.735h-0.896v-1.729c0-0.207,0.006-0.398,0.015-0.578c-0.055,0.068-0.123,0.14-0.206,0.209l-0.367,0.301
			l-0.459-0.559l1.123-0.908h0.794v3.264H239.977L239.977,381.735z"/>
		<path d="M242.839,381.735h-1.936v-3.262h1.936v0.712h-1.056v0.518h0.975v0.711h-0.975v0.616h1.056V381.735z"/>
	</g>
	<g id="label_112_x0D_">
		<path d="M189.898,381.733h-0.897v-1.729c0-0.207,0.006-0.397,0.015-0.578c-0.053,0.068-0.123,0.141-0.205,0.207l-0.366,0.301
			l-0.459-0.556l1.123-0.907h0.794v3.262H189.9v0.002h-0.001V381.733L189.898,381.733z"/>
		<path d="M192.572,381.733h-0.894v-1.729c0-0.207,0.004-0.397,0.014-0.578c-0.05,0.068-0.122,0.141-0.206,0.207l-0.37,0.301
			l-0.457-0.556l1.12-0.907h0.792V381.733L192.572,381.733z"/>
		<path d="M195.651,381.733h-2.366v-0.581l0.798-0.807c0.228-0.237,0.375-0.397,0.446-0.491c0.072-0.084,0.117-0.162,0.146-0.225
			c0.027-0.064,0.042-0.129,0.042-0.197c0-0.08-0.027-0.152-0.082-0.205c-0.046-0.048-0.132-0.075-0.232-0.075
			c-0.104,0-0.207,0.028-0.311,0.087c-0.106,0.055-0.223,0.143-0.355,0.26l-0.486-0.566c0.169-0.147,0.309-0.258,0.425-0.323
			c0.114-0.065,0.237-0.112,0.373-0.147c0.135-0.034,0.284-0.047,0.454-0.047c0.211,0,0.399,0.039,0.566,0.111
			c0.167,0.073,0.293,0.178,0.384,0.32c0.092,0.14,0.137,0.291,0.137,0.459c0,0.129-0.015,0.24-0.046,0.356
			c-0.031,0.111-0.082,0.215-0.148,0.325c-0.068,0.106-0.156,0.211-0.267,0.332c-0.111,0.116-0.346,0.334-0.709,0.66v0.016h1.234
			L195.651,381.733L195.651,381.733z"/>
	</g>
	<g id="label_111f">
		<path d="M234.624,360.041h-0.895v-1.729c0-0.207,0.004-0.399,0.015-0.576c-0.055,0.067-0.123,0.14-0.206,0.208l-0.37,0.304
			l-0.458-0.561l1.12-0.911h0.795v3.262L234.624,360.041L234.624,360.041z"/>
		<path d="M237.3,360.041h-0.895v-1.729c0-0.207,0.006-0.399,0.015-0.576c-0.053,0.067-0.123,0.14-0.206,0.208l-0.365,0.304
			l-0.46-0.561l1.126-0.911h0.794v3.265H237.3z"/>
		<path d="M239.977,360.041h-0.896v-1.729c0-0.207,0.006-0.399,0.015-0.576c-0.055,0.067-0.123,0.14-0.206,0.208l-0.367,0.304
			l-0.459-0.561l1.123-0.911h0.794v3.264L239.977,360.041L239.977,360.041z"/>
		<path d="M241.771,360.041h-0.869v-3.26h1.927v0.708h-1.062v0.62h0.977v0.708h-0.977L241.771,360.041L241.771,360.041z"/>
	</g>
	<g id="label_111_x0D_">
		<path d="M256.906,422.834h-0.896v-1.729c0-0.207,0.003-0.398,0.015-0.576c-0.055,0.066-0.123,0.139-0.205,0.205l-0.367,0.303
			l-0.46-0.559l1.126-0.912h0.798v3.264L256.906,422.834L256.906,422.834z"/>
		<path d="M259.582,422.834h-0.895v-1.729c0-0.207,0.004-0.398,0.015-0.576c-0.055,0.066-0.123,0.139-0.205,0.205l-0.368,0.303
			l-0.459-0.559l1.12-0.912h0.794v3.264L259.582,422.834L259.582,422.834z"/>
		<path d="M262.258,422.834h-0.895v-1.729c0-0.207,0.006-0.398,0.016-0.576c-0.054,0.066-0.123,0.139-0.206,0.205l-0.365,0.303
			l-0.46-0.559l1.126-0.912h0.794v3.264L262.258,422.834L262.258,422.834z"/>
	</g>
	<g id="label_111c">
		<path d="M239.064,212.633h-0.895v-1.727c0-0.209,0.005-0.401,0.014-0.575c-0.055,0.068-0.123,0.137-0.206,0.208l-0.37,0.305
			l-0.458-0.562l1.12-0.911h0.795V212.633L239.064,212.633z"/>
		<path d="M241.74,212.633h-0.895v-1.727c0-0.209,0.004-0.401,0.015-0.575c-0.053,0.068-0.123,0.137-0.206,0.208l-0.365,0.305
			l-0.459-0.562l1.125-0.911h0.794v3.262H241.74z"/>
		<path d="M244.416,212.633h-0.894v-1.727c0-0.209,0.003-0.401,0.014-0.575c-0.046,0.068-0.123,0.137-0.206,0.208l-0.367,0.305
			l-0.459-0.562l1.123-0.911h0.794v3.261L244.416,212.633L244.416,212.633z"/>
		<path d="M246.796,210.049c-0.209,0-0.375,0.085-0.491,0.257c-0.114,0.172-0.175,0.408-0.175,0.709
			c0,0.628,0.237,0.941,0.715,0.941c0.143,0,0.282-0.019,0.419-0.06c0.137-0.041,0.271-0.088,0.407-0.145v0.745
			c-0.27,0.121-0.582,0.18-0.925,0.18c-0.492,0-0.871-0.144-1.129-0.428c-0.265-0.285-0.396-0.699-0.396-1.238
			c0-0.337,0.064-0.633,0.19-0.89c0.128-0.255,0.309-0.452,0.552-0.59c0.237-0.138,0.521-0.206,0.84-0.206
			c0.353,0,0.688,0.076,1.009,0.229l-0.27,0.693c-0.119-0.056-0.239-0.104-0.364-0.143
			C247.061,210.066,246.933,210.049,246.796,210.049z"/>
	</g>
	<g id="label_111h">
		<path d="M298.307,253.735h-0.894v-1.726c0-0.209,0.005-0.401,0.014-0.576c-0.055,0.068-0.123,0.137-0.206,0.208l-0.369,0.305
			l-0.459-0.562l1.12-0.911h0.794V253.735L298.307,253.735z"/>
		<path d="M300.981,253.735h-0.892v-1.726c0-0.209,0.002-0.401,0.014-0.576c-0.054,0.068-0.124,0.137-0.206,0.208l-0.365,0.305
			l-0.46-0.562l1.126-0.911h0.792v3.262H300.981z"/>
		<path d="M303.658,253.735h-0.896v-1.726c0-0.209,0.006-0.401,0.016-0.576c-0.054,0.068-0.122,0.137-0.206,0.208l-0.368,0.305
			l-0.46-0.562l1.121-0.911h0.794V253.735L303.658,253.735z"/>
		<path d="M307.38,253.735h-0.885v-1.33h-1.024v1.33h-0.885v-3.26h0.885v1.209h1.024v-1.209h0.885V253.735z"/>
	</g>
	<g id="label_111b">
		<path d="M172.591,212.633h-0.894v-1.727c0-0.209,0.003-0.401,0.014-0.575c-0.055,0.068-0.124,0.137-0.206,0.208l-0.369,0.305
			l-0.458-0.562l1.12-0.911h0.794v3.262H172.591z"/>
		<path d="M175.267,212.633h-0.895v-1.727c0-0.209,0.006-0.401,0.016-0.575c-0.055,0.068-0.123,0.137-0.206,0.208l-0.37,0.305
			l-0.457-0.562l1.12-0.911h0.794L175.267,212.633L175.267,212.633z"/>
		<path d="M177.943,212.633h-0.895v-1.727c0-0.209,0.006-0.401,0.015-0.575c-0.05,0.068-0.119,0.137-0.206,0.208l-0.366,0.305
			l-0.459-0.562l1.124-0.911h0.794v3.261L177.943,212.633L177.943,212.633z"/>
		<path d="M178.871,209.373h1.137c0.443,0,0.772,0.065,0.987,0.198c0.214,0.132,0.321,0.335,0.321,0.614
			c0,0.183-0.046,0.339-0.14,0.468c-0.095,0.129-0.218,0.212-0.37,0.25v0.022c0.202,0.053,0.349,0.143,0.438,0.27
			c0.091,0.125,0.137,0.286,0.137,0.486c0,0.296-0.11,0.53-0.333,0.699c-0.223,0.171-0.526,0.255-0.908,0.255h-1.268
			L178.871,209.373L178.871,209.373z M179.752,210.623h0.269c0.125,0,0.225-0.025,0.294-0.079c0.078-0.05,0.11-0.129,0.11-0.232
			c0-0.183-0.143-0.274-0.415-0.274h-0.248L179.752,210.623L179.752,210.623z M179.752,211.269v0.684h0.307
			c0.275,0,0.412-0.116,0.412-0.349c0-0.109-0.036-0.192-0.11-0.25c-0.075-0.059-0.181-0.086-0.321-0.086L179.752,211.269
			L179.752,211.269z"/>
	</g>
	<g>
		<path fill="none" d="M287.602,214.362h2.658c0.752,0,1.369-0.617,1.369-1.37v-11.929c0-0.752,0.618-1.369,1.371-1.369h59.098
			c0.753,0,1.378-0.617,1.378-1.37v-50.816c0-0.753-0.617-1.371-1.378-1.371l-115.042,0.095c-0.754,0-1.371,0.618-1.371,1.372
			v65.389c0,0.754,0.617,1.37,1.371,1.37h40.838"/>
	</g>
	<g>
		<path fill="none" d="M185.641,264.807v-4.163c0-0.754,0.618-1.369,1.371-1.369h21.615c0.752,0,1.37-0.618,1.37-1.37v-38.604
			c0-0.753,0.618-1.37,1.371-1.37h11.815"/>
	</g>
	<g>
		<line fill="none" x1="229.082" y1="217.932" x2="278.053" y2="217.932"/>
	</g>
	<g>
		<path fill="none" d="M287.762,217.932h2.496c0.75,0,1.369,0.618,1.369,1.37v3.979"/>
	</g>
	<g>
		<path fill="none" d="M333.432,270.008v31.638c0,0.751,0.618,1.371,1.373,1.371h17.292c0.753,0,1.379,0.617,1.379,1.369v119.953
			c0,0.754-0.618,1.369-1.379,1.369h-52.185"/>
	</g>
	<g>
		<path fill="none" d="M291.629,229.178v28.728c0,0.753,0.618,1.37,1.371,1.37h39.062c0.755,0,1.373,0.617,1.373,1.369v4.668"/>
	</g>
	<g>
		<line fill="none" x1="290.199" y1="425.708" x2="270.887" y2="425.708"/>
	</g>
	<g>
		<path fill="none" d="M211.234,334.577v-16.903c0-0.753-0.617-1.371-1.371-1.371h-22.85c-0.753,0-1.371-0.618-1.371-1.37v-32.115"
			/>
	</g>
	<g>
		<path fill="none" d="M214.247,341.771h-1.641c-0.753,0-1.372-0.618-1.372-1.371v-1.889"/>
	</g>
	<g>
		<path fill="none" d="M252.811,357.286v-14.146c0-0.755-0.617-1.369-1.369-1.369h-33.263"/>
	</g>
	<g>
		<line fill="none" x1="252.811" y1="379.104" x2="252.811" y2="360.964"/>
	</g>
	<g>
		<path fill="none" d="M264.989,425.708h-10.808c-0.752,0-1.371-0.617-1.371-1.373V382.78"/>
	</g>
	<g>
		<path fill="none" d="M223.185,214.507h-53.203c-0.752,0-1.371-0.616-1.371-1.371v-56.372c0-0.753,0.618-1.369,1.371-1.369h36.667
			c0.753,0,1.372-0.617,1.372-1.37v-6.665c0-0.753,0.617-1.369,1.369-1.369h21.505c0.752,0,1.369,0.616,1.369,1.369v65.775
			c0,0.754-0.618,1.371-1.369,1.371h-1.808"/>
	</g>
	<g>
		<path fill="none" d="M295.055,223.278v-18.763c0-0.753,0.617-1.369,1.372-1.369h55.958c0.75,0,1.378,0.616,1.378,1.369v49.893
			c0,0.753-0.618,1.37-1.378,1.37h-55.959c-0.754,0-1.375-0.617-1.375-1.37v-25.229"/>
	</g>
	<g>
		<path fill="none" d="M249.235,357.286v-10.937c0-0.755-0.618-1.369-1.373-1.369h-14.994c-0.755,0-1.371,0.616-1.371,1.369v14.807
			c0,0.753,0.617,1.369,1.371,1.369h14.994c0.755,0,1.405-0.351,1.446-0.778c0.041-0.429,0.075-0.78,0.075-0.78"/>
	</g>
	<g>
		<path fill="none" d="M249.386,379.104v-11.557c0-0.755-0.616-1.373-1.369-1.373h-15.145c-0.755,0-1.371,0.618-1.371,1.373v14.812
			c0,0.753,0.618,1.373,1.371,1.373h15.145c0.753,0,1.369-0.215,1.369-0.477s0-0.476,0-0.476"/>
	</g>
	<g>
		<path fill="none" d="M234.639,425.92h-1.767c-0.755,0-1.371-0.619-1.371-1.377v-19.396c0-0.754-0.617-1.375-1.371-1.375h-15.145
			c-0.752,0-1.371-0.619-1.371-1.373v-13.875c0-0.753,0.618-1.371,1.371-1.371h33.032c0.753,0,1.369,0.618,1.369,1.371v36.02
			c0,0.754-0.616,1.377-1.369,1.377h-1.769"/>
	</g>
	<g>
		<path fill="none" d="M199.562,341.317h-12.55c-0.753,0-1.371-0.617-1.371-1.371v-19.016c0-0.755,0.617-1.373,1.371-1.373h19.427
			c0.752,0,1.369,0.618,1.369,1.373v13.648"/>
	</g>
	<g>
		<path fill="none" d="M203.496,341.317h2.943c0.752,0,1.369-0.617,1.369-1.371v-1.437"/>
	</g>
	<g>
		<path fill="none" d="M199.562,344.979h-12.55c-0.753,0-1.371,0.616-1.371,1.369v36.013c0,0.751,0.617,1.372,1.371,1.372h17.011"/>
	</g>
	<g>
		<line fill="none" x1="203.496" y1="344.979" x2="214.247" y2="344.979"/>
	</g>
	<g>
		<path fill="none" d="M218.179,344.979h8.411c0.752,0,1.37,0.616,1.37,1.369v36.013c0,0.751-0.617,1.372-1.37,1.372h-18.632"/>
	</g>
	<g>
		<path fill="none" d="M204.021,387.157h-17.009c-0.753,0-1.371,0.619-1.371,1.371v13.785c0,0.754,0.617,1.377,1.371,1.377h22.373
			c0.753,0,1.372-0.619,1.372-1.377v-13.785c0-0.748-0.618-1.371-1.372-1.371h-1.435"/>
	</g>
	<g>
		<path fill="none" d="M185.63,419.698l0.009-11.902c0.002-0.746,0.618-1.371,1.373-1.371h39.817c0.753,0,1.369,0.619,1.369,1.371
			v16.539c0,0.752-0.617,1.373-1.369,1.373h-39.815c-0.753,0-1.375-0.467-1.379-1.037c-0.002-0.574-0.005-1.035-0.005-1.035"/>
	</g>
	<g>
		<path fill="none" d="M278.535,435.26v-5.121c0-0.75,0.617-1.375,1.37-1.375h10.292"/>
	</g>
	<g>
		<path fill="none" d="M299.908,428.77h52.187c0.754,0,1.369,0.617,1.369,1.369v78c0,0.752-0.615,1.371-1.369,1.373l-52.187,0.107"
			/>
	</g>
	<g>
		<line fill="none" x1="278.535" y1="472.381" x2="278.535" y2="441.159"/>
	</g>
	<g>
		<path fill="none" d="M290.199,509.508h-10.293c-0.75,0-1.369-0.619-1.369-1.371V478.28"/>
	</g>
	<g>
		<path fill="none" d="M237.414,556.458H213.46c-0.753,0-1.372,0.617-1.372,1.369v47.65"/>
	</g>
	<g>
		<path fill="none" d="M333.492,516.713v-2.41c0-0.754-0.617-1.377-1.371-1.377H299.91"/>
	</g>
	<g>
		<path fill="none" d="M333.492,516.713"/>
	</g>
	<g>
		<path fill="none" d="M212.09,620.514v6.516c0,0.75,0.618,1.371,1.373,1.371h138.893c0.753,0,1.378-0.617,1.378-1.371v-69.207
			c0-0.75-0.617-1.371-1.378-1.371h-34.331c-0.751,0-1.373-0.619-1.373-1.375v-26.619c0-0.754,0.618-1.373,1.373-1.373h14.097
			c0.754,0,1.371-0.619,1.371-1.373v-5.117"/>
	</g>
	<g>
		<path fill="none" d="M290.199,512.932h-10.521c-0.755,0-1.371,0.619-1.371,1.377v40.785c0,0.748-0.617,1.371-1.37,1.371h-29.814"
			/>
	</g>
	<rect x="97.859" y="307.691" fill="none" width="8.086" height="4.76"/>
	<g>
		<path fill="none" d="M125.438,194.56v-1.835c0-0.753,0.616-1.37,1.369-1.37h37.006c0.753,0,1.371,0.618,1.371,1.37v20.412
			c0,0.754-0.617,1.371-1.371,1.371h-37.006c-0.754,0-1.369-0.616-1.369-1.371v-12.679"/>
	</g>
	<g>
		<path fill="none" d="M125.419,236.942v1.835c0,0.752,0.617,1.37,1.369,1.37h37.008c0.752,0,1.371-0.617,1.371-1.37v-20.413
			c0-0.754-0.618-1.37-1.371-1.37h-37.008c-0.754,0-1.369,0.616-1.369,1.37v12.68"/>
	</g>
	<g>
		<path fill="none" d="M192.348,599.081h2.198c0.753,0,1.37-0.617,1.37-1.375v-24.623c0-0.754-0.618-1.373-1.37-1.373h-7.532
			c-0.754,0-1.373,0.619-1.373,1.373v24.625c0,0.754,0.618,1.377,1.373,1.377h2.199"/>
	</g>
	<g>
		<path fill="none" d="M202.433,599.081h-1.723c-0.753,0-1.371-0.617-1.371-1.375v-24.443c0-0.752,0.617-1.375,1.371-1.375h6.58
			c0.753,0,1.373,0.617,1.373,1.375v24.443c0,0.752-0.618,1.375-1.373,1.375h-1.723"/>
	</g>
	<g>
		<path fill="none" d="M138.842,580.782c0,0.748-0.616,1.369-1.369,1.369h-8.988c-0.754,0-1.875-0.355-2.49-0.793l-17.161-12.17
			c-0.614-0.436-1.117-1.412-1.117-2.166v-9.787c0-0.746,0.616-1.373,1.369-1.373h28.383c0.754,0,1.37,0.619,1.37,1.373
			L138.842,580.782L138.842,580.782z"/>
	</g>
	<g>
		<path fill="none" d="M337.34,270.008v28.024c0,0.751,0.616,1.369,1.37,1.369h11.056c0.753,0,1.37-0.618,1.37-1.369v-37.029
			c0-0.753-0.617-1.37-1.37-1.37H338.71c-0.754,0-1.37,0.617-1.37,1.37v4.311"/>
	</g>
	<g>
		<rect x="339.455" y="292.869" width="9.562" height="2.569"/>
		<rect x="339.455" y="289.208" width="9.562" height="2.569"/>
		<rect x="339.455" y="285.55" width="9.562" height="2.569"/>
		<rect x="339.455" y="281.892" width="9.562" height="2.569"/>
		<rect x="339.455" y="278.233" width="9.562" height="2.569"/>
		<rect x="339.455" y="274.573" width="9.562" height="2.569"/>
		<rect x="339.455" y="270.916" width="9.562" height="2.569"/>
		<rect x="339.455" y="267.256" width="9.562" height="2.569"/>
		<rect x="339.455" y="263.598" width="9.562" height="2.569"/>
	</g>
	<g>
		<path fill="none" d="M336.984,520.961v30.371c0,0.75,0.618,1.369,1.371,1.369h11.055c0.753,0,1.372-0.619,1.372-1.369v-37.031
			c0-0.748-0.618-1.369-1.372-1.369h-11.055c-0.753,0-1.371,0.617-1.371,1.369v2.332"/>
	</g>
	<g>
		<rect x="339.104" y="546.168" width="9.562" height="2.568"/>
		<rect x="339.104" y="542.508" width="9.562" height="2.568"/>
		<rect x="339.104" y="538.848" width="9.562" height="2.57"/>
		<rect x="339.104" y="535.192" width="9.562" height="2.568"/>
		<rect x="339.104" y="531.532" width="9.562" height="2.568"/>
		<rect x="339.104" y="527.874" width="9.562" height="2.568"/>
		<rect x="339.104" y="524.213" width="9.562" height="2.568"/>
		<rect x="339.104" y="520.553" width="9.562" height="2.568"/>
		<rect x="339.104" y="516.897" width="9.562" height="2.57"/>
	</g>
	<g>
		<path fill="none" d="M-5.324,544.719v-30.367c0-0.752-0.616-1.371-1.369-1.371H-17.75c-0.753,0-1.37,0.617-1.37,1.371v37.027
			c0,0.748,0.616,1.371,1.37,1.371h11.057c0.753,0,1.369-0.619,1.369-1.371v-2.332"/>
	</g>
	<g>
		<rect x="-17.001" y="516.944" width="9.562" height="2.568"/>
		<rect x="-17.001" y="520.604" width="9.562" height="2.568"/>
		<rect x="-17.001" y="524.262" width="9.562" height="2.568"/>
		<rect x="-17.001" y="527.92" width="9.562" height="2.568"/>
		<rect x="-17.001" y="531.581" width="9.562" height="2.568"/>
		<rect x="-17.001" y="535.239" width="9.562" height="2.568"/>
		<rect x="-17.001" y="538.899" width="9.562" height="2.568"/>
		<rect x="-17.001" y="542.559" width="9.562" height="2.568"/>
		<rect x="-17.001" y="546.215" width="9.562" height="2.57"/>
	</g>
	<g>
		<path fill="none" d="M125.438,178.614v-3.418c0-0.754,0.616-1.371,1.369-1.371h36.933c0.752,0,1.37,0.618,1.37,1.371v11.056
			c0,0.753-0.618,1.369-1.37,1.369h-36.933c-0.754,0-1.369-0.618-1.369-1.369v-3.292"/>
	</g>
	<g>
		<path fill="none" d="M125.438,178.614"/>
	</g>
	<g>
		<path fill="none" d="M125.438,182.958"/>
	</g>
	<g>
		<rect x="158.662" y="175.943" width="2.569" height="9.562"/>
		<rect x="155.003" y="175.943" width="2.569" height="9.562"/>
		<rect x="151.345" y="175.943" width="2.569" height="9.562"/>
		<rect x="147.686" y="175.943" width="2.569" height="9.562"/>
		<rect x="144.026" y="175.943" width="2.569" height="9.562"/>
		<rect x="140.369" y="175.943" width="2.569" height="9.562"/>
		<rect x="136.709" y="175.943" width="2.569" height="9.562"/>
		<rect x="133.049" y="175.943" width="2.569" height="9.562"/>
		<rect x="129.391" y="175.943" width="2.569" height="9.562"/>
	</g>
	<line fill="none" x1="122.275" y1="183.237" x2="122.275" y2="194.56"/>
	<g>
		<path fill="none" d="M129.183,536.524h-47.05c-0.754,0-1.37-0.619-1.37-1.375v-12.365c0-0.752,0.309-1.904,0.688-2.553
			l7.888-13.59c0.378-0.65,1.305-1.186,2.057-1.186h37.788"/>
	</g>
	<g id="Restroom_icons">
		<g>
			<circle fill="#1C75BC" cx="145.293" cy="228.57" r="6.85"/>
			<g>
				<path d="M145.095,228.119l-1.317,2.82c-0.064,0.14,0.037,0.3,0.19,0.3h2.633c0.153,0,0.254-0.159,0.189-0.3l-1.315-2.82
					C145.4,227.957,145.169,227.957,145.095,228.119z"/>
				<path d="M145.294,225.483c-0.488,0-0.88,0.396-0.88,0.881c0,0.487,0.396,0.881,0.88,0.881c0.49,0,0.882-0.395,0.882-0.881
					C146.176,225.88,145.782,225.483,145.294,225.483z M145.294,226.807c-0.243,0-0.441-0.197-0.441-0.441
					c0-0.245,0.198-0.441,0.441-0.441c0.244,0,0.442,0.197,0.442,0.441C145.736,226.609,145.538,226.807,145.294,226.807z"/>
			</g>
		</g>
		<g>
			<circle fill="#1C75BC" cx="145.312" cy="202.931" r="6.85"/>
			<g>
				<g>
					<g>
						<path d="M145.305,201.537c-0.465,0-0.844-0.38-0.844-0.846c0-0.466,0.379-0.846,0.844-0.846c0.466,0,0.846,0.38,0.846,0.846
							C146.152,201.159,145.771,201.537,145.305,201.537z M145.305,200.281c-0.228,0-0.41,0.185-0.41,0.411
							c0,0.228,0.183,0.413,0.41,0.413c0.229,0,0.41-0.185,0.41-0.413C145.716,200.466,145.532,200.281,145.305,200.281z"/>
					</g>
				</g>
				<g>
					<path d="M146.509,205.309v-1.855c0-0.634-0.462-1.207-1.095-1.262c-0.715-0.062-1.313,0.5-1.313,1.199v1.919
						c0,0.006,0.006,0.013,0.014,0.013h2.383C146.502,205.321,146.509,205.314,146.509,205.309z"/>
					<path d="M146.496,205.625h-2.686l-0.012-0.316v-1.919c0-0.876,0.749-1.584,1.643-1.503c0.771,0.066,1.375,0.754,1.375,1.565
						v2.16L146.496,205.625z M144.406,205.017h1.798v-1.563c0-0.498-0.36-0.919-0.819-0.958c-0.532-0.047-0.979,0.374-0.981,0.897
						L144.406,205.017L144.406,205.017z"/>
				</g>
			</g>
		</g>
		<g>
			<g>
				<circle fill="#1C75BC" cx="197.445" cy="584.585" r="6.851"/>
				<g>
					<path d="M195.863,583.25c-0.467,0-0.846-0.379-0.846-0.846c0-0.465,0.379-0.844,0.846-0.844c0.465,0,0.844,0.379,0.844,0.844
						C196.71,582.872,196.33,583.25,195.863,583.25z M195.863,581.991c-0.228,0-0.412,0.186-0.412,0.414
						c0,0.23,0.184,0.412,0.412,0.412s0.41-0.182,0.41-0.412C196.273,582.176,196.091,581.991,195.863,581.991z"/>
				</g>
				<g>
					<path d="M197.067,587.124v-1.855c0-0.635-0.463-1.207-1.097-1.262c-0.712-0.061-1.311,0.498-1.311,1.199v1.92
						c0,0.008,0.004,0.016,0.012,0.016h2.391C197.063,587.137,197.067,587.133,197.067,587.124z"/>
					<path d="M197.056,587.44h-2.686l-0.016-0.316v-1.92c0-0.871,0.75-1.58,1.643-1.504c0.771,0.07,1.374,0.748,1.374,1.566v2.158
						L197.056,587.44z M194.964,586.833h1.799v-1.568c0-0.492-0.36-0.92-0.819-0.959c-0.529-0.047-0.981,0.371-0.981,0.896
						L194.964,586.833L194.964,586.833z"/>
				</g>
				<circle fill="#1C75BC" cx="198.83" cy="585.533" r="2.118"/>
				<path d="M198.872,581.52c-0.488,0-0.881,0.396-0.881,0.881c0,0.49,0.396,0.881,0.881,0.881c0.488,0,0.88-0.396,0.88-0.881
					C199.753,581.917,199.358,581.52,198.872,581.52z M198.872,582.842c-0.244,0-0.441-0.203-0.441-0.441s0.198-0.438,0.441-0.438
					c0.242,0,0.438,0.199,0.438,0.438C199.312,582.647,199.115,582.842,198.872,582.842z"/>
				<g>
					<path d="M200.395,585.786c-0.143,0.824-0.914,1.438-1.805,1.295c-0.666-0.105-1.208-0.645-1.31-1.311
						c-0.138-0.885,0.463-1.66,1.285-1.803l0.003,1.311c0,0.285,0.238,0.52,0.524,0.52L200.395,585.786z"/>
					<path d="M198.839,587.403c-0.1,0-0.199-0.012-0.296-0.023c-0.801-0.121-1.443-0.764-1.566-1.562
						c-0.158-1.029,0.514-1.975,1.53-2.148c0.087-0.016,0.18,0.008,0.248,0.064c0.07,0.059,0.111,0.145,0.111,0.236l0.004,1.314
						c0,0.111,0.095,0.207,0.207,0.207l1.315-0.006l0,0c0.087,0,0.174,0.043,0.232,0.111c0.058,0.074,0.083,0.158,0.068,0.244
						C200.542,586.745,199.761,587.403,198.839,587.403z M198.26,584.387c-0.479,0.242-0.766,0.775-0.678,1.346
						c0.083,0.537,0.518,0.967,1.056,1.053c0.577,0.086,1.103-0.207,1.344-0.688l-0.897,0.006c-0.454,0-0.819-0.363-0.82-0.811
						L198.26,584.387z"/>
				</g>
			</g>
			<g>
				<path d="M200.395,585.354h-1.185c-0.122,0-0.217-0.098-0.217-0.215v-1.213c0-0.117,0.1-0.213,0.217-0.213
					c0.119,0,0.216,0.098,0.216,0.213v0.994h0.968c0.117,0,0.212,0.098,0.212,0.219
					C200.613,585.256,200.516,585.354,200.395,585.354z"/>
			</g>
		</g>
	</g>
	<g>
		<path d="M177.846,133.003h-1.388l-0.417-1.893c-0.016-0.079-0.047-0.237-0.093-0.473c-0.045-0.237-0.076-0.433-0.095-0.591
			c-0.016,0.128-0.041,0.289-0.079,0.48c-0.036,0.191-0.072,0.366-0.104,0.526c-0.034,0.161-0.178,0.81-0.432,1.95h-1.387
			l-1.077-4.347h1.131l0.473,2.179c0.11,0.481,0.18,0.865,0.22,1.15c0.025-0.202,0.075-0.476,0.142-0.823
			c0.065-0.347,0.128-0.634,0.184-0.862l0.384-1.644h1.088l0.372,1.644c0.064,0.264,0.128,0.568,0.193,0.913
			c0.067,0.345,0.111,0.604,0.131,0.774c0.025-0.22,0.097-0.602,0.209-1.145l0.481-2.186h1.131L177.846,133.003z"/>
		<path d="M180.086,133.003v-4.347h1.182v4.347H180.086z"/>
		<path d="M186.955,133.003h-1.539l-1.587-3.062h-0.027c0.041,0.482,0.055,0.85,0.055,1.103v1.959h-1.039v-4.347h1.537l1.583,3.021
			h0.016c-0.026-0.438-0.043-0.79-0.043-1.056v-1.965h1.047v4.346H186.955z"/>
		<path d="M192.191,130.736c0,0.726-0.201,1.285-0.597,1.677c-0.398,0.393-0.962,0.588-1.686,0.588h-1.407v-4.347h1.505
			c0.697,0,1.235,0.178,1.616,0.536C192.003,129.545,192.191,130.063,192.191,130.736z M190.975,130.779
			c0-0.397-0.08-0.694-0.238-0.886c-0.159-0.192-0.396-0.289-0.714-0.289h-0.338v2.436h0.26c0.361,0,0.618-0.104,0.785-0.311
			C190.891,131.52,190.975,131.204,190.975,130.779z"/>
		<path d="M197.646,130.821c0,0.732-0.178,1.285-0.538,1.665c-0.357,0.381-0.883,0.571-1.574,0.571
			c-0.681,0-1.204-0.191-1.568-0.574c-0.365-0.382-0.546-0.939-0.546-1.67c0-0.725,0.18-1.276,0.543-1.659
			c0.363-0.38,0.887-0.573,1.577-0.573c0.689,0,1.216,0.19,1.568,0.569C197.468,129.532,197.646,130.088,197.646,130.821z
			 M194.657,130.821c0,0.84,0.293,1.26,0.875,1.26c0.299,0,0.52-0.102,0.662-0.305c0.143-0.206,0.214-0.523,0.214-0.956
			s-0.073-0.755-0.219-0.962c-0.146-0.206-0.363-0.311-0.652-0.311C194.951,129.549,194.657,129.973,194.657,130.821z"/>
		<path d="M203.735,133.003h-1.387l-0.418-1.893c-0.019-0.079-0.05-0.237-0.092-0.473c-0.043-0.237-0.075-0.433-0.095-0.591
			c-0.015,0.128-0.042,0.289-0.078,0.48s-0.073,0.366-0.107,0.526s-0.177,0.81-0.431,1.95h-1.387l-1.077-4.347h1.133l0.473,2.179
			c0.107,0.481,0.178,0.865,0.22,1.15c0.023-0.202,0.073-0.476,0.138-0.823c0.067-0.347,0.128-0.634,0.186-0.862l0.383-1.644h1.088
			l0.37,1.644c0.064,0.264,0.128,0.568,0.193,0.913c0.065,0.345,0.109,0.604,0.131,0.774c0.025-0.22,0.097-0.602,0.211-1.145
			l0.48-2.186h1.133L203.735,133.003z"/>
		<path d="M208.819,131.681c0,0.27-0.07,0.508-0.206,0.717c-0.14,0.209-0.334,0.371-0.591,0.488
			c-0.257,0.115-0.559,0.174-0.905,0.174c-0.29,0-0.531-0.021-0.729-0.06c-0.198-0.041-0.4-0.111-0.616-0.212v-1.046
			c0.226,0.115,0.459,0.206,0.699,0.27c0.242,0.064,0.463,0.097,0.666,0.097c0.175,0,0.303-0.03,0.383-0.091
			c0.082-0.06,0.122-0.138,0.122-0.233c0-0.059-0.015-0.111-0.046-0.156c-0.031-0.046-0.084-0.09-0.158-0.136
			c-0.076-0.047-0.268-0.14-0.582-0.279c-0.281-0.128-0.493-0.252-0.639-0.375c-0.144-0.121-0.244-0.259-0.313-0.416
			c-0.08-0.157-0.111-0.342-0.111-0.556c0-0.399,0.146-0.712,0.437-0.936c0.292-0.223,0.691-0.335,1.201-0.335
			c0.45,0,0.908,0.105,1.376,0.312l-0.361,0.907c-0.404-0.187-0.756-0.279-1.053-0.279c-0.151,0-0.265,0.026-0.333,0.079
			c-0.071,0.053-0.105,0.121-0.105,0.2c0,0.084,0.046,0.161,0.133,0.228c0.088,0.068,0.33,0.191,0.717,0.369
			c0.375,0.168,0.635,0.349,0.776,0.542C208.745,131.146,208.819,131.388,208.819,131.681z"/>
		<path d="M212.292,133.003v-4.347h1.174v3.398h1.674v0.949H212.292L212.292,133.003z"/>
		<path d="M219.111,133.003l-0.214-0.814h-1.411l-0.22,0.814h-1.29l1.418-4.363h1.567l1.436,4.363H219.111z M218.653,131.225
			l-0.187-0.714c-0.043-0.158-0.097-0.365-0.159-0.616c-0.062-0.252-0.104-0.431-0.124-0.542c-0.016,0.102-0.048,0.27-0.107,0.5
			c-0.049,0.232-0.17,0.688-0.35,1.371L218.653,131.225L218.653,131.225z"/>
		<path d="M221.474,128.656h1.516c0.59,0,1.03,0.087,1.316,0.263c0.287,0.174,0.428,0.449,0.428,0.818
			c0,0.244-0.062,0.452-0.187,0.625c-0.125,0.172-0.29,0.285-0.492,0.333v0.029c0.27,0.072,0.463,0.19,0.586,0.357
			c0.122,0.167,0.178,0.382,0.178,0.648c0,0.395-0.146,0.705-0.444,0.933c-0.298,0.228-0.7,0.339-1.212,0.339h-1.693v-4.345
			L221.474,128.656L221.474,128.656z M222.648,130.323h0.354c0.171,0,0.301-0.034,0.393-0.105c0.092-0.07,0.144-0.173,0.144-0.308
			c0-0.244-0.185-0.365-0.556-0.365h-0.332v0.777H222.648z M222.648,131.182v0.913h0.415c0.366,0,0.552-0.155,0.552-0.463
			c0-0.143-0.047-0.256-0.147-0.333c-0.097-0.078-0.238-0.115-0.428-0.115L222.648,131.182L222.648,131.182z"/>
	</g>
	<g>
		<path d="M244.602,130.736c0,0.726-0.201,1.285-0.601,1.677c-0.4,0.392-0.96,0.588-1.683,0.588h-1.41v-4.347h1.506
			c0.699,0,1.235,0.178,1.616,0.535C244.411,129.547,244.602,130.063,244.602,130.736z M243.383,130.779
			c0-0.397-0.079-0.694-0.237-0.886c-0.159-0.192-0.396-0.289-0.718-0.289h-0.342v2.436h0.262c0.358,0,0.618-0.104,0.785-0.311
			C243.299,131.52,243.383,131.204,243.383,130.779z"/>
		<path d="M248.656,133.003l-0.212-0.814h-1.411l-0.22,0.814h-1.289l1.417-4.363h1.569l1.438,4.363H248.656z M248.198,131.225
			l-0.187-0.714c-0.043-0.158-0.097-0.365-0.159-0.616c-0.062-0.252-0.104-0.431-0.124-0.542c-0.015,0.102-0.053,0.27-0.105,0.5
			c-0.052,0.229-0.171,0.688-0.35,1.371L248.198,131.225L248.198,131.225z"/>
		<path d="M252.938,133.003h-1.174v-3.387h-1.062v-0.961h3.295v0.961h-1.062L252.938,133.003L252.938,133.003z"/>
		<path d="M257.893,133.003l-0.213-0.814h-1.412l-0.221,0.814h-1.287l1.415-4.363h1.568l1.443,4.363H257.893z M257.434,131.225
			l-0.187-0.714c-0.044-0.158-0.097-0.365-0.159-0.616c-0.061-0.252-0.103-0.431-0.123-0.542c-0.016,0.102-0.052,0.27-0.105,0.5
			c-0.055,0.229-0.17,0.688-0.35,1.371L257.434,131.225L257.434,131.225z"/>
		<path d="M265.289,131.681c0,0.27-0.068,0.508-0.206,0.717c-0.138,0.209-0.333,0.371-0.587,0.488
			c-0.259,0.115-0.559,0.174-0.904,0.174c-0.293,0-0.531-0.021-0.73-0.06c-0.197-0.041-0.397-0.111-0.615-0.212v-1.046
			c0.223,0.115,0.46,0.206,0.699,0.27c0.238,0.065,0.46,0.097,0.666,0.097c0.175,0,0.301-0.03,0.383-0.091
			c0.08-0.059,0.122-0.138,0.122-0.233c0-0.059-0.015-0.111-0.046-0.156c-0.033-0.046-0.084-0.09-0.158-0.136
			c-0.08-0.047-0.27-0.14-0.586-0.279c-0.285-0.128-0.492-0.252-0.637-0.375c-0.144-0.121-0.239-0.259-0.315-0.416
			c-0.069-0.157-0.103-0.342-0.103-0.556c0-0.399,0.144-0.712,0.432-0.936c0.295-0.223,0.689-0.335,1.2-0.335
			c0.455,0,0.906,0.105,1.378,0.312l-0.363,0.907c-0.404-0.187-0.754-0.279-1.059-0.279c-0.145,0-0.265,0.026-0.333,0.079
			c-0.075,0.053-0.11,0.121-0.11,0.2c0,0.084,0.047,0.161,0.137,0.228c0.084,0.068,0.329,0.191,0.715,0.369
			c0.374,0.168,0.635,0.349,0.781,0.542C265.215,131.146,265.289,131.388,265.289,131.681z"/>
		<path d="M268.488,133.003h-1.174v-3.387h-1.062v-0.961h3.293v0.961h-1.06L268.488,133.003L268.488,133.003z"/>
		<path d="M274.473,128.656v2.617c0,0.569-0.161,1.009-0.483,1.321c-0.323,0.312-0.785,0.468-1.394,0.468
			c-0.59,0-1.048-0.152-1.365-0.455c-0.317-0.304-0.479-0.741-0.479-1.31v-2.644h1.183v2.553c0,0.306,0.058,0.53,0.175,0.668
			c0.112,0.139,0.283,0.207,0.506,0.207c0.238,0,0.417-0.069,0.525-0.206c0.11-0.139,0.162-0.364,0.162-0.678v-2.544
			L274.473,128.656L274.473,128.656z"/>
		<path d="M279.684,130.736c0,0.726-0.201,1.285-0.599,1.677c-0.401,0.392-0.96,0.588-1.687,0.588h-1.409v-4.347h1.507
			c0.697,0,1.236,0.178,1.613,0.535C279.492,129.547,279.684,130.063,279.684,130.736z M278.464,130.779
			c0-0.397-0.077-0.694-0.237-0.886c-0.157-0.192-0.396-0.289-0.717-0.289h-0.341v2.436h0.264c0.358,0,0.618-0.104,0.783-0.311
			C278.382,131.52,278.464,131.204,278.464,130.779z"/>
		<path d="M281.072,133.003v-4.347h1.181v4.347H281.072z"/>
		<path d="M287.867,130.821c0,0.732-0.178,1.285-0.537,1.665c-0.36,0.381-0.885,0.571-1.574,0.571c-0.682,0-1.206-0.191-1.568-0.574
			c-0.365-0.383-0.549-0.939-0.549-1.67c0-0.725,0.174-1.276,0.545-1.659c0.361-0.382,0.888-0.573,1.574-0.573
			c0.682,0,1.219,0.19,1.568,0.569C287.688,129.532,287.867,130.088,287.867,130.821z M284.878,130.821
			c0,0.84,0.293,1.26,0.874,1.26c0.297,0,0.518-0.102,0.661-0.305c0.144-0.206,0.214-0.523,0.214-0.956s-0.078-0.755-0.219-0.962
			c-0.145-0.206-0.364-0.311-0.65-0.311C285.171,129.549,284.878,129.973,284.878,130.821z"/>
		<path d="M289.047,130.16c0-0.18,0.055-0.321,0.164-0.42c0.11-0.101,0.268-0.148,0.469-0.148c0.197,0,0.347,0.049,0.452,0.148
			c0.107,0.099,0.157,0.239,0.157,0.42c0,0.177-0.053,0.318-0.16,0.419c-0.109,0.102-0.258,0.151-0.451,0.151
			c-0.203,0-0.357-0.05-0.466-0.151C289.102,130.477,289.047,130.339,289.047,130.16z M289.047,132.509
			c0-0.183,0.055-0.324,0.162-0.424c0.109-0.101,0.265-0.148,0.471-0.148c0.197,0,0.347,0.049,0.452,0.148
			c0.107,0.099,0.157,0.24,0.157,0.424c0,0.176-0.055,0.318-0.162,0.418s-0.257,0.15-0.447,0.15c-0.196,0-0.352-0.05-0.463-0.148
			C289.104,132.828,289.047,132.688,289.047,132.509z"/>
		<path d="M295.564,130.457h1.879v2.343c-0.509,0.174-1.069,0.261-1.68,0.261c-0.672,0-1.189-0.193-1.553-0.583
			c-0.364-0.389-0.552-0.943-0.552-1.663c0-0.702,0.202-1.248,0.601-1.637c0.401-0.391,0.965-0.587,1.686-0.587
			c0.271,0,0.529,0.026,0.775,0.079c0.245,0.051,0.461,0.117,0.635,0.197l-0.365,0.921c-0.312-0.154-0.653-0.232-1.031-0.232
			c-0.342,0-0.607,0.111-0.793,0.333c-0.188,0.224-0.279,0.542-0.279,0.956c0,0.407,0.08,0.716,0.252,0.931
			c0.174,0.213,0.415,0.32,0.733,0.32c0.175,0,0.334-0.017,0.483-0.051v-0.68h-0.777v-0.907h-0.006v-0.001H295.564z"/>
		<path d="M298.938,133.003v-4.347h1.182v4.347H298.938z"/>
		<path d="M304.508,131.681c0,0.27-0.069,0.508-0.205,0.717c-0.136,0.209-0.334,0.371-0.586,0.488
			c-0.26,0.115-0.558,0.174-0.906,0.174c-0.289,0-0.525-0.021-0.729-0.06c-0.194-0.041-0.396-0.111-0.612-0.212v-1.046
			c0.225,0.115,0.457,0.206,0.699,0.27c0.236,0.064,0.459,0.097,0.665,0.097c0.175,0,0.301-0.03,0.384-0.091
			c0.08-0.06,0.122-0.138,0.122-0.233c0-0.059-0.017-0.111-0.048-0.156c-0.032-0.046-0.078-0.09-0.157-0.136
			c-0.075-0.047-0.267-0.14-0.58-0.279c-0.284-0.128-0.491-0.252-0.638-0.375c-0.143-0.122-0.246-0.259-0.314-0.416
			c-0.07-0.157-0.106-0.342-0.106-0.556c0-0.399,0.144-0.712,0.433-0.936c0.295-0.223,0.689-0.335,1.201-0.335
			c0.451,0,0.906,0.105,1.378,0.312l-0.364,0.907c-0.402-0.187-0.757-0.279-1.053-0.279c-0.151,0-0.266,0.026-0.334,0.079
			c-0.078,0.053-0.111,0.121-0.111,0.2c0,0.084,0.048,0.161,0.135,0.228c0.084,0.068,0.334,0.191,0.717,0.369
			c0.374,0.168,0.635,0.349,0.777,0.542C304.435,131.146,304.508,131.388,304.508,131.681z"/>
		<path d="M310.901,133.003l-0.293-0.302c-0.179,0.112-0.326,0.19-0.438,0.234c-0.114,0.042-0.24,0.075-0.384,0.097
			c-0.144,0.022-0.302,0.033-0.486,0.033c-0.313,0-0.588-0.053-0.836-0.161c-0.237-0.107-0.428-0.256-0.556-0.45
			c-0.126-0.192-0.19-0.413-0.19-0.656c0-0.519,0.271-0.918,0.808-1.191c-0.12-0.14-0.217-0.285-0.288-0.441
			c-0.068-0.156-0.103-0.333-0.103-0.528c0-0.316,0.121-0.569,0.366-0.756c0.237-0.187,0.582-0.279,1.004-0.279
			c0.424,0,0.745,0.093,0.974,0.278c0.237,0.185,0.349,0.438,0.349,0.756c0,0.22-0.062,0.425-0.188,0.612
			c-0.126,0.188-0.324,0.364-0.586,0.527l0.586,0.562c0.148-0.228,0.253-0.487,0.309-0.775h1.208
			c-0.06,0.273-0.153,0.547-0.281,0.822c-0.126,0.275-0.27,0.51-0.427,0.706l0.951,0.913L310.901,133.003L310.901,133.003z
			 M308.922,131.712c0,0.124,0.045,0.228,0.135,0.305c0.089,0.08,0.206,0.119,0.354,0.119c0.112,0,0.213-0.015,0.302-0.046
			c0.081-0.028,0.149-0.063,0.199-0.1l-0.742-0.749C309.005,131.362,308.922,131.519,308.922,131.712z M309.8,129.634
			c0-0.097-0.028-0.167-0.083-0.209c-0.055-0.043-0.126-0.064-0.211-0.064c-0.08,0-0.155,0.025-0.218,0.076
			c-0.064,0.049-0.094,0.128-0.094,0.237c0,0.148,0.086,0.302,0.27,0.46c0.11-0.063,0.205-0.14,0.263-0.227
			C309.771,129.817,309.8,129.727,309.8,129.634z"/>
		<path d="M317.539,133.003l-0.889-3.13h-0.025c0.045,0.532,0.062,0.947,0.062,1.243v1.887h-1.039v-4.347h1.565l0.905,3.086h0.023
			l0.888-3.086h1.568v4.347h-1.079v-1.906c0-0.099,0.002-0.208,0.006-0.33c0.004-0.123,0.016-0.417,0.047-0.89h-0.026L318.674,133
			h-1.125L317.539,133.003L317.539,133.003z"/>
		<path d="M324.807,133.003l-0.214-0.814h-1.411l-0.222,0.814h-1.287l1.415-4.363h1.568l1.437,4.363H324.807z M324.35,131.225
			l-0.188-0.714c-0.044-0.158-0.096-0.365-0.158-0.616c-0.063-0.252-0.105-0.431-0.124-0.542c-0.017,0.102-0.052,0.27-0.106,0.5
			c-0.053,0.232-0.171,0.688-0.349,1.371L324.35,131.225L324.35,131.225z"/>
		<path d="M330.325,130.037c0,0.485-0.145,0.86-0.43,1.126c-0.287,0.266-0.692,0.396-1.221,0.396h-0.332v1.442h-1.175v-4.347h1.507
			c0.552,0,0.965,0.121,1.236,0.361C330.188,129.254,330.325,129.595,330.325,130.037z M328.344,130.602h0.214
			c0.174,0,0.318-0.049,0.422-0.148c0.104-0.099,0.156-0.237,0.156-0.41c0-0.293-0.163-0.44-0.487-0.44h-0.304L328.344,130.602
			L328.344,130.602L328.344,130.602z"/>
		<path d="M334.469,131.681c0,0.27-0.068,0.508-0.206,0.717c-0.14,0.209-0.334,0.371-0.591,0.488
			c-0.258,0.115-0.559,0.174-0.905,0.174c-0.29,0-0.53-0.021-0.729-0.06c-0.198-0.041-0.397-0.111-0.614-0.212v-1.046
			c0.225,0.115,0.458,0.206,0.699,0.27c0.242,0.064,0.463,0.097,0.666,0.097c0.175,0,0.301-0.03,0.383-0.091
			c0.083-0.06,0.122-0.138,0.122-0.233c0-0.059-0.016-0.111-0.047-0.156c-0.031-0.046-0.083-0.09-0.158-0.136
			c-0.074-0.047-0.266-0.14-0.581-0.279c-0.279-0.128-0.492-0.252-0.637-0.375c-0.142-0.121-0.245-0.259-0.316-0.416
			c-0.068-0.157-0.103-0.342-0.103-0.556c0-0.399,0.146-0.712,0.437-0.936c0.292-0.223,0.691-0.335,1.201-0.335
			c0.451,0,0.905,0.105,1.377,0.312l-0.359,0.907c-0.406-0.187-0.757-0.279-1.053-0.279c-0.153,0-0.271,0.026-0.335,0.079
			c-0.069,0.053-0.104,0.121-0.104,0.2c0,0.084,0.045,0.161,0.132,0.228c0.088,0.068,0.327,0.191,0.718,0.369
			c0.372,0.168,0.634,0.349,0.776,0.542C334.394,131.146,334.469,131.388,334.469,131.681z"/>
	</g>
	<g>
		<path d="M194.554,435.254c0,0.486-0.143,0.863-0.427,1.127c-0.287,0.266-0.694,0.396-1.222,0.396h-0.33v1.441h-1.174v-4.352h1.504
			c0.551,0,0.964,0.119,1.237,0.365C194.417,434.471,194.554,434.813,194.554,435.254z M192.574,435.819h0.214
			c0.175,0,0.316-0.047,0.421-0.145c0.104-0.098,0.156-0.238,0.156-0.408c0-0.297-0.162-0.441-0.488-0.441h-0.301v1L192.574,435.819
			L192.574,435.819z"/>
		<path d="M199.923,436.04c0,0.73-0.178,1.285-0.537,1.666c-0.358,0.379-0.885,0.57-1.576,0.57c-0.681,0-1.206-0.191-1.569-0.576
			c-0.365-0.381-0.547-0.936-0.547-1.664c0-0.725,0.174-1.283,0.545-1.664c0.362-0.383,0.888-0.574,1.574-0.574
			c0.682,0,1.219,0.189,1.569,0.568C199.745,434.75,199.923,435.307,199.923,436.04z M196.932,436.04c0,0.84,0.294,1.26,0.876,1.26
			c0.3,0,0.518-0.107,0.661-0.305c0.143-0.207,0.216-0.525,0.216-0.955s-0.079-0.756-0.22-0.967
			c-0.143-0.207-0.365-0.307-0.651-0.307C197.227,434.766,196.932,435.19,196.932,436.04z"/>
		<path d="M201.318,438.219v-4.352h1.174v3.404h1.674v0.947H201.318L201.318,438.219z"/>
		<path d="M207.021,435.485l0.749-1.611h1.273l-1.43,2.648v1.697h-1.185v-1.664l-1.43-2.684h1.279L207.021,435.485z"/>
		<path d="M212.059,434.772c-0.278,0-0.497,0.111-0.652,0.342c-0.155,0.23-0.237,0.545-0.237,0.941c0,0.842,0.318,1.256,0.956,1.256
			c0.193,0,0.377-0.027,0.557-0.08c0.18-0.047,0.364-0.111,0.544-0.193v0.998c-0.363,0.16-0.773,0.238-1.23,0.238
			c-0.654,0-1.157-0.191-1.507-0.572c-0.349-0.379-0.523-0.932-0.523-1.648c0-0.451,0.083-0.842,0.254-1.189
			c0.173-0.34,0.414-0.604,0.731-0.783c0.318-0.184,0.693-0.275,1.127-0.275c0.469,0,0.918,0.107,1.347,0.305l-0.36,0.928
			c-0.162-0.078-0.323-0.143-0.483-0.193C212.415,434.797,212.243,434.772,212.059,434.772z"/>
		<path d="M218.75,436.04c0,0.73-0.177,1.285-0.538,1.666c-0.358,0.379-0.883,0.57-1.574,0.57c-0.681,0-1.206-0.191-1.568-0.576
			c-0.366-0.381-0.549-0.936-0.549-1.664c0-0.725,0.181-1.283,0.544-1.664c0.366-0.383,0.886-0.574,1.576-0.574
			c0.693,0,1.218,0.189,1.571,0.568C218.573,434.75,218.75,435.307,218.75,436.04z M215.759,436.04c0,0.84,0.293,1.26,0.877,1.26
			c0.297,0,0.518-0.107,0.661-0.305c0.143-0.207,0.211-0.525,0.211-0.955s-0.08-0.756-0.218-0.967
			c-0.144-0.207-0.366-0.307-0.651-0.307C216.055,434.766,215.759,435.19,215.759,436.04z"/>
		<path d="M224.283,438.219h-1.538l-1.588-3.061h-0.027c0.041,0.482,0.057,0.848,0.057,1.102v1.959h-1.041v-4.352h1.538l1.583,3.027
			h0.016c-0.027-0.439-0.043-0.791-0.043-1.062v-1.965h1.046v4.35L224.283,438.219L224.283,438.219z"/>
		<path d="M229.971,438.219h-1.538l-1.588-3.061h-0.026c0.04,0.482,0.055,0.848,0.055,1.102v1.959h-1.039v-4.352h1.536l1.583,3.027
			h0.015c-0.028-0.439-0.043-0.791-0.043-1.062v-1.965h1.047L229.971,438.219L229.971,438.219z"/>
		<path d="M234.101,438.219h-2.581v-4.352h2.581v0.941h-1.408v0.682h1.303v0.938h-1.303v0.82h1.408V438.219z"/>
		<path d="M237.405,434.772c-0.279,0-0.498,0.111-0.654,0.342c-0.156,0.23-0.237,0.545-0.237,0.941c0,0.842,0.318,1.256,0.956,1.256
			c0.192,0,0.377-0.027,0.557-0.08c0.177-0.047,0.363-0.111,0.543-0.193v0.998c-0.362,0.16-0.773,0.238-1.229,0.238
			c-0.655,0-1.158-0.191-1.508-0.572c-0.35-0.379-0.524-0.932-0.524-1.648c0-0.451,0.083-0.842,0.251-1.189
			c0.171-0.338,0.415-0.604,0.733-0.783c0.318-0.184,0.691-0.275,1.124-0.275c0.47,0,0.919,0.107,1.348,0.305l-0.362,0.928
			c-0.162-0.078-0.323-0.143-0.485-0.193C237.763,434.797,237.59,434.772,237.405,434.772z"/>
		<path d="M241.948,438.219h-1.176v-3.385h-1.062v-0.967h3.294v0.967h-1.057L241.948,438.219L241.948,438.219z"/>
		<path d="M246.427,438.219v-4.352h1.175v3.404h1.673v0.947H246.427L246.427,438.219z"/>
		<path d="M253.248,438.219l-0.214-0.814h-1.411l-0.22,0.814h-1.29l1.418-4.363h1.567l1.438,4.363H253.248z M252.788,436.442
			l-0.187-0.713c-0.045-0.16-0.098-0.365-0.16-0.615c-0.062-0.254-0.102-0.434-0.123-0.547c-0.016,0.105-0.053,0.27-0.105,0.498
			c-0.053,0.23-0.171,0.684-0.35,1.371L252.788,436.442L252.788,436.442z"/>
		<path d="M255.609,433.874h1.516c0.59,0,1.03,0.086,1.316,0.27c0.285,0.174,0.427,0.449,0.427,0.818
			c0,0.238-0.06,0.453-0.186,0.619c-0.124,0.174-0.29,0.281-0.491,0.334v0.027c0.27,0.074,0.465,0.189,0.586,0.357
			c0.122,0.17,0.182,0.383,0.182,0.65c0,0.396-0.146,0.709-0.447,0.936c-0.298,0.229-0.701,0.34-1.213,0.34h-1.693v-4.354
			L255.609,433.874L255.609,433.874z M256.784,435.54h0.353c0.168,0,0.301-0.037,0.393-0.107c0.092-0.074,0.145-0.174,0.145-0.309
			c0-0.24-0.184-0.365-0.557-0.365h-0.33v0.781H256.784z M256.784,436.399v0.912h0.413c0.365,0,0.551-0.154,0.551-0.461
			c0-0.143-0.047-0.258-0.143-0.334c-0.1-0.078-0.238-0.113-0.429-0.113L256.784,436.399L256.784,436.399z"/>
	</g>
	<g>
		<g>
			<line fill="none" x1="177.173" y1="161.626" x2="177.173" y2="135.867"/>
			<g>
				<circle cx="177.173" cy="161.59" r="0.715"/>
			</g>
		</g>
	</g>
	<g>
		<g>
			<line fill="none" x1="244.534" y1="150.208" x2="244.534" y2="135.867"/>
			<g>
				<circle cx="244.534" cy="150.173" r="0.715"/>
			</g>
		</g>
	</g>
</g>
</svg>
