<?xml version="1.0" encoding="utf-8"?>
<!-- Generator: Adobe Illustrator 16.0.4, SVG Export Plug-In . SVG Version: 6.00 Build 0)  -->
<!DOCTYPE svg PUBLIC "-//W3C//DTD SVG 1.1//EN" "http://www.w3.org/Graphics/SVG/1.1/DTD/svg11.dtd">
<svg version="1.1" id="Layer_1" xmlns="http://www.w3.org/2000/svg" xmlns:xlink="http://www.w3.org/1999/xlink" x="0px" y="0px"
	 width="707.915px" height="926.316px" viewBox="-113.519 -81.542 750.915 948.316"
	 enable-background="new -90.519 -68.542 707.915 926.316" xml:space="preserve" >

	 <filter id="dropshadow" height="150%">
	   <feGaussianBlur in="SourceAlpha" stdDeviation="10"/> <!-- stdDeviation is how much to blur -->
	   <feOffset dx="0" dy="3" result="offsetblur"/> <!-- how much to offset -->
	   <feComponentTransfer>
	      <feFuncA type="linear" slope="0.5"/>
	    </feComponentTransfer>
	   <feMerge> 
	     <feMergeNode opacity=".3"/> <!-- this contains the offset blurred image -->
	     <feMergeNode in="SourceGraphic"/> <!-- this contains the element that the filter is applied to -->
	   </feMerge>
	 </filter>


<g style="filter:url(#dropshadow); opacity:.6">
	<path fill="#E8A4E7" enable-background="new    " d="M583.586,812.458l33.812-315.961l-54.644,24.899
		l-54.643,24.897l-54.644,24.899l-54.644,24.898l-37.647,93.966l-37.646,93.967l-13.645,34.057"/>
	<path display="none" opacity="0.25" fill="#E8A4E7" enable-background="new    " d="M309.886,818.081l-24.002,59.908
		l-37.647,93.966l335.349-159.497"/>
	<path display="none" opacity="0.25" fill="#E8A4E7" enable-background="new    " d="M583.586,812.458l146.761-69.802l22.16-247.516
		l-135.109,1.356"/>
	<path display="none" opacity="0.25" fill="#E8A4E7" enable-background="new    " d="M730.347,742.657l531.158-252.627
		l-143.062,1.437l-250.523,2.517l-115.413,1.157"/>
	<path fill="#E8A4E7" enable-background="new    " d="M1619.49,486.436l-250.523,2.517l-107.462,1.079"/>
	<path fill="#F2C8DF" enable-background="new    " d="M229.908-68.542l-4.286,173.688l138.519,127.342
		L591.169-51.664"/>
	<path display="none" opacity="0.25" fill="#F2C8DF" enable-background="new    " d="M591.169-21.664l41.244-46.172l-402.505-0.706"
		/>
	<path fill="#F9E2F0" enable-background="new    " d="M550.908,252.76L365.3,236.28l-13.887,103.302l265.983,156.915
		"/>
	<path display="none" opacity="0.25" fill="#F9E2F0" enable-background="new    " d="M617.396,496.497l135.109-1.356l31.905-221.649
		L550.908,252.76"/>
	<path fill="#FFD7EC" enable-background="new    " d="M229.762,857.774L166.34,465.809l-248.416,2.897l2.132,305.268
		"/>
	<path display="none" opacity="0.25" fill="#FFD7EC" enable-background="new    " d="M-79.944,773.974l15.933,32.589
		l312.248,165.394l-18.475-114.182"/>
	<path display="none" opacity="0.25" fill="#FFD7EC" enable-background="new    " d="M-82.076,468.706l-146.274,1.705
		l148.406,303.562"/>
	<path display="none" opacity="0.25" fill="#FFD7EC" enable-background="new    " d="M-228.351,470.41l-460.158,5.365
		l624.498,330.787"/>
	<path fill="#FFADAD" enable-background="new    " d="M153.425,180.961l54.495,256.897l143.493-98.276L365.3,236.28
		l-1.159-3.792L225.622,105.146L153.425,180.961z"/>
	<path fill="#CCE4B2" enable-background="new    " d="M-82.076,468.704l248.415-2.896l35.2-18.021l6.38-9.929
		l-54.495-256.897l-243.942,58.448"/>
	<path display="none" opacity="0.25" fill="#CCE4B2" enable-background="new    " d="M-90.518,239.409l-134.7,32.273l-3.133,198.728
		l146.275-1.706"/>
	<path display="none" opacity="0.25" fill="#CCE4B2" enable-background="new    " d="M-225.217,271.683l-190.283,45.59
		l-273.008,158.502l460.158-5.365"/>
	<path fill="#E3F3CE" enable-background="new    " d="M591.169-51.664L364.141,232.488l1.159,3.792l185.608,16.479"
		/>
	<path display="none" opacity="0.25" fill="#E3F3CE" enable-background="new    " d="M550.908,252.759l233.503,20.731
		L632.413-67.836l-41.244,46.172"/>
	<path fill="#CCE4B2" enable-background="new    " d="M248.237,971.956l7.583-18.93"/>
	<path fill="#CCE4B2" enable-background="new    " d="M309.886,818.081l88.939-221.988L201.54,447.787l-35.2,18.021
		l63.422,391.967"/>
	<path display="none" opacity="0.25" fill="#CCE4B2" enable-background="new    " d="M229.762,857.774l18.475,114.181l7.583-18.929
		l54.066-134.945"/>
	<path fill="#B7D3A6" enable-background="new    " d="M201.54,447.787l197.286,148.307l218.57-99.597
		L351.413,339.583L207.92,437.858L201.54,447.787z"/>
	<path fill="#E8A4E7" enable-background="new    " d="M-90.519,239.41l243.943-58.448l72.197-75.815l4.286-173.688
		l-283.61,22.846"/>
	<path display="none" opacity="0.25" fill="#E8A4E7" enable-background="new    " d="M-53.702-45.695l-171.515,317.378
		l134.698-32.273"/>
	<path display="none" opacity="0.25" fill="#E8A4E7" enable-background="new    " d="M229.908-68.541l-253.613-32.661
		l-29.997,55.507"/>
	<path display="none" opacity="0.25" fill="#E8A4E7" enable-background="new    " d="M229.908-68.541l3.923-158.976l9.056-366.999
		L-23.705-101.202"/>
	<path fill="#E8A4E7" enable-background="new    " d="M-415.5,317.273l190.283-45.59"/>
</g>











<!-- <rect id="Floor_1_STATIC" stroke="#000000" width="503.477" height="748.606"/> -->
<g id="Floor_1_STATIC">
	<g>
<!-- 		<g>
			<rect x="142.553" y="547.684" fill="rgba(0, 0, 0, 0.5)" width="3.375" height="17.771"/>
			<rect x="147.362" y="547.684" fill="rgba(0, 0, 0, 0.5)" width="3.375" height="17.771"/>
			<rect x="152.17" y="547.684" fill="rgba(0, 0, 0, 0.5)" width="3.375" height="17.771"/>
			<rect x="156.976" y="547.684" fill="rgba(0, 0, 0, 0.5)" width="3.375" height="17.771"/>
			<rect x="161.784" y="547.684" fill="rgba(0, 0, 0, 0.5)" width="3.375" height="17.771"/>
			<rect x="166.589" y="547.684" fill="rgba(0, 0, 0, 0.5)" width="3.375" height="17.771"/>
			<rect x="171.397" y="547.684" fill="rgba(0, 0, 0, 0.5)" width="3.375" height="17.771"/>
			<rect x="176.203" y="547.684" fill="rgba(0, 0, 0, 0.5)" width="3.375" height="17.771"/>
			<rect x="181.011" y="547.684" fill="rgba(0, 0, 0, 0.5)" width="3.375" height="17.771"/>
		</g> -->
		<g>
			<rect x="142.553" y="566.947" fill="rgba(0, 0, 0, 0.5)" width="3.375" height="17.771"/>
			<rect x="147.361" y="566.947" fill="rgba(0, 0, 0, 0.5)" width="3.375" height="17.771"/>
			<rect x="152.17" y="566.947" fill="rgba(0, 0, 0, 0.5)" width="3.375" height="17.771"/>
			<rect x="156.976" y="566.947" fill="rgba(0, 0, 0, 0.5)" width="3.375" height="17.771"/>
			<rect x="161.784" y="566.947" fill="rgba(0, 0, 0, 0.5)" width="3.375" height="17.771"/>
			<rect x="166.589" y="566.947" fill="rgba(0, 0, 0, 0.5)" width="3.375" height="17.771"/>
			<rect x="171.397" y="566.947" fill="rgba(0, 0, 0, 0.5)" width="3.375" height="17.771"/>
			<rect x="176.203" y="566.947" fill="rgba(0, 0, 0, 0.5)" width="3.375" height="17.771"/>
			<rect x="181.011" y="566.947" fill="rgba(0, 0, 0, 0.5)" width="3.375" height="17.771"/>
		</g>
		<g>
			<rect x="161.784" y="547.684" fill="rgba(0, 0, 0, 0.5)" width="3.375" height="17.771"/>
			<rect x="166.589" y="547.684" fill="rgba(0, 0, 0, 0.5)" width="3.375" height="17.771"/>
			<rect x="171.397" y="547.684" fill="rgba(0, 0, 0, 0.5)" width="3.375" height="17.771"/>
			<rect x="176.203" y="547.684" fill="rgba(0, 0, 0, 0.5)" width="3.375" height="17.771"/>
			<rect x="181.011" y="547.684" fill="rgba(0, 0, 0, 0.5)" width="3.375" height="17.771"/>
			<rect x="185.82" y="547.684" fill="rgba(0, 0, 0, 0.5)" width="3.375" height="17.771"/>
			<rect x="190.626" y="547.684" fill="rgba(0, 0, 0, 0.5)" width="3.375" height="17.771"/>
			<rect x="195.434" y="547.684" fill="rgba(0, 0, 0, 0.5)" width="3.375" height="17.771"/>
			<rect x="200.24" y="547.684" fill="rgba(0, 0, 0, 0.5)" width="3.375" height="17.771"/>
		</g>
<!-- 		<g>
			<rect x="161.784" y="566.947" fill="rgba(0, 0, 0, 0.5)" width="3.375" height="17.771"/>
			<rect x="166.589" y="566.947" fill="rgba(0, 0, 0, 0.5)" width="3.375" height="17.771"/>
			<rect x="171.397" y="566.947" fill="rgba(0, 0, 0, 0.5)" width="3.375" height="17.771"/>
			<rect x="176.203" y="566.947" fill="rgba(0, 0, 0, 0.5)" width="3.375" height="17.771"/>
			<rect x="181.011" y="566.947" fill="rgba(0, 0, 0, 0.5)" width="3.375" height="17.771"/>
			<rect x="185.818" y="566.947" fill="rgba(0, 0, 0, 0.5)" width="3.375" height="17.771"/>
			<rect x="190.626" y="566.947" fill="rgba(0, 0, 0, 0.5)" width="3.375" height="17.771"/>
			<rect x="195.434" y="566.947" fill="rgba(0, 0, 0, 0.5)" width="3.375" height="17.771"/>
			<rect x="200.24" y="566.947" fill="rgba(0, 0, 0, 0.5)" width="3.375" height="17.771"/>
		</g>
 -->	</g>
	<g>
		<path fill="none" stroke="rgba(0, 0, 0, 0.5)" stroke-width="2" stroke-linecap="round" d="M304.545,724.062c0,0,0.785,0,1.746,0
			c0.963,0,1.748,0.811,1.748,1.801v19.146c0,0.988,0.811,1.806,1.801,1.806h191.838c0.986,0,1.799-0.812,1.799-1.806V71.337
			c0-0.991-0.811-1.8-1.799-1.8H304.465c-0.99,0-1.801,0.81-1.801,1.8v8.43c0,0.991-0.812,1.799-1.802,1.799h-43.68
			c-0.99,0-1.801-0.81-1.801-1.799v-8.43c0-0.991-0.812-1.8-1.803-1.8H61.464c-0.989,0-1.799-0.811-1.799-1.8V4.815
			c0-0.99-0.81-1.8-1.8-1.8H3.799C2.808,3.015,2,3.826,2,4.815v273.439c0,0.985,0.81,1.799,1.799,1.799h3.692
			c0.99,0,1.8,0.811,1.8,1.799v45.619c0,0.99-0.81,1.801-1.8,1.801H3.799c-0.991,0-1.799,0.809-1.799,1.799v114.066
			c0,0.99,0.81,1.808,1.799,1.808h3.692c0.99,0,1.8,0.809,1.8,1.801v44.271c0,0.988-0.81,1.806-1.8,1.806H3.799
			c-0.991,0-1.799,0.812-1.799,1.801v114.2c0,0.983,0.81,1.801,1.799,1.801h18.233c0.991,0,1.799,0.812,1.799,1.805V747.82
			c0,0.992,0.81,1.801,1.8,1.801h173.537c0.991,0,1.799-0.809,1.799-1.801v-21.951c0-0.988,0.81-1.803,1.8-1.803h4.338"/>
	</g>
	<polygon fill="none" points="152.17,545.979 139.998,566.947 138.832,545.979 	"/>
	<g>
		
			<line fill="none" stroke="rgba(0, 0, 0, 0.3)" stroke-width="2" stroke-linecap="round" x1="266.103" y1="724.062" x2="283.298" y2="724.062"/>
	</g>
	<g>
		
			<line fill="none" stroke="rgba(0, 0, 0, 0.3)" stroke-width="2" stroke-linecap="round" x1="247.15" y1="724.062" x2="256.165" y2="724.062"/>
	</g>
	<g>
		<path fill="none" stroke="rgba(0, 0, 0, 0.3)" stroke-width="2" d="M247.15,724.062"/>
	</g>
	<g>
		<line fill="none" stroke="rgba(0, 0, 0, 0.3)" stroke-width="2" stroke-linecap="round" x1="217.324" y1="724.062" x2="225.9" y2="724.062"/>
	</g>
	<g>
		<path fill="none" stroke="rgba(0, 0, 0, 0.3)" d="M498.622,740.512c0,0.992-0.811,1.808-1.801,1.808H313.965
			c-0.992,0-1.805-0.812-1.805-1.808v-26.692c0-0.99,0.811-1.808,1.805-1.808h182.854c0.99,0,1.812,0.812,1.812,1.808v26.692
			H498.622L498.622,740.512z"/>
	</g>
	<g>
		<path fill="none" stroke="rgba(0, 0, 0, 0.3)" d="M471.682,606.549c0,0.988-0.811,1.801-1.799,1.801h-13.668
			c-0.992,0-1.803-0.812-1.803-1.801v-25.834c0-0.988,0.811-1.803,1.803-1.803h13.668c0.988,0,1.799,0.812,1.799,1.803V606.549
			L471.682,606.549z"/>
	</g>
	<g>
		<path fill="none" stroke="rgba(0, 0, 0, 0.3)" d="M257.214,168.228c-0.988,0-1.801,0.811-1.801,1.799v25.949c0,0.989,0,2.609,0,3.602v16.572
			c0,0.991,0.812,1.8,1.801,1.8h14.628c0.983,0,1.799-0.811,1.799-1.8v-16.572c0-0.991,0.812-1.8,1.8-1.8h8.55
			c0.986,0,1.799-0.81,1.799-1.8v-25.949c0-0.989-0.812-1.8-1.799-1.8L257.214,168.228L257.214,168.228L257.214,168.228z"/>
	</g>
	<g>
		<path fill="none" stroke="rgba(0, 0, 0, 0.3)" d="M277.915,204.333c0-0.991,0.812-1.801,1.801-1.801h23.773c0.99,0,1.799,0.81,1.799,1.801
			v11.815c0,0.991-0.809,1.8-1.799,1.8h-23.773c-0.99,0-1.801-0.812-1.801-1.8V204.333z"/>
	</g>
	<g>
		<path fill="none" stroke="rgba(0, 0, 0, 0.3)" d="M305.29,195.977c0,0.99-0.811,1.8-1.799,1.8h-11.648c-0.989,0-1.799-0.81-1.799-1.8v-25.948
			c0-0.989,0.81-1.8,1.799-1.8h11.648c0.99,0,1.799,0.811,1.799,1.8V195.977z"/>
	</g>
	<g>
		<path fill="none" stroke="rgba(0, 0, 0, 0.3)" d="M308.04,677.396"/>
	</g>
	<g>
		<path fill="none" stroke="rgba(0, 0, 0, 0.3)" stroke-linecap="round" d="M304.545,718.18c0,0,0.785,0,1.746,0
			c0.963,0,1.748-0.812,1.748-1.801v-19.232"/>
	</g>
	<g>
		<path fill="none" stroke="rgba(0, 0, 0, 0.3)" stroke-linecap="round" d="M282.478,673.486h-2.887c-0.99,0-1.801,0.812-1.801,1.801v41.094
			c0,0.986,0.811,1.801,1.801,1.801h3.705"/>
	</g>
	<g>
		<line fill="none" stroke="rgba(0, 0, 0, 0.3)" stroke-linecap="round" x1="299.852" y1="673.486" x2="286.603" y2="673.486"/>
	</g>
	<g>
		<path fill="none" stroke="rgba(0, 0, 0, 0.3)" stroke-linecap="round" d="M299.852,673.486"/>
	</g>
	<g>
		<path fill="none" stroke="rgba(0, 0, 0, 0.3)" stroke-linecap="round" d="M308.04,677.396v-2.107c0-0.986-0.811-1.801-1.801-1.801h-2.262"/>
	</g>
	<g>
		<path fill="none" stroke="rgba(0, 0, 0, 0.3)" stroke-linecap="round" d="M31.711,602.998v140.584c0,0.99,0.81,1.803,1.799,1.803h160.909
			c0.991,0,1.801-0.812,1.801-1.803v-94.393c0-0.988-0.666-2.271-1.479-2.826l-17.191-11.961c-0.813-0.562-2.287-1.023-3.277-1.023
			h-35.462"/>
	</g>
	<g>
		<path fill="none" stroke="rgba(0, 0, 0, 0.3)" stroke-linecap="round" d="M31.711,602.998"/>
	</g>
	<g>
		<path fill="none" stroke="rgba(0, 0, 0, 0.3)" stroke-linecap="round" d="M31.711,597.711"/>
	</g>
	<g>
		<path fill="none" stroke="rgba(0, 0, 0, 0.3)" stroke-linecap="round" d="M133.564,633.373h-20.433c-0.991,0-1.801-0.811-1.801-1.801V531.85
			c0-0.983,0.81-1.801,1.801-1.801h25.008c0.989,0,1.799-0.812,1.799-1.799V219.753c0-0.991,0.81-1.799,1.799-1.799h28.275
			c0.991,0,1.8-0.811,1.8-1.8V76.014c0-0.991-0.81-1.799-1.8-1.799H56.681c-0.99,0-1.799-0.811-1.799-1.8V9.712
			c0-0.99-0.81-1.8-1.8-1.8H7.792c-0.991,0-1.799,0.81-1.799,1.8v264.243c0,0.99,0.81,1.804,1.799,1.804h3.82
			c0.989,0,1.799,0.809,1.799,1.799v54.635c0,0.99-0.81,1.799-1.799,1.799h-3.82c-0.991,0-1.799,0.812-1.799,1.802v105.09
			c0,0.986,0.81,1.799,1.799,1.799h3.82c0.989,0,1.799,0.812,1.799,1.81v53.231c0,0.99-0.81,1.808-1.799,1.808h-3.82
			c-0.991,0-1.799,0.811-1.799,1.801v48.17c0,0.99,0.81,1.803,1.799,1.803h22.12c0.989,0,1.799,0.812,1.799,1.801v44.621"/>
	</g>
	<g>
		<path fill="none" d="M306.915,328.532c0,0.992-0.811,1.801-1.799,1.801h-25.523c-0.99,0-1.801-0.811-1.801-1.801v-24.983
			c0-0.992,0.811-1.804,1.801-1.804h25.523c0.988,0,1.799,0.812,1.799,1.804V328.532L306.915,328.532z"/>
	</g>
	<g>
		<path fill="none" stroke="rgba(0, 0, 0, 0.3)" d="M171.928,626.865c0,0.992-0.81,1.805-1.799,1.805h-24.34c-0.99,0-1.799-0.812-1.799-1.805
			v-12.256c0-0.99,0.81-1.808,1.799-1.808h24.34c0.991,0,1.799,0.812,1.799,1.808V626.865z"/>
	</g>
	<g>
		<path fill="none" stroke="rgba(0, 0, 0, 0.3)" stroke-linecap="round" d="M194.54,137.521"/>
	</g>
	<g>
		<line fill="none" stroke="rgba(0, 0, 0, 0.3)" stroke-linecap="round" x1="194.54" y1="185.337" x2="194.54" y2="145.27"/>
	</g>
	<g>
		<path fill="none" stroke="rgba(0, 0, 0, 0.3)" stroke-linecap="round" d="M194.54,185.337"/>
	</g>
	<g>
		<path fill="none" stroke="rgba(0, 0, 0, 0.3)" stroke-linecap="round" d="M273.29,229.81v-5.562c0-0.991-0.811-1.8-1.799-1.8h-75.15
			c-0.989,0-1.799-0.81-1.799-1.799v-27.562"/>
	</g>
	<g>
		<path fill="none" stroke="rgba(0, 0, 0, 0.3)" stroke-linecap="round" d="M273.29,229.81"/>
	</g>
	<g>
		<line fill="none" stroke="rgba(0, 0, 0, 0.3)" stroke-linecap="round" x1="273.29" y1="433.312" x2="273.29" y2="253.478"/>
	</g>
	<g>
		<line fill="none" stroke="rgba(0, 0, 0, 0.3)" stroke-linecap="round" x1="273.29" y1="587.254" x2="273.29" y2="438.479"/>
	</g>
	<g>
		<path fill="none" stroke="rgba(0, 0, 0, 0.3)" stroke-linecap="round" d="M273.29,587.254"/>
	</g>
	<g>
		<path fill="none" stroke="rgba(0, 0, 0, 0.3)" stroke-linecap="round" d="M266.103,718.18h5.389c0.99,0,1.799-0.812,1.799-1.801V600.012"/>
	</g>
	<g>
		<line fill="none" stroke="rgba(0, 0, 0, 0.3)" stroke-linecap="round" x1="247.15" y1="718.18" x2="256.165" y2="718.18"/>
	</g>
	<g>
		<line fill="none" stroke="rgba(0, 0, 0, 0.3)" stroke-linecap="round" x1="217.324" y1="718.18" x2="225.9" y2="718.18"/>
	</g>
	<g>
		<path fill="none" stroke="rgba(0, 0, 0, 0.3)" stroke-linecap="round" d="M217.324,718.18"/>
	</g>
	<g>
		<path fill="none" stroke="rgba(0, 0, 0, 0.3)" stroke-linecap="round" d="M218.913,534.346h-100.93c-0.99,0-1.8,0.812-1.8,1.808v70.36
			c0,0.988,0.81,1.806,1.8,1.806h100.375c0.99,0,1.799,0.812,1.799,1.801v39.219c0,0.988-0.809,1.803-1.799,1.803h-15.485
			c-0.989,0-1.8,0.812-1.8,1.806v63.444c0,0.988,0.811,1.806,1.8,1.806h4.233"/>
	</g>
	<g>
		<path fill="none" stroke="rgba(0, 0, 0, 0.3)" stroke-linecap="round" d="M173.086,299.493h77.183c0.988,0,1.798,0.812,1.798,1.804v231.25
			c0,0.986-0.811,1.801-1.798,1.801h-11.928"/>
	</g>
	<g>
		<path fill="none" stroke="rgba(0, 0, 0, 0.3)" stroke-linecap="round" d="M194.54,116.312v-8.618c0-0.99,0.81-1.799,1.799-1.799h52.678
			c0.99,0,1.801-0.81,1.801-1.8V75.807c0-0.989-0.811-1.799-1.801-1.799h-70.552c-0.991,0-1.799,0.81-1.799,1.799v144.841
			c0,0.989-0.81,1.8-1.8,1.8h-28.275c-0.991,0-1.801,0.81-1.801,1.799v73.445c0,0.99,0.81,1.799,1.801,1.799h6.325"/>
	</g>
	<g id="room_114c">
		<path fill="none" d="M498.28,549.504c0,0.986-0.809,1.801-1.801,1.801h-94.842c-0.99,0-1.803-0.812-1.803-1.801V447.029
			c0-0.99,0.811-1.808,1.803-1.808h94.842c0.992,0,1.801,0.812,1.801,1.808V549.504L498.28,549.504z"/>
	</g>
	<g id="room_114">
		<path fill="none" d="M451.713,612.988c-0.988,0-1.801-0.812-1.801-1.808V576.21c0-0.99,0.811-1.805,1.801-1.805h18.523
			c0.988,0,1.801-0.812,1.801-1.8V557.6c0-0.983-0.812-1.801-1.801-1.801H401.34c-0.992,0-1.803,0.812-1.803,1.801v53.584
			c0,0.99-0.811,1.808-1.799,1.808H314.34c-0.988,0-1.801,0.812-1.801,1.799v90.928c0,0.986,0.811,1.799,1.801,1.799h182.48
			c0.988,0,1.799-0.812,1.799-1.799V614.79c0-0.986-0.811-1.799-1.799-1.799L451.713,612.988L451.713,612.988L451.713,612.988z"/>
	</g>
	<g id="room_111h">
		<path fill="none" d="M498.657,216.148c0,0.991-0.811,1.8-1.799,1.8H423.34c-0.99,0-1.805-0.812-1.805-1.8V150.6
			c0-0.989,0.811-1.799,1.805-1.799h73.518c0.988,0,1.799,0.81,1.799,1.799V216.148z"/>
	</g>
	<g id="room_111c">
		<path fill="none" d="M418.838,74.093c-0.99,0-1.801,0.029-1.801,0.062c0,0.035-0.812,0.062-1.799,0.062H345.34
			c-0.992,0-1.801,0.81-1.801,1.799v85.911c0,0.989,0.811,1.799,1.801,1.799h69.898c0.986,0,1.799-0.81,1.799-1.799v-15.674
			c0-0.989,0.811-1.799,1.801-1.799h77.641c0.992,0,1.812-0.811,1.812-1.801V75.892c0-0.991-0.812-1.8-1.812-1.8L418.838,74.093
			L418.838,74.093L418.838,74.093z"/>
	</g>
	<g id="room_111b">
		<path fill="none" d="M308.987,73.71c-0.99,0-1.799,0.81-1.799,1.8v8.756c0,0.989-0.812,1.799-1.801,1.799h-48.174
			c-0.988,0-1.803,0.811-1.803,1.801v74.062c0,0.991,0.812,1.799,1.803,1.799h48.174c0.988,0,2.607,0,3.602,0h28.252
			c0.99,0,1.799-0.81,1.799-1.799V75.511c0-0.99-0.811-1.799-1.799-1.799L308.987,73.71L308.987,73.71z"/>
	</g>
	<g>
		<path fill="none" stroke="rgba(0, 0, 0, 0.3)" d="M224.187,215.63c0,0.991-0.81,1.799-1.8,1.799h-18.231c-0.989,0-1.801-0.81-1.801-1.799
			v-10.898c0-0.99,0.812-1.799,1.801-1.799h18.231c0.991,0,1.8,0.811,1.8,1.799V215.63z"/>
	</g>
	<g>
		<path fill="none" stroke="rgba(0, 0, 0, 0.3)" d="M250.208,215.75c0,0.991-0.809,1.8-1.799,1.8h-18.23c-0.99,0-1.801-0.811-1.801-1.8v-10.909
			c0-0.991,0.811-1.8,1.801-1.8h18.23c0.99,0,1.799,0.81,1.799,1.8V215.75z"/>
	</g>
	<g id="room_112">
		<path fill="none" d="M333.389,384.257c0,0.987-0.812,1.802-1.801,1.802H279.59c-0.99,0-1.801-0.812-1.801-1.802v-47.314
			c0-0.99,0.811-1.799,1.801-1.799h51.999c0.99,0,1.801,0.809,1.801,1.799V384.257z"/>
	</g>
	<g id="room_113">
		<path fill="none" d="M333.702,439.408c0,0.99-0.811,1.803-1.799,1.803h-52.312c-0.99,0-1.801-0.812-1.801-1.803V417.68
			c0-0.983,0.811-1.803,1.801-1.803h52.312c0.99,0,1.799,0.812,1.799,1.803V439.408z"/>
	</g>
	<g id="room_111e">
		<path fill="none" d="M361.54,384.257c0,0.987-0.809,1.802-1.799,1.802h-19.898c-0.992,0-1.801-0.812-1.801-1.802v-19.461
			c0-0.992,0.811-1.804,1.801-1.804h19.898c0.99,0,1.799,0.812,1.799,1.804V384.257z"/>
	</g>
	<g id="unknown_room">
		<path fill="none" d="M310.79,410.471c0,0.99-0.811,1.808-1.799,1.808h-29.398c-0.99,0-1.801-0.812-1.801-1.808v-18.111
			c0-0.984,0.811-1.801,1.801-1.801h29.398c0.99,0,1.799,0.812,1.799,1.801V410.471z"/>
	</g>
	<g id="room_114e">
		<path fill="none" d="M339.84,390.559c-0.992,0-2.611,0-3.604,0h-19.898c-0.99,0-1.801,0.812-1.801,1.801v18.236
			c0,0.99,0.811,1.808,1.801,1.808h19.898c0.988,0,1.801,0.811,1.801,1.801v25.492c0,0.983,0.811,1.799,1.801,1.799h19.896
			c0.99,0,1.801-0.812,1.801-1.799v-47.337c0-0.984-0.811-1.801-1.801-1.801H339.84L339.84,390.559z"/>
	</g>
	<g id="room_111f">
		<path fill="none" d="M361.342,356.396c0,0.99-0.812,1.799-1.803,1.799H339.84c-0.992,0-1.801-0.811-1.801-1.799v-19.453
			c0-0.99,0.811-1.799,1.801-1.799h19.699c0.992,0,1.803,0.809,1.803,1.799V356.396z"/>
	</g>
	<g id="room_111">
		<path fill="none" d="M473.749,280.011c-0.986,0-1.799-0.812-1.799-1.799v-53.871c0-0.99-0.812-1.8-1.801-1.8h-51.322
			c-0.988,0-1.801-0.811-1.801-1.799v-50.715c0-0.99-0.809-1.8-1.799-1.8h-103.65c-0.986,0-1.799,0.811-1.799,1.8v50.716
			c0,0.99-0.811,1.799-1.799,1.799h-28.4c-0.988,0-1.799,0.81-1.799,1.8v52.112c0,0.99,0,2.193,0,2.681c0,0.479,0,1.688,0,2.678
			v13.857c0,0.989,0.812,1.801,1.799,1.801h30.025c0.99,0,1.801,0.809,1.801,1.799v29.859c0,0.985,0.812,1.799,1.799,1.799h51.025
			c0.99,0,1.799,0.811,1.799,1.799v106.68c0,0.981,0.812,1.799,1.801,1.799h128.643c0.988,0,1.805-0.812,1.805-1.799V281.812
			c0-0.988-0.812-1.799-1.805-1.799h-22.723V280.011L473.749,280.011z"/>
	</g>
	<g id="room_114b">
		<g id="_x31_14B_1_">
			<path fill="none" d="M395.086,606.549c0,0.988-0.811,1.801-1.801,1.801H279.591c-0.99,0-1.801-0.812-1.801-1.801V447.785
				c0-0.984,0.811-1.799,1.801-1.799h113.697c0.99,0,1.801,0.812,1.801,1.799v158.766h-0.002V606.549L395.086,606.549z"/>
		</g>
		<g>
			<path fill="none" stroke="rgba(0, 0, 0, 0.3)" stroke-linecap="round" d="M389.788,445.986h3.5c0.99,0,1.801,0.812,1.801,1.799v5.975"/>
		</g>
		<g>
			<line fill="none" stroke="rgba(0, 0, 0, 0.3)" stroke-linecap="round" x1="395.086" y1="461.508" x2="395.086" y2="502.529"/>
		</g>
		<g>
			<path fill="none" stroke="rgba(0, 0, 0, 0.3)" stroke-linecap="round" d="M395.086,510.279v96.271c0,0.988-0.811,1.801-1.801,1.801h-34.719"
				/>
		</g>
		<g>
			<path fill="none" stroke="rgba(0, 0, 0, 0.3)" stroke-linecap="round" d="M345.811,608.35h-66.22c-0.99,0-1.803-0.812-1.805-1.801
				l-0.021-6.537"/>
		</g>
		<g>
			<path fill="none" stroke="rgba(0, 0, 0, 0.3)" stroke-linecap="round" d="M277.776,587.254l0.014-139.471c0-0.984,0.812-1.799,1.801-1.799
				h62.574"/>
		</g>
		<g>
			<line fill="none" stroke="rgba(0, 0, 0, 0.3)" stroke-linecap="round" x1="357.415" y1="445.986" x2="382.04" y2="445.986"/>
		</g>
	</g>
	<g id="polyconnect_furniture">
		<g>
			<path fill="rgba(0, 0, 0, 0.5)" d="M291.866,461.105c0.135-0.24,0.443-0.328,0.686-0.193l7.013,3.883c0.24,0.133,0.324,0.438,0.188,0.676
				l-3.287,5.623c-0.145,0.23-0.135,0.623,0.015,0.854l6.996,11.414c0.146,0.229,0.481,0.428,0.76,0.428l17.655,0.035
				c0.271,0,0.504,0.229,0.504,0.5v7.426c0,0.275-0.23,0.5-0.504,0.5h-16.874c-0.274,0-0.625,0.188-0.776,0.416l-3.8,5.689
				c-0.153,0.229-0.479,0.303-0.713,0.165l-7.138-4.122c-0.235-0.146-0.312-0.438-0.159-0.677l3.521-5.489
				c0.147-0.23,0.159-0.617,0.022-0.854l-6.537-11.541c-0.137-0.24-0.475-0.438-0.748-0.436l-5.949,0.039
				c-0.273,0.004-0.5-0.229-0.5-0.494v-7.812c0-0.271,0.227-0.502,0.5-0.502h5.506c0.273,0,0.609-0.188,0.746-0.434L291.866,461.105
				z"/>
		</g>
		<g>
			<path fill="rgba(0, 0, 0, 0.5)" d="M292.508,504.965c0.148-0.229,0.467-0.305,0.701-0.16l6.162,3.715c0.233,0.146,0.315,0.453,0.182,0.693
				l-3.104,5.424c-0.136,0.24-0.134,0.627,0.014,0.859l6.994,11.41c0.146,0.229,0.485,0.432,0.764,0.432l11.707,0.021
				c0.271,0.002,0.604-0.197,0.73-0.438l3.342-6.254c0.131-0.242,0.432-0.33,0.672-0.195l7.488,4.271
				c0.238,0.135,0.311,0.438,0.162,0.666l-3.771,5.803c-0.148,0.229-0.152,0.609-0.004,0.846l2.957,4.646
				c0.146,0.229,0.072,0.537-0.158,0.686l-6.395,3.916c-0.23,0.146-0.559,0.072-0.713-0.146l-3.426-4.938
				c-0.158-0.229-0.512-0.412-0.787-0.412h-11.852c-0.274,0-0.627,0.188-0.78,0.412l-3.521,5.146
				c-0.151,0.229-0.479,0.291-0.699,0.139l-6.616-4.315c-0.229-0.146-0.291-0.462-0.14-0.688l3.479-5.168
				c0.153-0.229,0.164-0.607,0.026-0.847l-6.502-11.102c-0.146-0.229-0.48-0.434-0.752-0.432l-5.949,0.041
				c-0.275,0.002-0.5-0.229-0.5-0.498v-7.806c0-0.272,0.225-0.497,0.5-0.495l5.855,0.01c0.27,0,0.611-0.188,0.77-0.42
				L292.508,504.965z"/>
		</g>
		<g>
			<path fill="rgba(0, 0, 0, 0.5)" d="M382.213,461.531c-0.139-0.232-0.443-0.324-0.686-0.188l-7.014,3.881
				c-0.24,0.138-0.322,0.438-0.188,0.679l3.289,5.625c0.143,0.229,0.139,0.622-0.008,0.854l-6.998,11.412
				c-0.146,0.229-0.484,0.43-0.764,0.432l-10.422,0.033c-0.271,0-0.5,0.229-0.5,0.5v7.428c0,0.271,0.229,0.498,0.5,0.498h9.639
				c0.271,0,0.625,0.188,0.775,0.418l3.799,5.688c0.154,0.229,0.477,0.305,0.715,0.164l7.135-4.121
				c0.236-0.137,0.311-0.438,0.164-0.672l-3.521-5.494c-0.145-0.229-0.158-0.615-0.021-0.854l6.539-11.537
				c0.137-0.234,0.471-0.438,0.746-0.435l5.947,0.039c0.271,0.004,0.5-0.223,0.5-0.494v-7.809c0-0.271-0.229-0.498-0.5-0.498h-5.504
				c-0.273,0-0.609-0.193-0.746-0.438L382.213,461.531z"/>
		</g>
		<g>
			<path fill="rgba(0, 0, 0, 0.5)" d="M292.508,548.369c0.148-0.229,0.467-0.303,0.701-0.162l6.162,3.721c0.233,0.146,0.315,0.453,0.182,0.688
				l-3.104,5.428c-0.136,0.236-0.134,0.629,0.014,0.857l6.994,11.414c0.146,0.229,0.485,0.426,0.764,0.426l11.707,0.021
				c0.271,0.002,0.604-0.188,0.73-0.438l3.342-6.256c0.131-0.24,0.432-0.328,0.672-0.191l7.488,4.264
				c0.238,0.144,0.311,0.438,0.162,0.666l-3.771,5.81c-0.148,0.229-0.152,0.604-0.004,0.842l2.957,4.646
				c0.146,0.229,0.072,0.534-0.158,0.686l-6.395,3.914c-0.23,0.146-0.559,0.076-0.713-0.146l-3.426-4.936
				c-0.158-0.229-0.512-0.412-0.787-0.412h-11.852c-0.274,0-0.627,0.188-0.78,0.416l-3.521,5.146
				c-0.151,0.229-0.479,0.291-0.699,0.142l-6.616-4.318c-0.229-0.146-0.291-0.459-0.14-0.688l3.479-5.166
				c0.153-0.229,0.164-0.609,0.026-0.854l-6.502-11.096c-0.146-0.233-0.48-0.43-0.752-0.428l-5.949,0.039
				c-0.275,0.004-0.5-0.229-0.5-0.494v-7.81c0-0.271,0.225-0.503,0.5-0.5l5.855,0.016c0.27,0.002,0.611-0.188,0.77-0.418
				L292.508,548.369z"/>
		</g>
		<g>
			<path fill="rgba(0, 0, 0, 0.5)" d="M381.403,551.727c-0.15,0.23-0.465,0.31-0.703,0.162l-6.162-3.717c-0.232-0.145-0.312-0.453-0.18-0.688
				l3.105-5.431c0.137-0.233,0.131-0.629-0.021-0.854l-6.992-11.414c-0.146-0.23-0.482-0.427-0.764-0.427l-11.707-0.024
				c-0.271,0-0.604,0.197-0.732,0.438l-3.344,6.258c-0.131,0.235-0.43,0.327-0.67,0.188l-7.488-4.264
				c-0.234-0.138-0.312-0.438-0.158-0.668l3.771-5.808c0.146-0.229,0.143-0.6-0.025-0.812l-6.092-7.896
				c-0.17-0.222-0.107-0.519,0.117-0.658l6.324-3.979c0.23-0.146,0.562-0.096,0.738,0.123l6.645,8.24
				c0.174,0.219,0.539,0.393,0.812,0.393h11.854c0.271,0,0.627-0.188,0.779-0.409l3.52-5.146c0.152-0.229,0.477-0.291,0.699-0.139
				l6.617,4.313c0.23,0.146,0.293,0.459,0.141,0.688l-3.48,5.166c-0.152,0.229-0.166,0.604-0.025,0.844l6.502,11.098
				c0.145,0.234,0.479,0.438,0.752,0.437l5.947-0.041c0.275-0.002,0.5,0.221,0.5,0.495v7.806c0,0.272-0.229,0.498-0.5,0.498
				l-5.854-0.011c-0.273,0-0.621,0.188-0.771,0.419L381.403,551.727z"/>
		</g>
		<g>
			<path fill="rgba(0, 0, 0, 0.5)" d="M381.569,597.18c-0.15,0.229-0.465,0.308-0.701,0.162l-6.162-3.721c-0.234-0.146-0.314-0.449-0.18-0.689
				l3.102-5.424c0.139-0.238,0.133-0.627-0.014-0.859l-6.996-11.405c-0.145-0.232-0.484-0.437-0.762-0.437l-11.707-0.021
				c-0.275,0-0.604,0.196-0.734,0.438l-3.34,6.254c-0.131,0.242-0.432,0.332-0.672,0.195l-7.492-4.268
				c-0.236-0.144-0.312-0.438-0.162-0.666l3.771-5.812c0.15-0.229,0.152-0.604,0.004-0.84l-2.957-4.646
				c-0.146-0.229-0.078-0.541,0.156-0.688l6.393-3.912c0.236-0.146,0.559-0.075,0.713,0.146l3.428,4.934
				c0.156,0.229,0.51,0.41,0.783,0.41h11.852c0.273,0,0.629-0.188,0.781-0.412l3.52-5.146c0.152-0.229,0.479-0.288,0.697-0.146
				l6.619,4.322c0.23,0.146,0.291,0.459,0.139,0.688l-3.48,5.166c-0.154,0.229-0.164,0.608-0.027,0.854l6.504,11.096
				c0.146,0.236,0.48,0.437,0.754,0.433l5.947-0.037c0.273-0.004,0.5,0.225,0.5,0.49v7.811c0,0.271-0.229,0.502-0.5,0.5
				l-5.854-0.014c-0.273-0.003-0.623,0.188-0.771,0.42L381.569,597.18z"/>
		</g>
	</g>
	<g id="atrium">
		<path fill="none" d="M245.511,526.178c0,0.988-0.812,1.803-1.801,1.803h-95.981c-0.99,0-1.8-0.812-1.8-1.803V307.722
			c0-0.988,0.81-1.799,1.8-1.799h95.981c0.99,0,1.801,0.811,1.801,1.799V526.178z"/>
	</g>
	<g>
		<path fill="none" stroke="rgba(0, 0, 0, 0.3)" stroke-width="2" stroke-linecap="round" d="M173.086,305.925h70.624
			c0.99,0,1.801,0.809,1.801,1.799V526.18c0,0.99-0.811,1.808-1.801,1.808h-5.369"/>
	</g>
	<g>
		<path fill="none" stroke="rgba(0, 0, 0, 0.3)" stroke-width="2" stroke-linecap="round" d="M217.716,527.979h-70.624
			c-0.991,0-1.799-0.812-1.799-1.803V307.722c0-0.988,0.81-1.799,1.799-1.799h5.37"/>
	</g>
	<g id="Bathrooms">
		<g id="mens_rear">
			<path fill="none" d="M200.493,133.31c-0.99,0-1.798,0.811-1.798,1.8v26.817c0,0.991,0.81,1.801,1.798,1.801h48.621
				c0.99,0,1.799-0.81,1.799-1.801v-26.818c0-0.99-0.809-1.8-1.799-1.8L200.493,133.31L200.493,133.31z"/>
		</g>
		<g id="womens_rear">
			<path fill="none" d="M200.493,197.437c-0.99,0-1.798-0.81-1.798-1.8V168.82c0-0.99,0.81-1.801,1.798-1.801h48.621
				c0.99,0,1.799,0.811,1.799,1.801v26.817c0,0.99-0.809,1.8-1.799,1.8H200.493z"/>
		</g>
		<g id="mens_front">
			<path fill="none" d="M291.29,667.189c0,0.983-0.811,1.799-1.8,1.799h-9.898c-0.99,0-1.801-0.812-1.801-1.799v-32.354
				c0-0.992,0.812-1.803,1.801-1.803h9.898c0.99,0,1.8,0.811,1.8,1.803V667.189z"/>
		</g>
		<g id="womens_front">
			<path fill="none" d="M308.04,667.189c0,0.983-0.811,1.799-1.801,1.799h-8.646c-0.989,0-1.803-0.812-1.803-1.799v-32.121
				c0-0.988,0.812-1.799,1.803-1.799h8.646c0.992,0,1.801,0.811,1.801,1.799V667.189z"/>
		</g>
	</g>
	<g id="label_114b">
		<path fill="rgba(0, 0, 0, .6)" d="M283.384,604.604h-1.178v-2.268c0-0.275,0.008-0.527,0.021-0.76c-0.072,0.092-0.162,0.182-0.271,0.271
			l-0.484,0.4l-0.604-0.736l1.473-1.192h1.045v4.278L283.384,604.604L283.384,604.604z"/>
		<path fill="rgba(0, 0, 0, .6)" d="M286.897,604.604h-1.174v-2.268c0-0.275,0.006-0.527,0.018-0.76c-0.066,0.092-0.16,0.182-0.27,0.271
			l-0.486,0.4l-0.6-0.736l1.471-1.192h1.041V604.604L286.897,604.604z"/>
		<path fill="rgba(0, 0, 0, .6)" d="M291.081,603.775h-0.473v0.828h-1.142v-0.828h-1.709v-0.854l1.77-2.604h1.068v2.59h0.473L291.081,603.775
			L291.081,603.775z M289.466,602.912v-0.498c0-0.094,0.002-0.221,0.008-0.379c0.008-0.154,0.014-0.238,0.021-0.25h-0.035
			c-0.062,0.146-0.145,0.291-0.229,0.426l-0.475,0.703h0.709L289.466,602.912L289.466,602.912z"/>
		<path fill="rgba(0, 0, 0, .6)" d="M291.633,600.322h1.49c0.582,0,1.018,0.086,1.299,0.258c0.279,0.178,0.424,0.441,0.424,0.812
			c0,0.238-0.061,0.441-0.188,0.615c-0.123,0.17-0.285,0.275-0.484,0.326v0.027c0.266,0.063,0.459,0.188,0.576,0.354
			c0.119,0.166,0.182,0.377,0.182,0.639c0,0.396-0.145,0.695-0.438,0.926c-0.293,0.226-0.689,0.337-1.189,0.337h-1.666
			L291.633,600.322L291.633,600.322z M292.79,601.965h0.353c0.166,0,0.297-0.033,0.385-0.104c0.104-0.064,0.146-0.17,0.146-0.312
			c0-0.233-0.188-0.354-0.545-0.354h-0.326L292.79,601.965L292.79,601.965z M292.79,602.812v0.896h0.408
			c0.359,0,0.541-0.152,0.541-0.457c0-0.146-0.049-0.252-0.146-0.328c-0.096-0.076-0.233-0.106-0.418-0.106L292.79,602.812
			L292.79,602.812z"/>
	</g>
	<g id="label_114c">
		<path fill="rgba(0, 0, 0, .6)" d="M404.883,547.684h-1.178v-2.271c0-0.273,0.008-0.525,0.02-0.756c-0.07,0.088-0.16,0.182-0.27,0.271
			l-0.484,0.398l-0.604-0.734l1.473-1.197h1.045v4.285L404.883,547.684L404.883,547.684z"/>
		<path fill="rgba(0, 0, 0, .6)" d="M408.397,547.684h-1.174v-2.271c0-0.273,0.006-0.525,0.018-0.756c-0.066,0.088-0.16,0.182-0.27,0.271
			l-0.486,0.398l-0.6-0.734l1.471-1.197h1.043L408.397,547.684L408.397,547.684z"/>
		<path fill="rgba(0, 0, 0, .6)" d="M412.581,546.854h-0.473v0.83h-1.143v-0.83h-1.709v-0.85l1.77-2.604h1.068v2.59h0.473L412.581,546.854
			L412.581,546.854z M410.965,545.988v-0.498c0-0.094,0.002-0.228,0.008-0.379c0.008-0.16,0.014-0.242,0.021-0.25h-0.035
			c-0.062,0.146-0.145,0.291-0.229,0.424l-0.477,0.705h0.709v-0.002H410.965z"/>
		<path fill="rgba(0, 0, 0, .6)" d="M415.04,544.287c-0.273,0-0.488,0.111-0.645,0.342c-0.156,0.227-0.23,0.535-0.23,0.934
			c0,0.824,0.312,1.234,0.939,1.234c0.188,0,0.375-0.027,0.553-0.078c0.178-0.057,0.355-0.117,0.535-0.188v0.979
			c-0.357,0.158-0.762,0.234-1.215,0.234c-0.646,0-1.146-0.188-1.486-0.562c-0.346-0.375-0.518-0.918-0.518-1.625
			c0-0.438,0.084-0.832,0.25-1.17c0.168-0.334,0.408-0.594,0.721-0.771c0.314-0.188,0.684-0.271,1.105-0.271
			c0.463,0,0.902,0.104,1.324,0.307l-0.355,0.904c-0.16-0.067-0.314-0.139-0.477-0.188
			C415.391,544.312,415.223,544.287,415.04,544.287z"/>
	</g>
	<g id="label_114">
		<path fill="rgba(0, 0, 0, .6)" d="M318.131,704.184h-1.174v-2.271c0-0.271,0.008-0.523,0.02-0.756c-0.072,0.09-0.162,0.182-0.27,0.271
			l-0.482,0.4l-0.604-0.736l1.475-1.192h1.043L318.131,704.184L318.131,704.184z"/>
		<path fill="rgba(0, 0, 0, .6)" d="M321.649,704.184h-1.176v-2.271c0-0.271,0.006-0.523,0.018-0.756c-0.07,0.09-0.162,0.182-0.27,0.271
			l-0.486,0.4l-0.602-0.736l1.471-1.192h1.045V704.184L321.649,704.184z"/>
		<path fill="rgba(0, 0, 0, .6)" d="M325.829,703.354h-0.471v0.828h-1.145v-0.828h-1.709v-0.85l1.77-2.604h1.07v2.59h0.471L325.829,703.354
			L325.829,703.354z M324.215,702.488v-0.498c0-0.094,0.002-0.229,0.01-0.379c0.006-0.16,0.01-0.242,0.021-0.25h-0.031
			c-0.064,0.146-0.146,0.291-0.23,0.424l-0.475,0.705h0.709v-0.002H324.215z"/>
	</g>
	<g id="label_113_x0D_">
		<path fill="rgba(0, 0, 0, .6)" d="M283.384,437.434h-1.178v-2.271c0-0.273,0.008-0.525,0.02-0.758c-0.07,0.09-0.162,0.182-0.27,0.271
			l-0.48,0.398l-0.604-0.734l1.475-1.191h1.043v4.281L283.384,437.434L283.384,437.434z"/>
		<path fill="rgba(0, 0, 0, .6)" d="M286.897,437.434h-1.174v-2.271c0-0.273,0.006-0.525,0.018-0.758c-0.066,0.09-0.16,0.182-0.27,0.271
			l-0.486,0.398l-0.6-0.734l1.471-1.191h1.041V437.434L286.897,437.434z"/>
		<path fill="rgba(0, 0, 0, .6)" d="M290.799,434.076c0,0.271-0.082,0.494-0.244,0.688c-0.162,0.188-0.394,0.33-0.701,0.416v0.021
			c0.714,0.092,1.072,0.432,1.072,1.016c0,0.396-0.16,0.713-0.477,0.939c-0.312,0.229-0.751,0.344-1.31,0.344
			c-0.23,0-0.445-0.021-0.645-0.051c-0.191-0.033-0.404-0.101-0.646-0.188V436.3c0.189,0.104,0.379,0.166,0.574,0.213
			c0.195,0.054,0.373,0.07,0.535,0.07c0.256,0,0.438-0.037,0.557-0.104c0.115-0.069,0.186-0.188,0.186-0.34
			c0-0.11-0.027-0.203-0.104-0.271c-0.061-0.062-0.156-0.109-0.293-0.146c-0.135-0.027-0.311-0.048-0.52-0.048h-0.271v-0.871h0.271
			c0.592,0,0.887-0.146,0.887-0.444c0-0.111-0.043-0.197-0.135-0.25c-0.09-0.062-0.199-0.085-0.355-0.085
			c-0.27,0-0.557,0.093-0.85,0.271l-0.48-0.771c0.23-0.157,0.459-0.271,0.697-0.336c0.238-0.062,0.51-0.104,0.812-0.104
			c0.439,0,0.791,0.088,1.041,0.267C290.674,433.527,290.799,433.77,290.799,434.076z"/>
	</g>
	<g id="label_114e">
		<path fill="rgba(0, 0, 0, .6)" d="M342.145,437.432h-1.176v-2.271c0-0.271,0.006-0.523,0.02-0.758c-0.072,0.088-0.162,0.184-0.27,0.271
			l-0.486,0.398l-0.602-0.734l1.471-1.199h1.045v4.285L342.145,437.432L342.145,437.432z"/>
		<path fill="rgba(0, 0, 0, .6)" d="M345.661,437.432h-1.176v-2.271c0-0.271,0.008-0.523,0.02-0.758c-0.07,0.088-0.162,0.184-0.27,0.271
			l-0.48,0.398l-0.604-0.734l1.479-1.199h1.043v4.289L345.661,437.432L345.661,437.432z"/>
		<path fill="rgba(0, 0, 0, .6)" d="M349.842,436.604h-0.473v0.828h-1.146v-0.828h-1.707v-0.85l1.781-2.604h1.062v2.592h0.479L349.842,436.604
			L349.842,436.604z M348.227,435.738v-0.498c0-0.103,0.004-0.228,0.01-0.379c0.006-0.16,0.012-0.242,0.02-0.252h-0.033
			c-0.061,0.146-0.145,0.293-0.229,0.424l-0.475,0.707h0.707V435.738L348.227,435.738z"/>
		<path fill="rgba(0, 0, 0, .6)" d="M352.938,437.432h-2.543v-4.276h2.543v0.93h-1.387v0.674h1.281v0.937h-1.281v0.811h1.387V437.432z"/>
	</g>
	<g id="label_111e">
		<path fill="rgba(0, 0, 0, .6)" d="M342.145,383.434h-1.176v-2.271c0-0.271,0.006-0.522,0.02-0.759c-0.072,0.091-0.162,0.184-0.27,0.275
			l-0.486,0.396l-0.602-0.735l1.471-1.193h1.045v4.285L342.145,383.434L342.145,383.434z"/>
		<path fill="rgba(0, 0, 0, .6)" d="M345.661,383.434h-1.176v-2.271c0-0.271,0.008-0.522,0.02-0.759c-0.07,0.091-0.162,0.184-0.27,0.275
			l-0.48,0.396l-0.604-0.735l1.479-1.193h1.043v4.287H345.661L345.661,383.434z"/>
		<path fill="rgba(0, 0, 0, .6)" d="M349.178,383.434H348v-2.271c0-0.271,0.008-0.522,0.02-0.759c-0.072,0.091-0.162,0.184-0.27,0.275
			l-0.482,0.396l-0.604-0.735l1.475-1.193h1.043v4.287H349.178L349.178,383.434z"/>
		<path fill="rgba(0, 0, 0, .6)" d="M352.938,383.434h-2.543v-4.285h2.543v0.936h-1.387v0.68h1.281v0.934h-1.281v0.809h1.387V383.434z"/>
	</g>
	<g id="label_112_x0D_">
		<path fill="rgba(0, 0, 0, .6)" d="M283.384,383.432h-1.178v-2.271c0-0.271,0.008-0.522,0.02-0.759c-0.07,0.089-0.162,0.184-0.27,0.271
			l-0.48,0.396l-0.604-0.73l1.475-1.193h1.043v4.287h-0.004v0.002h-0.002V383.432z"/>
		<path fill="rgba(0, 0, 0, .6)" d="M286.897,383.432h-1.174v-2.271c0-0.271,0.006-0.522,0.018-0.759c-0.066,0.089-0.16,0.184-0.27,0.271
			l-0.486,0.396l-0.6-0.73l1.471-1.193h1.041V383.432L286.897,383.432z"/>
		<path fill="rgba(0, 0, 0, .6)" d="M290.942,383.432h-3.109v-0.763l1.049-1.06c0.299-0.312,0.492-0.522,0.586-0.646
			c0.094-0.109,0.154-0.213,0.191-0.295c0.035-0.084,0.055-0.168,0.055-0.258c0-0.105-0.035-0.201-0.107-0.271
			c-0.061-0.062-0.174-0.098-0.305-0.098c-0.137,0-0.271,0.037-0.408,0.114c-0.139,0.073-0.293,0.188-0.467,0.341l-0.639-0.743
			c0.223-0.194,0.406-0.339,0.559-0.425c0.15-0.086,0.312-0.148,0.49-0.193c0.178-0.046,0.373-0.062,0.596-0.062
			c0.277,0,0.525,0.05,0.744,0.146c0.219,0.096,0.386,0.233,0.505,0.42c0.121,0.184,0.18,0.383,0.18,0.604
			c0,0.168-0.02,0.315-0.061,0.468c-0.041,0.146-0.107,0.282-0.195,0.428c-0.09,0.139-0.205,0.277-0.351,0.435
			c-0.146,0.153-0.455,0.44-0.932,0.868v0.021h1.621L290.942,383.432L290.942,383.432z"/>
	</g>
	<g id="label_111f">
		<path fill="rgba(0, 0, 0, .6)" d="M342.145,354.933h-1.176v-2.271c0-0.272,0.006-0.524,0.02-0.756c-0.072,0.088-0.162,0.183-0.27,0.273
			l-0.486,0.399l-0.602-0.737l1.471-1.197h1.045v4.285L342.145,354.933L342.145,354.933z"/>
		<path fill="rgba(0, 0, 0, .6)" d="M345.661,354.933h-1.176v-2.271c0-0.272,0.008-0.524,0.02-0.756c-0.07,0.088-0.162,0.183-0.27,0.273
			l-0.48,0.399l-0.604-0.737l1.479-1.197h1.043v4.289H345.661z"/>
		<path fill="rgba(0, 0, 0, .6)" d="M349.178,354.933H348v-2.271c0-0.272,0.008-0.524,0.02-0.756c-0.072,0.088-0.162,0.183-0.27,0.273
			l-0.482,0.399l-0.604-0.737l1.475-1.197h1.043v4.288L349.178,354.933L349.178,354.933z"/>
		<path fill="rgba(0, 0, 0, .6)" d="M351.536,354.933h-1.141v-4.283h2.531v0.93h-1.396v0.814h1.283v0.93h-1.283L351.536,354.933
			L351.536,354.933z"/>
	</g>
	<g id="label_111_x0D_">
		<path fill="rgba(0, 0, 0, .6)" d="M371.42,437.432h-1.178v-2.271c0-0.271,0.004-0.523,0.02-0.758c-0.072,0.088-0.162,0.184-0.27,0.271
			l-0.482,0.398l-0.605-0.734l1.48-1.199h1.049v4.289L371.42,437.432L371.42,437.432z"/>
		<path fill="rgba(0, 0, 0, .6)" d="M374.936,437.432h-1.176v-2.271c0-0.271,0.006-0.523,0.02-0.758c-0.072,0.088-0.162,0.184-0.27,0.271
			l-0.484,0.398l-0.602-0.734l1.471-1.199h1.043v4.289L374.936,437.432L374.936,437.432z"/>
		<path fill="rgba(0, 0, 0, .6)" d="M378.452,437.432h-1.176v-2.271c0-0.271,0.008-0.523,0.02-0.758c-0.07,0.088-0.162,0.184-0.27,0.271
			l-0.48,0.398l-0.604-0.734l1.479-1.199h1.043v4.289L378.452,437.432L378.452,437.432z"/>
	</g>
	<g id="label_111c">
		<path fill="rgba(0, 0, 0, .6)" d="M347.979,161.266h-1.176v-2.268c0-0.275,0.006-0.527,0.018-0.756c-0.072,0.089-0.162,0.18-0.27,0.274
			l-0.486,0.4l-0.602-0.739l1.471-1.197h1.045V161.266L347.979,161.266z"/>
		<path fill="rgba(0, 0, 0, .6)" d="M351.495,161.266h-1.176v-2.268c0-0.275,0.006-0.527,0.02-0.756c-0.07,0.089-0.162,0.18-0.27,0.274
			l-0.48,0.4l-0.604-0.739l1.479-1.197h1.043v4.286H351.495z"/>
		<path fill="rgba(0, 0, 0, .6)" d="M355.01,161.266h-1.174v-2.268c0-0.275,0.004-0.527,0.018-0.756c-0.061,0.089-0.162,0.18-0.27,0.274
			l-0.482,0.4l-0.604-0.739l1.475-1.197h1.043v4.285L355.01,161.266L355.01,161.266z"/>
		<path fill="rgba(0, 0, 0, .6)" d="M358.137,157.871c-0.275,0-0.492,0.112-0.645,0.338c-0.15,0.226-0.23,0.537-0.23,0.932
			c0,0.825,0.311,1.236,0.939,1.236c0.188,0,0.371-0.025,0.551-0.078c0.18-0.054,0.355-0.116,0.535-0.191v0.979
			c-0.355,0.159-0.764,0.237-1.215,0.237c-0.646,0-1.145-0.189-1.484-0.562c-0.348-0.375-0.52-0.918-0.52-1.626
			c0-0.443,0.084-0.832,0.25-1.169c0.168-0.335,0.406-0.594,0.725-0.775c0.311-0.181,0.684-0.271,1.104-0.271
			c0.463,0,0.904,0.1,1.326,0.302l-0.354,0.91c-0.156-0.073-0.314-0.137-0.479-0.188
			C358.485,157.893,358.317,157.871,358.137,157.871z"/>
	</g>
	<g id="label_111h">
		<path fill="rgba(0, 0, 0, .6)" d="M425.813,215.266h-1.174v-2.268c0-0.274,0.006-0.527,0.018-0.756c-0.072,0.089-0.162,0.18-0.27,0.274
			l-0.486,0.4l-0.602-0.739l1.471-1.197h1.043V215.266L425.813,215.266z"/>
		<path fill="rgba(0, 0, 0, .6)" d="M429.327,215.266h-1.172v-2.268c0-0.274,0.004-0.527,0.018-0.756c-0.07,0.089-0.162,0.18-0.27,0.274
			l-0.48,0.4l-0.604-0.739l1.479-1.197h1.041v4.286H429.327z"/>
		<path fill="rgba(0, 0, 0, .6)" d="M432.844,215.266h-1.178v-2.268c0-0.274,0.008-0.527,0.02-0.756c-0.07,0.089-0.16,0.18-0.27,0.274
			l-0.484,0.4l-0.604-0.739l1.473-1.197h1.043V215.266L432.844,215.266z"/>
		<path fill="rgba(0, 0, 0, .6)" d="M437.733,215.266h-1.162v-1.747h-1.346v1.747h-1.162v-4.283h1.162v1.588h1.346v-1.588h1.162V215.266z"/>
	</g>
	<g id="label_111b">
		<path fill="rgba(0, 0, 0, .6)" d="M260.645,161.266h-1.174v-2.268c0-0.275,0.004-0.527,0.018-0.756c-0.072,0.089-0.162,0.18-0.27,0.274
			l-0.484,0.4l-0.602-0.739l1.471-1.197h1.043v4.286H260.645z"/>
		<path fill="rgba(0, 0, 0, .6)" d="M264.161,161.266h-1.176v-2.268c0-0.275,0.008-0.527,0.021-0.756c-0.072,0.089-0.162,0.18-0.271,0.274
			l-0.486,0.4l-0.6-0.739l1.471-1.197h1.043L264.161,161.266L264.161,161.266z"/>
		<path fill="rgba(0, 0, 0, .6)" d="M267.677,161.266h-1.176v-2.268c0-0.275,0.008-0.527,0.02-0.756c-0.066,0.089-0.156,0.18-0.271,0.274
			l-0.481,0.4l-0.604-0.739l1.477-1.197h1.043v4.285L267.677,161.266L267.677,161.266z"/>
		<path fill="rgba(0, 0, 0, .6)" d="M268.896,156.982h1.494c0.582,0,1.014,0.086,1.297,0.26c0.281,0.173,0.422,0.44,0.422,0.807
			c0,0.24-0.061,0.445-0.184,0.615c-0.125,0.17-0.287,0.279-0.486,0.329v0.029c0.266,0.07,0.459,0.188,0.576,0.354
			c0.119,0.164,0.18,0.376,0.18,0.639c0,0.389-0.145,0.696-0.438,0.918c-0.293,0.225-0.691,0.335-1.193,0.335h-1.666
			L268.896,156.982L268.896,156.982z M270.054,158.625h0.354c0.164,0,0.295-0.033,0.386-0.104c0.102-0.066,0.145-0.17,0.145-0.305
			c0-0.24-0.188-0.36-0.545-0.36h-0.325L270.054,158.625L270.054,158.625z M270.054,159.473v0.899h0.404
			c0.361,0,0.541-0.152,0.541-0.458c0-0.144-0.047-0.252-0.145-0.329s-0.238-0.113-0.422-0.113L270.054,159.473L270.054,159.473z"/>
	</g>
	<g>
		<path fill="none" stroke="rgba(0, 0, 0, 0.3)" stroke-linecap="round" d="M411.749,163.538h3.492c0.988,0,1.799-0.811,1.799-1.8v-15.673
			c0-0.989,0.812-1.799,1.801-1.799h77.643c0.99,0,1.811-0.81,1.811-1.8V75.703c0-0.99-0.811-1.801-1.811-1.801L345.34,74.026
			c-0.99,0-1.801,0.812-1.801,1.802v85.91c0,0.991,0.811,1.8,1.801,1.8h53.654"/>
	</g>
	<g>
		<path fill="none" stroke="rgba(0, 0, 0, 0.3)" stroke-linecap="round" d="M277.79,229.813v-5.469c0-0.991,0.812-1.799,1.801-1.799h28.398
			c0.988,0,1.799-0.811,1.799-1.8v-50.718c0-0.989,0.812-1.8,1.801-1.8h15.523"/>
	</g>
	<g>
		<line fill="none" stroke="rgba(0, 0, 0, 0.3)" stroke-linecap="round" x1="334.864" y1="168.228" x2="399.202" y2="168.228"/>
	</g>
	<g>
		<path fill="none" stroke="rgba(0, 0, 0, 0.3)" stroke-linecap="round" d="M411.959,168.228h3.279c0.986,0,1.799,0.811,1.799,1.799v5.227"/>
	</g>
	<g>
		<path fill="none" stroke="rgba(0, 0, 0, 0.3)" stroke-linecap="round" d="M471.961,236.646v41.566c0,0.987,0.812,1.801,1.803,1.801h22.719
			c0.99,0,1.812,0.811,1.812,1.799v157.596c0,0.99-0.812,1.799-1.812,1.799h-68.561"/>
	</g>
	<g>
		<path fill="none" stroke="rgba(0, 0, 0, 0.3)" stroke-linecap="round" d="M417.04,183.003v37.743c0,0.989,0.812,1.8,1.801,1.8h51.32
			c0.992,0,1.803,0.81,1.803,1.799v6.133"/>
	</g>
	<g>
		<line fill="none" stroke="rgba(0, 0, 0, 0.3)" stroke-linecap="round" x1="415.161" y1="441.207" x2="389.788" y2="441.207"/>
	</g>
	<g>
		<path fill="none" stroke="rgba(0, 0, 0, 0.3)" stroke-linecap="round" d="M311.415,321.478v-22.207c0-0.99-0.811-1.801-1.801-1.801h-30.021
			c-0.99,0-1.801-0.812-1.801-1.799v-42.193"/>
	</g>
	<g>
		<path fill="none" stroke="rgba(0, 0, 0, 0.3)" stroke-linecap="round" d="M315.374,330.929h-2.156c-0.99,0-1.803-0.812-1.803-1.801v-2.482"/>
	</g>
	<g>
		<path fill="none" stroke="rgba(0, 0, 0, 0.3)" stroke-linecap="round" d="M366.04,351.313v-18.586c0-0.992-0.811-1.799-1.799-1.799H320.54"/>
	</g>
	<g>
		<line fill="none" stroke="rgba(0, 0, 0, 0.3)" stroke-linecap="round" x1="366.04" y1="379.979" x2="366.04" y2="356.146"/>
	</g>
	<g>
		<path fill="none" stroke="rgba(0, 0, 0, 0.3)" stroke-linecap="round" d="M382.04,441.207H367.84c-0.988,0-1.801-0.811-1.801-1.803v-54.596"
			/>
	</g>
	<g>
		<path fill="none" stroke="rgba(0, 0, 0, 0.3)" stroke-linecap="round" d="M327.116,163.728h-69.899c-0.988,0-1.801-0.81-1.801-1.801V87.865
			c0-0.99,0.812-1.799,1.801-1.799h48.173c0.989,0,1.802-0.81,1.802-1.8V75.51c0-0.989,0.811-1.799,1.799-1.799h28.254
			c0.988,0,1.799,0.81,1.799,1.799v86.417c0,0.991-0.812,1.801-1.799,1.801h-2.375"/>
	</g>
	<g>
		<path fill="none" stroke="rgba(0, 0, 0, 0.3)" d="M421.54,175.252v-24.651c0-0.989,0.812-1.799,1.803-1.799h73.518
			c0.986,0,1.811,0.81,1.811,1.799v65.55c0,0.989-0.812,1.8-1.811,1.8h-73.52c-0.99,0-1.805-0.811-1.805-1.8v-33.147"/>
	</g>
	<g>
		<path fill="none" stroke="rgba(0, 0, 0, 0.3)" stroke-linecap="round" d="M361.342,351.313v-14.369c0-0.992-0.812-1.799-1.803-1.799H339.84
			c-0.992,0-1.801,0.809-1.801,1.799v19.453c0,0.99,0.811,1.799,1.801,1.799h19.699c0.992,0,1.846-0.461,1.9-1.022
			c0.053-0.564,0.098-1.025,0.098-1.025"/>
	</g>
	<g>
		<path fill="none" stroke="rgba(0, 0, 0, 0.3)" stroke-linecap="round" d="M361.54,379.979v-15.184c0-0.992-0.809-1.804-1.799-1.804h-19.898
			c-0.992,0-1.801,0.812-1.801,1.804v19.461c0,0.989,0.811,1.803,1.801,1.803h19.898c0.99,0,1.799-0.281,1.799-0.625
			s0-0.625,0-0.625"/>
	</g>
	<g>
		<path fill="none" stroke="rgba(0, 0, 0, 0.3)" stroke-linecap="round" d="M342.165,441.486h-2.322c-0.992,0-1.801-0.812-1.801-1.808v-25.485
			c0-0.99-0.811-1.806-1.801-1.806h-19.898c-0.988,0-1.801-0.812-1.801-1.803v-18.229c0-0.99,0.812-1.801,1.801-1.801h43.398
			c0.99,0,1.799,0.811,1.799,1.801v47.323c0,0.99-0.809,1.808-1.799,1.808h-2.324"/>
	</g>
	<g>
		<path fill="none" stroke="rgba(0, 0, 0, 0.3)" stroke-linecap="round" d="M296.081,330.333h-16.488c-0.99,0-1.801-0.811-1.801-1.801v-24.983
			c0-0.992,0.811-1.804,1.801-1.804h25.523c0.988,0,1.799,0.812,1.799,1.804v17.931"/>
	</g>
	<g>
		<path fill="none" stroke="rgba(0, 0, 0, 0.3)" stroke-linecap="round" d="M301.249,330.333h3.867c0.988,0,1.799-0.811,1.799-1.801v-1.887"/>
	</g>
	<g>
		<path fill="none" stroke="rgba(0, 0, 0, 0.3)" stroke-linecap="round" d="M296.081,335.144h-16.488c-0.99,0-1.801,0.809-1.801,1.799v47.314
			c0,0.987,0.811,1.802,1.801,1.802h22.349"/>
	</g>
	<g>
		<line fill="none" stroke="rgba(0, 0, 0, 0.3)" stroke-linecap="round" x1="301.249" y1="335.144" x2="315.374" y2="335.144"/>
	</g>
	<g>
		<path fill="none" stroke="rgba(0, 0, 0, 0.3)" stroke-linecap="round" d="M320.54,335.144h11.051c0.988,0,1.799,0.809,1.799,1.799v47.314
			c0,0.987-0.811,1.802-1.799,1.802h-24.48"/>
	</g>
	<g>
		<path fill="none" stroke="rgba(0, 0, 0, 0.3)" stroke-linecap="round" d="M301.938,390.559h-22.347c-0.99,0-1.801,0.812-1.801,1.801v18.111
			c0,0.99,0.811,1.808,1.801,1.808h29.394c0.99,0,1.803-0.812,1.803-1.808v-18.111c0-0.984-0.812-1.801-1.803-1.801H307.1"/>
	</g>
	<g>
		<path fill="none" stroke="rgba(0, 0, 0, 0.3)" stroke-linecap="round" d="M277.776,433.312l0.012-15.638c0.002-0.981,0.812-1.801,1.803-1.801
			h52.312c0.99,0,1.799,0.812,1.799,1.801v21.729c0,0.988-0.811,1.803-1.799,1.803h-52.31c-0.99,0-1.807-0.613-1.812-1.363
			c-0.002-0.752-0.006-1.358-0.006-1.358"/>
	</g>
	<g>
		<path fill="none" stroke="rgba(0, 0, 0, 0.3)" stroke-linecap="round" d="M399.836,453.758v-6.729c0-0.986,0.812-1.806,1.801-1.806h13.521"/>
	</g>
	<g>
		<path fill="none" stroke="rgba(0, 0, 0, 0.3)" stroke-linecap="round" d="M427.917,445.23h68.564c0.99,0,1.799,0.811,1.799,1.799v102.479
			c0,0.986-0.809,1.801-1.799,1.803l-68.564,0.142"/>
	</g>
	<g>
		<line fill="none" stroke="rgba(0, 0, 0, 0.3)" stroke-linecap="round" x1="399.836" y1="502.529" x2="399.836" y2="461.508"/>
	</g>
	<g>
		<path fill="none" stroke="rgba(0, 0, 0, 0.3)" stroke-linecap="round" d="M415.161,551.305h-13.523c-0.986,0-1.799-0.812-1.799-1.801v-39.227
			"/>
	</g>
	<g>
		<path fill="none" stroke="rgba(0, 0, 0, 0.3)" stroke-linecap="round" d="M345.811,612.988H314.34c-0.99,0-1.803,0.812-1.803,1.799v62.604"/>
	</g>
	<g>
		<path fill="none" stroke="rgba(0, 0, 0, 0.3)" stroke-linecap="round" d="M472.04,560.771v-3.166c0-0.99-0.811-1.808-1.801-1.808h-42.32"/>
	</g>
	<g>
		<path fill="none" stroke="rgba(0, 0, 0, 0.3)" stroke-linecap="round" d="M472.04,560.771"/>
	</g>
	<g>
		<path fill="none" stroke="rgba(0, 0, 0, 0.3)" stroke-linecap="round" d="M312.54,697.146v8.562c0,0.986,0.812,1.801,1.803,1.801h182.48
			c0.99,0,1.811-0.812,1.811-1.801v-90.926c0-0.984-0.811-1.802-1.811-1.802h-45.105c-0.986,0-1.803-0.812-1.803-1.805v-34.973
			c0-0.99,0.812-1.805,1.803-1.805h18.521c0.99,0,1.801-0.812,1.801-1.804v-6.723"/>
	</g>
	<g>
		<path fill="none" stroke="rgba(0, 0, 0, 0.3)" stroke-linecap="round" d="M415.161,555.805h-13.822c-0.992,0-1.801,0.812-1.801,1.808v53.584
			c0,0.983-0.811,1.801-1.801,1.801h-39.17"/>
	</g>
	<rect x="162.461" y="286.155" fill="none" width="10.624" height="6.254"/>
	<g>
		<path fill="none" stroke="rgba(0, 0, 0, 0.3)" stroke-linecap="round" d="M198.694,137.521v-2.411c0-0.99,0.81-1.8,1.799-1.8h48.619
			c0.99,0,1.801,0.811,1.801,1.8v26.817c0,0.991-0.811,1.801-1.801,1.801h-48.619c-0.991,0-1.799-0.81-1.799-1.801v-16.658"/>
	</g>
	<g>
		<path fill="none" stroke="rgba(0, 0, 0, 0.3)" stroke-linecap="round" d="M198.67,193.204v2.411c0,0.988,0.81,1.799,1.799,1.799h48.622
			c0.988,0,1.801-0.811,1.801-1.799v-26.819c0-0.99-0.812-1.8-1.801-1.8h-48.622c-0.991,0-1.799,0.81-1.799,1.8v16.659"/>
	</g>
	<g>
		<path fill="none" stroke="rgba(0, 0, 0, 0.3)" stroke-linecap="round" d="M286.603,668.988h2.887c0.99,0,1.8-0.812,1.8-1.808V634.83
			c0-0.99-0.811-1.803-1.8-1.803h-9.896c-0.99,0-1.803,0.812-1.803,1.803v32.354c0,0.99,0.812,1.808,1.803,1.808h2.889"/>
	</g>
	<g>
		<path fill="none" stroke="rgba(0, 0, 0, 0.3)" stroke-linecap="round" d="M299.852,668.988h-2.264c-0.99,0-1.801-0.812-1.801-1.808v-32.112
			c0-0.99,0.811-1.808,1.801-1.808h8.645c0.99,0,1.803,0.812,1.803,1.808v32.112c0,0.99-0.812,1.808-1.803,1.808h-2.264"/>
	</g>
	<g>
		<path fill="none" stroke="rgba(0, 0, 0, 0.3)" stroke-linecap="round" d="M216.306,644.947c0,0.981-0.81,1.799-1.799,1.799h-11.809
			c-0.991,0-2.463-0.469-3.271-1.043l-22.547-15.99c-0.807-0.572-1.467-1.854-1.467-2.846V614.01c0-0.981,0.81-1.803,1.799-1.803
			h37.29c0.991,0,1.8,0.812,1.8,1.803L216.306,644.947L216.306,644.947z"/>
	</g>
	<g>
		<path fill="none" stroke="rgba(0, 0, 0, 0.3)" stroke-linecap="round" d="M477.096,236.646v36.818c0,0.987,0.809,1.799,1.799,1.799h14.525
			c0.99,0,1.801-0.812,1.801-1.799v-48.649c0-0.99-0.811-1.8-1.801-1.8h-14.525c-0.99,0-1.799,0.811-1.799,1.8v5.663"/>
	</g>
	<g>
		<rect x="479.875" y="266.681" fill="rgba(0, 0, 0, 0.5)" width="12.562" height="3.375"/>
		<rect x="479.875" y="261.872" fill="rgba(0, 0, 0, 0.5)" width="12.562" height="3.375"/>
		<rect x="479.875" y="257.065" fill="rgba(0, 0, 0, 0.5)" width="12.562" height="3.375"/>
		<rect x="479.875" y="252.259" fill="rgba(0, 0, 0, 0.5)" width="12.562" height="3.375"/>
		<rect x="479.875" y="247.452" fill="rgba(0, 0, 0, 0.5)" width="12.562" height="3.375"/>
		<rect x="479.875" y="242.644" fill="rgba(0, 0, 0, 0.5)" width="12.562" height="3.375"/>
		<rect x="479.875" y="237.839" fill="rgba(0, 0, 0, 0.5)" width="12.562" height="3.375"/>
		<rect x="479.875" y="233.03" fill="rgba(0, 0, 0, 0.5)" width="12.562" height="3.375"/>
		<rect x="479.875" y="228.224" fill="rgba(0, 0, 0, 0.5)" width="12.562" height="3.375"/>
	</g>
	<g>
		<path fill="none" stroke="rgba(0, 0, 0, 0.3)" stroke-linecap="round" d="M476.629,566.354v39.9c0,0.986,0.811,1.799,1.801,1.799h14.523
			c0.99,0,1.803-0.812,1.803-1.799v-48.65c0-0.983-0.812-1.801-1.803-1.801H478.43c-0.99,0-1.801,0.812-1.801,1.801v3.062"/>
	</g>
	<g>
		<rect x="479.413" y="599.471" fill="rgba(0, 0, 0, 0.5)" width="12.562" height="3.375"/>
		<rect x="479.413" y="594.662" fill="rgba(0, 0, 0, 0.5)" width="12.562" height="3.375"/>
		<rect x="479.413" y="589.854" fill="rgba(0, 0, 0, 0.5)" width="12.562" height="3.375"/>
		<rect x="479.413" y="585.049" fill="rgba(0, 0, 0, 0.5)" width="12.562" height="3.375"/>
		<rect x="479.413" y="580.24" fill="rgba(0, 0, 0, 0.5)" width="12.562" height="3.375"/>
		<rect x="479.413" y="575.434" fill="rgba(0, 0, 0, 0.5)" width="12.562" height="3.375"/>
		<rect x="479.413" y="570.625" fill="rgba(0, 0, 0, 0.5)" width="12.562" height="3.375"/>
		<rect x="479.413" y="565.816" fill="rgba(0, 0, 0, 0.5)" width="12.562" height="3.375"/>
		<rect x="479.413" y="561.014" fill="rgba(0, 0, 0, 0.5)" width="12.562" height="3.375"/>
	</g>
	<g>
		<path fill="none" stroke="rgba(0, 0, 0, 0.3)" stroke-linecap="round" d="M26.898,597.566V557.67c0-0.988-0.81-1.803-1.799-1.803H10.573
			c-0.99,0-1.8,0.812-1.8,1.803v48.646c0,0.983,0.81,1.801,1.8,1.801h14.526c0.989,0,1.799-0.812,1.799-1.801v-3.062"/>
	</g>
	<g>
		<rect x="11.556" y="561.074" fill="rgba(0, 0, 0, 0.5)" width="12.562" height="3.375"/>
		<rect x="11.556" y="565.883" fill="rgba(0, 0, 0, 0.5)" width="12.562" height="3.375"/>
		<rect x="11.556" y="570.689" fill="rgba(0, 0, 0, 0.5)" width="12.562" height="3.375"/>
		<rect x="11.556" y="575.496" fill="rgba(0, 0, 0, 0.5)" width="12.562" height="3.375"/>
		<rect x="11.556" y="580.305" fill="rgba(0, 0, 0, 0.5)" width="12.562" height="3.375"/>
		<rect x="11.556" y="585.111" fill="rgba(0, 0, 0, 0.5)" width="12.562" height="3.375"/>
		<rect x="11.556" y="589.92" fill="rgba(0, 0, 0, 0.5)" width="12.562" height="3.375"/>
		<rect x="11.556" y="594.729" fill="rgba(0, 0, 0, 0.5)" width="12.562" height="3.375"/>
		<rect x="11.556" y="599.533" fill="rgba(0, 0, 0, 0.5)" width="12.562" height="3.375"/>
	</g>
	<g>
		<path fill="none" stroke="rgba(0, 0, 0, 0.3)" stroke-linecap="round" d="M198.694,116.571v-4.49c0-0.991,0.81-1.801,1.799-1.801h48.523
			c0.988,0,1.799,0.812,1.799,1.801v14.525c0,0.989-0.811,1.799-1.799,1.799h-48.523c-0.991,0-1.799-0.812-1.799-1.799v-4.325"/>
	</g>
	<g>
		<path fill="none" stroke="rgba(0, 0, 0, 0.3)" stroke-linecap="round" d="M198.694,116.571"/>
	</g>
	<g>
		<path fill="none" stroke="rgba(0, 0, 0, 0.3)" stroke-linecap="round" d="M198.694,122.279"/>
	</g>
	<g>
		<rect x="242.345" y="113.062" fill="rgba(0, 0, 0, 0.5)" width="3.375" height="12.562"/>
		<rect x="237.538" y="113.062" fill="rgba(0, 0, 0, 0.5)" width="3.375" height="12.562"/>
		<rect x="232.732" y="113.062" fill="rgba(0, 0, 0, 0.5)" width="3.375" height="12.562"/>
		<rect x="227.925" y="113.062" fill="rgba(0, 0, 0, 0.5)" width="3.375" height="12.562"/>
		<rect x="223.117" y="113.062" fill="rgba(0, 0, 0, 0.5)" width="3.375" height="12.562"/>
		<rect x="218.312" y="113.062" fill="rgba(0, 0, 0, 0.5)" width="3.375" height="12.562"/>
		<rect x="213.503" y="113.062" fill="rgba(0, 0, 0, 0.5)" width="3.375" height="12.562"/>
		<rect x="208.695" y="113.062" fill="rgba(0, 0, 0, 0.5)" width="3.375" height="12.562"/>
		<rect x="203.888" y="113.062" fill="rgba(0, 0, 0, 0.5)" width="3.375" height="12.562"/>
	</g>
	<line fill="none" stroke="rgba(0, 0, 0, 0.3)" stroke-linecap="round" x1="194.54" y1="122.645" x2="194.54" y2="137.521"/>
	<g>
		<path fill="none" stroke="rgba(0, 0, 0, 0.3)" stroke-linecap="round" d="M203.615,586.799h-61.816c-0.99,0-1.799-0.812-1.799-1.805v-16.246
			c0-0.988,0.406-2.502,0.903-3.354l10.363-17.855c0.497-0.854,1.714-1.557,2.703-1.557h49.646"/>
	</g>
	<g id="Restroom_icons">
		<g>
			<circle fill="#1C75BC" cx="224.781" cy="182.204" r="9"/>
			<g>
				<path fill="rgba(0, 0, 0, .6)" d="M224.521,181.612l-1.73,3.705c-0.085,0.184,0.048,0.394,0.25,0.394h3.459
					c0.201,0,0.334-0.209,0.248-0.394l-1.727-3.705C224.921,181.399,224.618,181.399,224.521,181.612z"/>
				<path fill="rgba(0, 0, 0, .6)" d="M224.783,178.148c-0.641,0-1.157,0.52-1.157,1.158c0,0.64,0.521,1.158,1.157,1.158
					c0.643,0,1.158-0.519,1.158-1.158C225.941,178.67,225.423,178.148,224.783,178.148z M224.783,179.888
					c-0.32,0-0.58-0.259-0.58-0.58c0-0.321,0.26-0.58,0.58-0.58c0.32,0,0.58,0.259,0.58,0.58
					C225.363,179.628,225.103,179.888,224.783,179.888z"/>
			</g>
		</g>
		<g>
			<circle fill="#1C75BC" cx="224.806" cy="148.519" r="9"/>
			<g>
				<g>
					<g>
						<path fill="rgba(0, 0, 0, .6)" d="M224.796,146.688c-0.611,0-1.109-0.499-1.109-1.111c0-0.613,0.498-1.112,1.109-1.112
							c0.613,0,1.111,0.499,1.111,1.112C225.909,146.191,225.409,146.688,224.796,146.688z M224.796,145.038
							c-0.299,0-0.539,0.242-0.539,0.54c0,0.299,0.24,0.542,0.539,0.542c0.301,0,0.539-0.243,0.539-0.542
							C225.337,145.28,225.095,145.038,224.796,145.038z"/>
					</g>
				</g>
				<g>
					<path fill="rgba(0, 0, 0, .6)" d="M226.378,151.643v-2.438c0-0.833-0.607-1.585-1.438-1.658c-0.939-0.081-1.725,0.656-1.725,1.575v2.521
						c0,0.008,0.008,0.017,0.018,0.017h3.131C226.37,151.659,226.378,151.65,226.378,151.643z"/>
					<path fill="rgba(0, 0, 0, .6)" d="M226.361,152.058h-3.529l-0.016-0.416v-2.521c0-1.151,0.984-2.081,2.158-1.975
						c1.012,0.087,1.807,0.991,1.807,2.056v2.838L226.361,152.058z M223.615,151.259h2.363v-2.054c0-0.654-0.473-1.207-1.076-1.259
						c-0.699-0.062-1.287,0.491-1.289,1.178L223.615,151.259L223.615,151.259z"/>
				</g>
			</g>
		</g>
		<g>
			<g>
				<circle fill="#1C75BC" cx="293.299" cy="649.943" r="9"/>
				<g>
					<path fill="rgba(0, 0, 0, .6)" d="M291.221,648.189c-0.613,0-1.111-0.498-1.111-1.111c0-0.609,0.498-1.107,1.111-1.107
						c0.611,0,1.109,0.498,1.109,1.107C292.334,647.691,291.834,648.189,291.221,648.189z M291.221,646.535
						c-0.299,0-0.541,0.244-0.541,0.543c0,0.303,0.242,0.541,0.541,0.541c0.299,0,0.539-0.238,0.539-0.541
						C291.76,646.779,291.52,646.535,291.221,646.535z"/>
				</g>
				<g>
					<path fill="rgba(0, 0, 0, .6)" d="M292.803,653.279v-2.438c0-0.834-0.609-1.586-1.441-1.658c-0.936-0.081-1.722,0.654-1.722,1.576v2.521
						c0,0.01,0.006,0.021,0.016,0.021h3.141C292.797,653.297,292.803,653.291,292.803,653.279z"/>
					<path fill="rgba(0, 0, 0, .6)" d="M292.788,653.695h-3.529l-0.02-0.418v-2.521c0-1.146,0.986-2.076,2.158-1.977
						c1.012,0.092,1.805,0.983,1.805,2.059v2.836L292.788,653.695z M290.04,652.896h2.363v-2.06c0-0.647-0.473-1.209-1.076-1.26
						c-0.695-0.062-1.289,0.487-1.289,1.178L290.04,652.896L290.04,652.896z"/>
				</g>
				<circle fill="#1C75BC" cx="295.118" cy="651.188" r="2.782"/>
				<path fill="rgba(0, 0, 0, .6)" d="M295.174,645.916c-0.641,0-1.158,0.521-1.158,1.158c0,0.643,0.521,1.156,1.158,1.156
					c0.641,0,1.156-0.521,1.156-1.156C296.331,646.436,295.813,645.916,295.174,645.916z M295.174,647.654
					c-0.32,0-0.58-0.267-0.58-0.58c0-0.314,0.26-0.576,0.58-0.576c0.318,0,0.576,0.262,0.576,0.576
					C295.752,647.396,295.493,647.654,295.174,647.654z"/>
				<g>
					<path fill="rgba(0, 0, 0, .6)" d="M297.174,651.52c-0.187,1.084-1.201,1.888-2.371,1.701c-0.875-0.137-1.586-0.846-1.721-1.721
						c-0.181-1.162,0.608-2.182,1.688-2.369l0.004,1.723c0,0.373,0.312,0.681,0.688,0.681L297.174,651.52z"/>
					<path fill="rgba(0, 0, 0, .6)" d="M295.131,653.646c-0.131,0-0.262-0.017-0.389-0.031c-1.052-0.16-1.896-1.004-2.058-2.053
						c-0.207-1.354,0.676-2.595,2.01-2.824c0.115-0.021,0.236,0.01,0.326,0.086c0.092,0.076,0.146,0.188,0.146,0.309l0.006,1.728
						c0,0.146,0.125,0.271,0.272,0.271l1.728-0.006l0,0c0.115,0,0.229,0.055,0.305,0.145c0.076,0.097,0.109,0.209,0.09,0.322
						C297.368,652.779,296.342,653.646,295.131,653.646z M294.37,649.682c-0.629,0.32-1.006,1.021-0.891,1.769
						c0.109,0.705,0.68,1.271,1.387,1.383c0.758,0.113,1.449-0.273,1.766-0.902l-1.178,0.007c-0.596,0-1.076-0.479-1.078-1.066
						L294.37,649.682z"/>
				</g>
			</g>
			<g>
				<path fill="rgba(0, 0, 0, .6)" d="M297.174,650.953h-1.557c-0.16,0-0.285-0.129-0.285-0.281v-1.594c0-0.154,0.131-0.281,0.285-0.281
					c0.157,0,0.284,0.129,0.284,0.281v1.305h1.271c0.154,0,0.279,0.129,0.279,0.289
					C297.461,650.824,297.333,650.953,297.174,650.953z"/>
			</g>
		</g>
	</g>
	
	<g>
		<path fill="rgba(0, 0, 0, .6)" d="M267.55,56.646h-1.824l-0.547-2.486c-0.021-0.104-0.062-0.312-0.123-0.621
			c-0.059-0.311-0.1-0.569-0.125-0.777c-0.021,0.168-0.053,0.38-0.104,0.631c-0.047,0.251-0.094,0.481-0.137,0.692
			c-0.045,0.211-0.234,1.064-0.568,2.562H262.3l-1.414-5.711h1.486l0.621,2.863c0.145,0.632,0.236,1.137,0.289,1.512
			c0.033-0.265,0.098-0.626,0.186-1.082c0.086-0.456,0.168-0.833,0.242-1.133l0.504-2.16h1.43l0.488,2.16
			c0.084,0.347,0.168,0.747,0.254,1.199c0.088,0.453,0.146,0.793,0.172,1.017c0.033-0.289,0.127-0.791,0.275-1.504l0.633-2.872
			h1.486L267.55,56.646z"/>
		<path fill="rgba(0, 0, 0, .6)" d="M270.493,56.646v-5.711h1.553v5.711H270.493z"/>
		<path fill="rgba(0, 0, 0, .6)" d="M279.517,56.646h-2.021l-2.086-4.022h-0.035c0.053,0.634,0.072,1.116,0.072,1.449v2.575h-1.365v-5.711
			h2.02l2.08,3.969h0.021c-0.035-0.576-0.057-1.038-0.057-1.388v-2.581h1.375v5.709H279.517z"/>
		<path fill="rgba(0, 0, 0, .6)" d="M286.397,53.668c0,0.953-0.264,1.688-0.785,2.203c-0.523,0.516-1.264,0.772-2.215,0.772h-1.848v-5.711
			h1.977c0.916,0,1.623,0.233,2.123,0.704C286.149,52.104,286.397,52.784,286.397,53.668z M284.798,53.724
			c0-0.521-0.105-0.912-0.312-1.164c-0.209-0.252-0.52-0.379-0.938-0.379h-0.445v3.2h0.342c0.475,0,0.812-0.137,1.031-0.408
			C284.688,54.698,284.798,54.283,284.798,53.724z"/>
		<path fill="rgba(0, 0, 0, .6)" d="M293.563,53.78c0,0.962-0.234,1.688-0.707,2.188c-0.469,0.5-1.16,0.75-2.068,0.75
			c-0.894,0-1.582-0.251-2.06-0.754c-0.479-0.502-0.717-1.234-0.717-2.195c0-0.952,0.236-1.677,0.713-2.179
			c0.477-0.5,1.166-0.753,2.072-0.753s1.598,0.25,2.061,0.747C293.329,52.086,293.563,52.817,293.563,53.78z M289.636,53.78
			c0,1.104,0.385,1.655,1.15,1.655c0.393,0,0.683-0.134,0.869-0.401c0.188-0.27,0.281-0.687,0.281-1.256
			c0-0.569-0.096-0.992-0.287-1.264c-0.191-0.271-0.477-0.408-0.857-0.408C290.022,52.109,289.636,52.666,289.636,53.78z"/>
		<path fill="rgba(0, 0, 0, .6)" d="M301.563,56.646h-1.822l-0.549-2.486c-0.025-0.104-0.066-0.312-0.121-0.621
			c-0.057-0.311-0.098-0.569-0.125-0.777c-0.02,0.168-0.055,0.38-0.102,0.631c-0.047,0.252-0.096,0.481-0.141,0.692
			s-0.232,1.064-0.566,2.562h-1.822l-1.414-5.711h1.488l0.621,2.863c0.141,0.632,0.234,1.137,0.289,1.512
			c0.031-0.265,0.096-0.626,0.182-1.082c0.088-0.456,0.168-0.833,0.244-1.133l0.504-2.16h1.43l0.486,2.16
			c0.084,0.347,0.168,0.747,0.254,1.199c0.086,0.453,0.143,0.793,0.172,1.017c0.033-0.289,0.127-0.791,0.277-1.504l0.631-2.872
			h1.488L301.563,56.646z"/>
		<path fill="rgba(0, 0, 0, .6)" d="M308.243,54.91c0,0.354-0.092,0.667-0.27,0.942c-0.184,0.275-0.439,0.488-0.777,0.641
			c-0.338,0.151-0.734,0.229-1.189,0.229c-0.381,0-0.698-0.027-0.957-0.079c-0.26-0.053-0.526-0.146-0.809-0.278V54.99
			c0.297,0.151,0.604,0.271,0.918,0.354c0.318,0.084,0.609,0.127,0.875,0.127c0.23,0,0.398-0.04,0.504-0.119
			c0.107-0.079,0.16-0.181,0.16-0.306c0-0.078-0.02-0.146-0.061-0.205c-0.041-0.06-0.111-0.118-0.207-0.178
			c-0.1-0.062-0.352-0.184-0.764-0.367c-0.369-0.168-0.648-0.332-0.84-0.492c-0.189-0.159-0.32-0.341-0.412-0.546
			c-0.104-0.207-0.146-0.45-0.146-0.73c0-0.525,0.191-0.936,0.574-1.229s0.908-0.441,1.578-0.441c0.592,0,1.193,0.138,1.809,0.41
			l-0.475,1.191c-0.531-0.245-0.994-0.367-1.383-0.367c-0.199,0-0.348,0.035-0.438,0.104c-0.093,0.07-0.138,0.159-0.138,0.263
			c0,0.111,0.06,0.211,0.175,0.3c0.116,0.089,0.433,0.251,0.942,0.484c0.492,0.221,0.834,0.459,1.02,0.713
			C308.145,54.207,308.243,54.525,308.243,54.91z"/>
		<path fill="rgba(0, 0, 0, .6)" d="M312.805,56.646v-5.711h1.543v4.464h2.199v1.247H312.805L312.805,56.646z"/>
		<path fill="rgba(0, 0, 0, .6)" d="M321.764,56.646l-0.281-1.069h-1.854l-0.289,1.069h-1.695l1.863-5.732h2.059l1.887,5.732H321.764z
			 M321.163,54.31l-0.246-0.938c-0.057-0.208-0.127-0.479-0.209-0.809c-0.082-0.331-0.137-0.566-0.162-0.712
			c-0.021,0.134-0.064,0.354-0.141,0.656c-0.064,0.305-0.223,0.905-0.459,1.801L321.163,54.31L321.163,54.31z"/>
		<path fill="rgba(0, 0, 0, .6)" d="M324.868,50.935h1.992c0.775,0,1.354,0.114,1.729,0.346c0.377,0.229,0.562,0.59,0.562,1.075
			c0,0.321-0.082,0.594-0.246,0.821c-0.164,0.226-0.381,0.374-0.646,0.438v0.038c0.355,0.095,0.609,0.25,0.771,0.47
			c0.16,0.219,0.234,0.502,0.234,0.851c0,0.518-0.191,0.926-0.584,1.225c-0.391,0.299-0.92,0.446-1.592,0.446h-2.225v-5.709
			L324.868,50.935L324.868,50.935z M326.411,53.125h0.465c0.225,0,0.396-0.044,0.516-0.138c0.121-0.092,0.189-0.227,0.189-0.404
			c0-0.321-0.242-0.479-0.73-0.479h-0.436v1.021H326.411z M326.411,54.254v1.199h0.545c0.48,0,0.725-0.204,0.725-0.608
			c0-0.188-0.061-0.337-0.193-0.438c-0.127-0.102-0.312-0.151-0.562-0.151L326.411,54.254L326.411,54.254z"/>
	</g>
	<g>
		<path fill="rgba(0, 0, 0, .6)" d="M355.254,53.668c0,0.953-0.264,1.688-0.789,2.203c-0.525,0.515-1.262,0.772-2.211,0.772h-1.852v-5.711
			h1.979c0.918,0,1.623,0.233,2.123,0.702C355.004,52.106,355.254,52.784,355.254,53.668z M353.653,53.724
			c0-0.521-0.104-0.912-0.311-1.164c-0.209-0.252-0.521-0.379-0.943-0.379h-0.449v3.2h0.344c0.471,0,0.812-0.137,1.031-0.408
			C353.543,54.698,353.653,54.283,353.653,53.724z"/>
		<path fill="rgba(0, 0, 0, .6)" d="M360.581,56.646l-0.279-1.069h-1.854l-0.289,1.069h-1.693l1.861-5.732h2.061l1.889,5.732H360.581z
			 M359.979,54.31l-0.246-0.938c-0.057-0.208-0.127-0.479-0.209-0.809c-0.082-0.331-0.137-0.566-0.162-0.712
			c-0.02,0.134-0.07,0.354-0.139,0.656c-0.068,0.302-0.225,0.905-0.459,1.801L359.979,54.31L359.979,54.31z"/>
		<path fill="rgba(0, 0, 0, .6)" d="M366.206,56.646h-1.543v-4.45h-1.395v-1.263h4.328v1.263h-1.395L366.206,56.646L366.206,56.646z"/>
		<path fill="rgba(0, 0, 0, .6)" d="M372.717,56.646l-0.281-1.069h-1.854l-0.291,1.069H368.6l1.859-5.732h2.061l1.896,5.732H372.717z
			 M372.114,54.31l-0.246-0.938c-0.057-0.208-0.127-0.479-0.209-0.809c-0.08-0.331-0.135-0.566-0.162-0.712
			c-0.021,0.134-0.068,0.354-0.139,0.656c-0.072,0.302-0.223,0.905-0.459,1.801L372.114,54.31L372.114,54.31z"/>
		<path fill="rgba(0, 0, 0, .6)" d="M382.434,54.91c0,0.354-0.09,0.667-0.271,0.942c-0.18,0.275-0.438,0.488-0.771,0.641
			c-0.34,0.151-0.734,0.229-1.188,0.229c-0.385,0-0.699-0.027-0.959-0.079c-0.26-0.053-0.523-0.146-0.809-0.278V54.99
			c0.293,0.151,0.604,0.271,0.918,0.354c0.314,0.086,0.605,0.127,0.875,0.127c0.23,0,0.396-0.04,0.504-0.119
			c0.105-0.078,0.16-0.181,0.16-0.306c0-0.078-0.02-0.146-0.061-0.205c-0.043-0.06-0.109-0.118-0.207-0.178
			c-0.105-0.062-0.355-0.184-0.771-0.367c-0.373-0.168-0.645-0.332-0.836-0.492c-0.188-0.159-0.314-0.341-0.414-0.546
			c-0.092-0.207-0.135-0.45-0.135-0.73c0-0.525,0.189-0.936,0.568-1.229c0.387-0.293,0.906-0.441,1.576-0.441
			c0.598,0,1.191,0.138,1.811,0.41l-0.477,1.191c-0.531-0.245-0.992-0.367-1.391-0.367c-0.191,0-0.348,0.035-0.438,0.104
			c-0.098,0.07-0.145,0.159-0.145,0.263c0,0.111,0.062,0.211,0.18,0.3c0.109,0.089,0.432,0.251,0.938,0.484
			c0.492,0.221,0.834,0.459,1.027,0.713C382.336,54.207,382.434,54.525,382.434,54.91z"/>
		<path fill="rgba(0, 0, 0, .6)" d="M386.637,56.646h-1.543v-4.45h-1.396v-1.263h4.328v1.263h-1.393L386.637,56.646L386.637,56.646z"/>
		<path fill="rgba(0, 0, 0, .6)" d="M394.499,50.935v3.438c0,0.748-0.211,1.325-0.635,1.735c-0.424,0.41-1.031,0.615-1.83,0.615
			c-0.775,0-1.377-0.199-1.795-0.597c-0.416-0.399-0.627-0.973-0.627-1.721v-3.474h1.553v3.354c0,0.402,0.076,0.696,0.229,0.878
			c0.148,0.183,0.373,0.272,0.666,0.272c0.312,0,0.547-0.09,0.689-0.27c0.145-0.182,0.213-0.478,0.213-0.891v-3.343L394.499,50.935
			L394.499,50.935z"/>
		<path fill="rgba(0, 0, 0, .6)" d="M401.346,53.668c0,0.953-0.264,1.688-0.787,2.203c-0.527,0.515-1.262,0.772-2.215,0.772h-1.852v-5.711
			h1.979c0.916,0,1.625,0.233,2.121,0.702C401.094,52.106,401.346,52.784,401.346,53.668z M399.743,53.724
			c0-0.521-0.102-0.912-0.311-1.164c-0.207-0.252-0.521-0.379-0.943-0.379h-0.447v3.2h0.346c0.471,0,0.812-0.137,1.029-0.408
			C399.635,54.698,399.743,54.283,399.743,53.724z"/>
		<path fill="rgba(0, 0, 0, .6)" d="M403.17,56.646v-5.711h1.551v5.711H403.17z"/>
		<path fill="rgba(0, 0, 0, .6)" d="M412.098,53.78c0,0.962-0.234,1.688-0.707,2.188s-1.162,0.75-2.068,0.75c-0.895,0-1.584-0.251-2.061-0.754
			c-0.479-0.503-0.721-1.234-0.721-2.195c0-0.952,0.229-1.677,0.717-2.179c0.475-0.502,1.166-0.753,2.068-0.753
			c0.895,0,1.602,0.25,2.061,0.747C411.862,52.086,412.098,52.817,412.098,53.78z M408.17,53.78c0,1.104,0.385,1.655,1.148,1.655
			c0.391,0,0.68-0.134,0.869-0.401c0.188-0.27,0.281-0.687,0.281-1.256c0-0.569-0.102-0.992-0.287-1.264
			c-0.191-0.271-0.479-0.408-0.855-0.408C408.555,52.109,408.17,52.666,408.17,53.78z"/>
		<path fill="rgba(0, 0, 0, .6)" d="M413.647,52.911c0-0.237,0.072-0.422,0.215-0.552c0.146-0.132,0.352-0.194,0.617-0.194
			c0.258,0,0.455,0.064,0.594,0.194c0.141,0.13,0.207,0.314,0.207,0.552c0,0.232-0.07,0.418-0.211,0.551
			c-0.143,0.133-0.338,0.198-0.592,0.198c-0.268,0-0.471-0.066-0.613-0.198C413.719,53.328,413.647,53.146,413.647,52.911z
			 M413.647,55.997c0-0.24,0.072-0.425,0.213-0.557c0.143-0.132,0.348-0.194,0.619-0.194c0.258,0,0.455,0.064,0.594,0.194
			c0.141,0.13,0.207,0.316,0.207,0.557c0,0.232-0.072,0.418-0.213,0.549c-0.141,0.132-0.338,0.197-0.588,0.197
			c-0.258,0-0.463-0.065-0.609-0.195C413.723,56.417,413.647,56.232,413.647,55.997z"/>
		<path fill="rgba(0, 0, 0, .6)" d="M422.211,53.301h2.467v3.078c-0.668,0.229-1.404,0.343-2.207,0.343c-0.881,0-1.561-0.254-2.039-0.765
			c-0.479-0.511-0.725-1.239-0.725-2.185c0-0.923,0.266-1.639,0.789-2.151c0.527-0.514,1.268-0.771,2.215-0.771
			c0.357,0,0.695,0.034,1.018,0.103c0.322,0.067,0.605,0.153,0.834,0.259l-0.479,1.21c-0.412-0.202-0.859-0.305-1.355-0.305
			c-0.449,0-0.799,0.146-1.043,0.438c-0.246,0.294-0.367,0.711-0.367,1.256c0,0.534,0.105,0.94,0.332,1.223
			c0.229,0.28,0.545,0.421,0.963,0.421c0.23,0,0.439-0.022,0.635-0.067v-0.894h-1.02v-1.191h-0.008v-0.002H422.211z"/>
		<path fill="rgba(0, 0, 0, .6)" d="M426.641,56.646v-5.711h1.553v5.711H426.641z"/>
		<path fill="rgba(0, 0, 0, .6)" d="M433.961,54.91c0,0.354-0.092,0.667-0.271,0.942c-0.178,0.275-0.438,0.488-0.77,0.641
			c-0.34,0.151-0.732,0.229-1.189,0.229c-0.381,0-0.691-0.027-0.959-0.079c-0.256-0.053-0.52-0.146-0.805-0.278V54.99
			c0.295,0.151,0.6,0.271,0.918,0.354c0.311,0.084,0.604,0.127,0.875,0.127c0.229,0,0.395-0.04,0.504-0.119
			c0.105-0.079,0.16-0.181,0.16-0.306c0-0.078-0.021-0.146-0.062-0.205c-0.043-0.06-0.104-0.118-0.207-0.178
			c-0.098-0.062-0.35-0.184-0.762-0.367c-0.373-0.168-0.646-0.332-0.838-0.492c-0.188-0.16-0.324-0.341-0.414-0.546
			c-0.092-0.207-0.139-0.45-0.139-0.73c0-0.525,0.188-0.936,0.568-1.229c0.387-0.293,0.906-0.441,1.578-0.441
			c0.594,0,1.191,0.138,1.811,0.41l-0.479,1.191c-0.529-0.245-0.994-0.367-1.383-0.367c-0.199,0-0.348,0.035-0.438,0.104
			c-0.104,0.07-0.146,0.159-0.146,0.263c0,0.111,0.062,0.211,0.176,0.3c0.111,0.089,0.438,0.251,0.941,0.484
			c0.492,0.221,0.834,0.459,1.023,0.713C433.864,54.207,433.961,54.525,433.961,54.91z"/>
		<path fill="rgba(0, 0, 0, .6)" d="M442.36,56.646l-0.385-0.396c-0.234,0.147-0.428,0.25-0.576,0.307c-0.15,0.056-0.316,0.098-0.504,0.127
			c-0.189,0.03-0.396,0.043-0.639,0.043c-0.412,0-0.773-0.07-1.098-0.211c-0.312-0.141-0.562-0.336-0.73-0.591
			c-0.166-0.252-0.25-0.542-0.25-0.862c0-0.681,0.355-1.206,1.061-1.565c-0.158-0.184-0.285-0.375-0.379-0.58
			c-0.09-0.205-0.135-0.437-0.135-0.694c0-0.416,0.16-0.748,0.482-0.993c0.311-0.245,0.764-0.367,1.318-0.367
			c0.557,0,0.979,0.122,1.279,0.365c0.312,0.243,0.459,0.575,0.459,0.993c0,0.289-0.082,0.558-0.248,0.804
			c-0.166,0.246-0.426,0.478-0.77,0.692l0.77,0.739c0.195-0.3,0.332-0.64,0.406-1.018h1.586c-0.078,0.359-0.201,0.719-0.369,1.08
			c-0.166,0.362-0.354,0.67-0.561,0.927l1.25,1.199L442.36,56.646L442.36,56.646z M439.76,54.95c0,0.163,0.059,0.299,0.176,0.401
			c0.117,0.105,0.271,0.156,0.465,0.156c0.148,0,0.279-0.02,0.396-0.06c0.107-0.037,0.197-0.083,0.262-0.132l-0.975-0.984
			C439.868,54.49,439.76,54.696,439.76,54.95z M440.913,52.22c0-0.127-0.037-0.219-0.109-0.275
			c-0.072-0.056-0.166-0.084-0.277-0.084c-0.105,0-0.205,0.033-0.287,0.1c-0.084,0.064-0.123,0.168-0.123,0.311
			c0,0.195,0.113,0.397,0.354,0.605c0.146-0.083,0.27-0.184,0.346-0.298C440.874,52.461,440.913,52.342,440.913,52.22z"/>
		<path fill="rgba(0, 0, 0, .6)" d="M451.081,56.646l-1.168-4.112h-0.033c0.059,0.699,0.082,1.244,0.082,1.633v2.479h-1.365v-5.711h2.057
			l1.189,4.055h0.031l1.166-4.055h2.061v5.711h-1.418v-2.504c0-0.13,0.002-0.274,0.008-0.434c0.004-0.161,0.02-0.548,0.061-1.169
			h-0.035l-1.146,4.104h-1.477L451.081,56.646L451.081,56.646z"/>
		<path fill="rgba(0, 0, 0, .6)" d="M460.629,56.646l-0.281-1.069h-1.854l-0.291,1.069h-1.691l1.859-5.732h2.061l1.887,5.732H460.629z
			 M460.028,54.31l-0.246-0.938c-0.057-0.208-0.125-0.479-0.207-0.809c-0.084-0.331-0.139-0.566-0.164-0.712
			c-0.021,0.134-0.068,0.354-0.139,0.656c-0.07,0.305-0.225,0.905-0.459,1.801L460.028,54.31L460.028,54.31z"/>
		<path fill="rgba(0, 0, 0, .6)" d="M467.879,52.75c0,0.637-0.189,1.13-0.564,1.479c-0.377,0.349-0.91,0.521-1.604,0.521h-0.436v1.895h-1.543
			v-5.711h1.979c0.725,0,1.268,0.159,1.625,0.475C467.698,51.721,467.879,52.169,467.879,52.75z M465.276,53.492h0.281
			c0.229,0,0.418-0.065,0.555-0.195s0.205-0.311,0.205-0.538c0-0.386-0.215-0.578-0.641-0.578h-0.398v1.312L465.276,53.492
			L465.276,53.492z"/>
		<path fill="rgba(0, 0, 0, .6)" d="M473.323,54.91c0,0.354-0.09,0.667-0.27,0.942c-0.184,0.275-0.439,0.488-0.777,0.641
			c-0.338,0.151-0.734,0.229-1.189,0.229c-0.381,0-0.697-0.027-0.957-0.079c-0.26-0.053-0.523-0.146-0.807-0.278V54.99
			c0.295,0.151,0.602,0.271,0.918,0.354c0.318,0.084,0.609,0.127,0.875,0.127c0.23,0,0.396-0.04,0.504-0.119s0.16-0.181,0.16-0.306
			c0-0.078-0.021-0.146-0.062-0.205c-0.041-0.06-0.109-0.118-0.207-0.178c-0.098-0.062-0.35-0.184-0.764-0.367
			c-0.367-0.168-0.646-0.332-0.836-0.492c-0.186-0.159-0.322-0.341-0.416-0.546c-0.09-0.207-0.135-0.45-0.135-0.73
			c0-0.525,0.191-0.936,0.574-1.229s0.908-0.441,1.578-0.441c0.592,0,1.189,0.138,1.809,0.41l-0.473,1.191
			c-0.533-0.245-0.994-0.367-1.383-0.367c-0.201,0-0.355,0.035-0.439,0.104c-0.092,0.07-0.137,0.159-0.137,0.263
			c0,0.111,0.059,0.211,0.174,0.3c0.115,0.089,0.43,0.251,0.943,0.484c0.488,0.221,0.832,0.459,1.02,0.713
			C473.225,54.207,473.323,54.525,473.323,54.91z"/>
	</g>
	<g>
		<path fill="rgba(0, 0, 0, .6)" d="M289.501,453.75c0,0.639-0.188,1.133-0.561,1.48c-0.377,0.35-0.912,0.52-1.605,0.52h-0.434v1.896h-1.543
			v-5.718h1.977c0.723,0,1.266,0.156,1.625,0.479C289.321,452.721,289.501,453.17,289.501,453.75z M286.899,454.492h0.281
			c0.23,0,0.416-0.062,0.553-0.191c0.137-0.129,0.205-0.312,0.205-0.537c0-0.389-0.213-0.578-0.641-0.578h-0.396v1.312
			L286.899,454.492L286.899,454.492z"/>
		<path fill="rgba(0, 0, 0, .6)" d="M296.555,454.781c0,0.961-0.234,1.688-0.705,2.188c-0.471,0.498-1.162,0.75-2.07,0.75
			c-0.895,0-1.584-0.252-2.061-0.756c-0.48-0.502-0.719-1.229-0.719-2.188c0-0.951,0.229-1.685,0.717-2.185
			c0.475-0.502,1.166-0.754,2.068-0.754c0.896,0,1.602,0.248,2.061,0.746C296.321,453.088,296.555,453.818,296.555,454.781z
			 M292.625,454.781c0,1.104,0.387,1.656,1.151,1.656c0.394,0,0.681-0.142,0.869-0.402c0.188-0.271,0.283-0.688,0.283-1.254
			c0-0.564-0.103-0.992-0.289-1.271c-0.188-0.271-0.479-0.401-0.856-0.401C293.012,453.109,292.625,453.666,292.625,454.781z"/>
		<path fill="rgba(0, 0, 0, .6)" d="M298.387,457.646v-5.718h1.543v4.472h2.199v1.246H298.387z"/>
		<path fill="rgba(0, 0, 0, .6)" d="M305.881,454.053l0.984-2.117h1.672l-1.879,3.479v2.229h-1.556v-2.186l-1.879-3.525h1.68L305.881,454.053z
			"/>
		<path fill="rgba(0, 0, 0, .6)" d="M312.499,453.115c-0.365,0-0.652,0.146-0.857,0.451c-0.203,0.301-0.311,0.715-0.311,1.237
			c0,1.104,0.418,1.648,1.256,1.648c0.254,0,0.496-0.035,0.732-0.105c0.236-0.062,0.479-0.147,0.715-0.254v1.312
			c-0.477,0.211-1.016,0.312-1.617,0.312c-0.859,0-1.52-0.25-1.98-0.75c-0.459-0.5-0.688-1.225-0.688-2.168
			c0-0.592,0.109-1.104,0.334-1.561c0.227-0.447,0.543-0.793,0.961-1.029c0.418-0.242,0.91-0.363,1.48-0.363
			c0.617,0,1.207,0.142,1.77,0.402l-0.473,1.217c-0.213-0.102-0.424-0.186-0.635-0.252
			C312.967,453.15,312.741,453.115,312.499,453.115z"/>
		<path fill="rgba(0, 0, 0, .6)" d="M321.29,454.781c0,0.961-0.232,1.688-0.707,2.188c-0.471,0.498-1.16,0.75-2.068,0.75
			c-0.895,0-1.584-0.252-2.061-0.756c-0.48-0.502-0.721-1.229-0.721-2.188c0-0.951,0.238-1.685,0.715-2.185
			c0.48-0.502,1.164-0.754,2.07-0.754c0.91,0,1.6,0.248,2.064,0.746C321.057,453.088,321.29,453.818,321.29,454.781z
			 M317.36,454.781c0,1.104,0.385,1.656,1.152,1.656c0.391,0,0.68-0.142,0.869-0.402c0.188-0.271,0.277-0.688,0.277-1.254
			c0-0.564-0.105-0.992-0.287-1.271c-0.189-0.271-0.48-0.401-0.855-0.401C317.749,453.109,317.36,453.666,317.36,454.781z"/>
		<path fill="rgba(0, 0, 0, .6)" d="M328.559,457.646h-2.021l-2.086-4.021h-0.035c0.053,0.633,0.074,1.113,0.074,1.447v2.574h-1.367v-5.718
			h2.02l2.08,3.976h0.021c-0.035-0.576-0.057-1.037-0.057-1.394v-2.582h1.375v5.714L328.559,457.646L328.559,457.646z"/>
		<path fill="rgba(0, 0, 0, .6)" d="M336.032,457.646h-2.021l-2.086-4.021h-0.035c0.053,0.633,0.072,1.113,0.072,1.447v2.574h-1.365v-5.718
			h2.018l2.08,3.976h0.02c-0.037-0.576-0.057-1.037-0.057-1.394v-2.582h1.375V457.646L336.032,457.646z"/>
		<path fill="rgba(0, 0, 0, .6)" d="M341.458,457.646h-3.391v-5.718h3.391v1.236h-1.85v0.896h1.711v1.232h-1.711v1.078h1.85V457.646z"/>
		<path fill="rgba(0, 0, 0, .6)" d="M345.799,453.115c-0.367,0-0.654,0.146-0.859,0.451c-0.205,0.301-0.311,0.715-0.311,1.237
			c0,1.104,0.418,1.648,1.256,1.648c0.252,0,0.496-0.035,0.732-0.105c0.232-0.062,0.477-0.147,0.713-0.254v1.312
			c-0.475,0.211-1.016,0.312-1.615,0.312c-0.861,0-1.521-0.25-1.982-0.75c-0.459-0.5-0.688-1.225-0.688-2.168
			c0-0.592,0.109-1.104,0.33-1.561c0.225-0.445,0.545-0.793,0.963-1.029c0.418-0.242,0.908-0.363,1.477-0.363
			c0.617,0,1.207,0.142,1.771,0.402l-0.475,1.217c-0.213-0.102-0.424-0.186-0.637-0.252
			C346.27,453.15,346.042,453.115,345.799,453.115z"/>
		<path fill="rgba(0, 0, 0, .6)" d="M351.768,457.646h-1.545v-4.449h-1.396v-1.269h4.328v1.269h-1.389L351.768,457.646L351.768,457.646z"/>
		<path fill="rgba(0, 0, 0, .6)" d="M357.653,457.646v-5.718h1.543v4.472h2.199v1.246H357.653z"/>
		<path fill="rgba(0, 0, 0, .6)" d="M366.614,457.646l-0.281-1.07h-1.854l-0.289,1.07h-1.695l1.863-5.734h2.059l1.889,5.734H366.614z
			 M366.01,455.311l-0.246-0.938c-0.059-0.209-0.127-0.479-0.209-0.809c-0.082-0.332-0.135-0.568-0.162-0.718
			c-0.02,0.14-0.07,0.354-0.139,0.656c-0.07,0.302-0.225,0.898-0.459,1.801L366.01,455.311L366.01,455.311z"/>
		<path fill="rgba(0, 0, 0, .6)" d="M369.717,451.936h1.99c0.775,0,1.354,0.113,1.73,0.353c0.375,0.229,0.561,0.59,0.561,1.076
			c0,0.313-0.078,0.594-0.244,0.813c-0.162,0.229-0.381,0.371-0.646,0.438v0.037c0.355,0.098,0.611,0.25,0.771,0.469
			c0.16,0.223,0.238,0.504,0.238,0.854c0,0.521-0.191,0.933-0.588,1.229c-0.391,0.301-0.92,0.447-1.592,0.447h-2.225v-5.72
			L369.717,451.936L369.717,451.936z M371.26,454.125h0.463c0.221,0,0.396-0.049,0.516-0.141c0.121-0.099,0.189-0.229,0.189-0.406
			c0-0.316-0.24-0.479-0.73-0.479h-0.434v1.026H371.26z M371.26,455.254v1.197h0.543c0.48,0,0.723-0.203,0.723-0.605
			c0-0.188-0.061-0.338-0.188-0.438c-0.129-0.104-0.312-0.15-0.562-0.15L371.26,455.254L371.26,455.254z"/>
	</g>
	<g>
		<g>
			<line fill="none" stroke="rgba(0, 0, 0, .6)" x1="266.665" y1="94.252" x2="266.665" y2="60.409"/>
			<g>
				<circle fill="rgba(0, 0, 0, .6)" cx="266.665" cy="94.205" r="0.94"/>
			</g>
		</g>
	</g>
	<g>
		<g>
			<line fill="none" stroke="rgba(0, 0, 0, .6)" x1="355.165" y1="79.251" x2="355.165" y2="60.409"/>
			<g>
				<circle fill="rgba(0, 0, 0, .6)" cx="355.165" cy="79.205" r="0.94"/>
			</g>
		</g>
	</g>
</g>
</svg>
