<?xml version="1.0" encoding="utf-8"?>
<!-- Generator: Adobe Illustrator 16.0.4, SVG Export Plug-In . SVG Version: 6.00 Build 0)  -->
<!DOCTYPE svg PUBLIC "-//W3C//DTD SVG 1.1//EN" "http://www.w3.org/Graphics/SVG/1.1/DTD/svg11.dtd">
<svg version="1.1" id="Layer_1" xmlns="http://www.w3.org/2000/svg" xmlns:xlink="http://www.w3.org/1999/xlink" x="0px" y="0px"
    xml:space="preserve">
<g xmlns="http://www.w3.org/2000/svg" class="vor"><path class="q0" opacity="0.25" fill="rgb(197, 27, 195)" d="M1000000,11459.85869022613L3024.007103591854,472.33416562658795L617.396060762412,496.496927100779L398.8249469645832,596.0942223245876L248.23687900067353,971.955627401569L-159704.12171973306,1000000L1000000,1000000Z"/><path opacity="0.25" fill="rgb(222,119,174)" class="q1" d="M225.62144106601465,105.14639834466497L364.1401494955049,232.48849435877554L893846.9560784688,-1000000L24906.61276968004,-1000000Z"/><path opacity="0.25" fill="rgb(241,182,218)" class="q2" d="M351.41266984696574,339.5824781977762L617.396060762412,496.496927100779L3024.007103591854,472.33416562658795L365.29995037482024,236.2804947629451Z"/><path opacity="0.25" fill="rgb(255, 155, 207)" class="q3" d="M-159704.12171973306,1000000L248.23687900067353,971.955627401569L166.33983994491666,465.8090830207958L-1096.9221861484955,480.5384705538833L-1000000,95842.60435741639L-1000000,1000000Z"/><path opacity="0.25" fill="rgb(255, 50, 50)" class="q4" d="M153.42457298226992,180.9614902619052L207.91990112177695,437.8582496180726L351.41266984696574,339.5824781977762L365.29995037482024,236.2804947629451L364.1401494955049,232.48849435877554L225.62144106601465,105.14639834466497Z"/><path opacity="0.25" fill="rgb(127,188,65)" class="q5" d="M-1096.9221861484955,480.5384705538833L166.33983994491666,465.8090830207958L201.53953966740997,447.7876045994937L207.91990112177695,437.8582496180726L153.42457298226992,180.9614902619052Z"/><path opacity="0.25" fill="rgb(184,225,134)" class="q6" d="M364.1401494955049,232.48849435877554L365.29995037482024,236.2804947629451L3024.007103591854,472.33416562658795L1000000,11459.85869022613L1000000,-1000000L893846.9560784688,-1000000Z"/><path opacity="0.25" fill="rgb(127,188,65)" class="q7" d="M166.33983994491666,465.8090830207958L248.23687900067353,971.955627401569L398.8249469645832,596.0942223245876L201.53953966740997,447.7876045994937Z"/><path opacity="0.25" fill="rgb(77,146,33)" class="q8" d="M201.53953966740997,447.7876045994937L398.8249469645832,596.0942223245876L617.396060762412,496.496927100779L351.41266984696574,339.5824781977762L207.91990112177695,437.8582496180726Z"/><path opacity="0.25" fill="rgb(197, 27, 195)" class="q0" d="M-1000000,95842.60435741639L-1096.9221861484955,480.5384705538833L153.42457298226992,180.9614902619052L225.62144106601465,105.14639834466497L24906.61276968004,-1000000L-1000000,-1000000Z"/></g>
</svg>