<?xml version="1.0" encoding="utf-8"?>
<!-- Generator: Adobe Illustrator 16.0.4, SVG Export Plug-In . SVG Version: 6.00 Build 0)  -->
<!DOCTYPE svg PUBLIC "-//W3C//DTD SVG 1.1//EN" "http://www.w3.org/Graphics/SVG/1.1/DTD/svg11.dtd">
<svg version="1.1" id="Layer_1" xmlns="http://www.w3.org/2000/svg" xmlns:xlink="http://www.w3.org/1999/xlink" x="0px" y="0px"
	 width="1612px" height="2086.118px" viewBox="-500 -1294.118 1612 2086.118" enable-background="new -500 -1294.118 1612 2086.118"
	 xml:space="preserve">
<g>
	<path opacity="0.25" fill="#C51BC3" enable-background="new    " d="M1000000,11459.859L3024.007,472.334l-2406.61,24.163
		l-218.571,99.597L248.237,971.956L-159704.125,1000000H1000000V11459.859z"/>
	<path opacity="0.25" fill="#DE77AE" enable-background="new    " d="M225.622,105.146l138.519,127.342L893846.938-1000000
		H24906.613L225.622,105.146z"/>
	<path opacity="0.25" fill="#F1B6DA" enable-background="new    " d="M351.413,339.583l265.983,156.915l2406.61-24.163L365.3,236.28
		L351.413,339.583z"/>
	<path opacity="0.25" fill="#FF9BCF" enable-background="new    " d="M-159704.125,1000000L248.237,971.956L166.34,465.809
		l-1263.262,14.729L-1000000,95842.602V1000000H-159704.125z"/>
	<path opacity="0.25" fill="#FF3232" enable-background="new    " d="M153.425,180.961l54.495,256.897l143.493-98.276L365.3,236.28
		l-1.159-3.792L225.622,105.146L153.425,180.961z"/>
	<path opacity="0.25" fill="#7FBC41" enable-background="new    " d="M-1096.922,480.538L166.34,465.809l35.2-18.021l6.38-9.929
		l-54.495-256.897L-1096.922,480.538z"/>
	<path opacity="0.25" fill="#B8E186" enable-background="new    " d="M364.141,232.488l1.159,3.792l2658.707,236.054
		l996976,10987.525V-1000000H893846.938L364.141,232.488z"/>
	<path opacity="0.25" fill="#7FBC41" enable-background="new    " d="M166.34,465.809l81.897,506.147l150.588-375.862
		L201.54,447.787L166.34,465.809z"/>
	<path opacity="0.25" fill="#4D9221" enable-background="new    " d="M201.54,447.787l197.286,148.307l218.571-99.597
		L351.413,339.583L207.92,437.858L201.54,447.787z"/>
	<path opacity="0.25" fill="#C51BC3" enable-background="new    " d="M-1000000,95842.602L-1096.922,480.538L153.425,180.961
		l72.197-75.815L24906.613-1000000H-1000000V95842.602z"/>
</g>
</svg>
