<?xml version="1.0" encoding="utf-8"?>
<!-- Generator: Adobe Illustrator 18.1.1, SVG Export Plug-In . SVG Version: 6.00 Build 0)  -->
<svg version="1.1" id="Layer_1" xmlns="http://www.w3.org/2000/svg" xmlns:xlink="http://www.w3.org/1999/xlink" x="0px" y="0px"
	 viewBox="0 0 360 360" enable-background="new 0 0 360 360" xml:space="preserve">
<g>
	<circle fill="#4074A9" cx="180" cy="180" r="179.6"/>
	<g>
		<path fill="#FFCE55" d="M245.2,142.7c3-6.4,15.1-14.4,15.1-14.4l-34.1-31.9c-15.2,7.1-22.7,14.8-45.1,0.8c-0.3-0.3-0.7-0.5-1-0.8
			c0,0-0.1,0-0.1,0.1c0,0-0.1,0-0.1-0.1c-0.3,0.2-0.7,0.5-1,0.8c-22.4,14-29.9,6.3-45.1-0.8l-34.1,31.9c0,0,12.1,8,15.1,14.4
			c8.6,18.3-19.7,37-17.6,71.4c3.9,63.3,59.9,53.3,80.6,68.8c1.1,0.8,2.1,2,2.2,1.9c0.2,0.1,1.3-1.4,2.2-1.9
			c20.7-15.4,76.6-5.4,80.6-68.8C265,179.6,236.6,161,245.2,142.7z"/>
		<path opacity="0.5" fill="none" stroke="#B1832D" stroke-width="2" stroke-miterlimit="10" d="M231.1,145.4
			c2.4-5,8.3-14.7,8.3-14.7l-18.3-18.2c-11.9,5.5-22.7,14-40.2,3c-0.3-0.2-0.5-0.4-0.8-0.6c0,0-0.1,0-0.1,0.1c0,0-0.1,0-0.1-0.1
			c-0.3,0.2-0.5,0.4-0.8,0.6c-17.5,11-29.9,4.9-41.7-0.6l-16.1,16.5c0,0,6.7,6.6,9.1,11.6c6.8,14.3-19.1,39-19.1,66
			c-0.1,54,50.7,47.6,66.9,59.6c0.8,0.6,1.6,1.6,1.8,1.5c0.1,0.1,1.1-1.1,1.8-1.5c16.2-12.1,66.5-5.6,66.9-59.6
			C248.9,182.1,224.3,159.8,231.1,145.4z"/>
		<g>
			<path fill="#B1822C" stroke="#B1822C" stroke-miterlimit="10" d="M133.3,212.8l6.7-1.1c0.7-0.1,1.4-0.2,2.1-0.1
				c0.7,0.1,1.5,0.3,2.2,0.8c0.7,0.3,1.2,0.9,1.7,1.6c0.5,0.7,0.8,1.6,1,2.6c0.2,1.4,0,2.8-0.8,4.1c-0.8,1.4-2.1,2.3-4,2.6L138,224
				l1.2,7.5l-2.8,0.5L133.3,212.8z M137.6,221.3l4.2-0.7c1-0.2,1.8-0.7,2.2-1.4c0.4-0.7,0.5-1.5,0.4-2.2c-0.1-0.6-0.3-1.2-0.6-1.6
				c-0.3-0.4-0.6-0.6-1-0.8c-0.6-0.3-1.3-0.4-2.1-0.2l-4.1,0.7L137.6,221.3z"/>
			<path fill="#B1822C" stroke="#B1822C" stroke-miterlimit="10" d="M160.6,224.4l-7.1,0.6l-1.1,4.4l-3,0.3l5.1-19.9l2.4-0.2
				l8.5,18.7l-3,0.3L160.6,224.4z M159.6,221.9l-3.5-8.2l-0.1,0l-2,8.7L159.6,221.9z"/>
			<path fill="#B1822C" stroke="#B1822C" stroke-miterlimit="10" d="M169.8,211.5l-5.1,0.1l-0.1-2.6l13.1-0.3l0.1,2.6l-5.1,0.1
				l0.4,16.8l-2.8,0.1L169.8,211.5z"/>
			<path fill="#B1822C" stroke="#B1822C" stroke-miterlimit="10" d="M182.6,208.8l7.3,0.4c1.6,0.1,2.8,0.6,3.8,1.5
				c1.1,1,1.7,2.4,1.6,4.2c-0.2,2.6-1.5,4.4-3.9,5.2l3.9,8.8l-3.4-0.2l-3.5-8.5l-3.6-0.2l-0.4,8.3l-2.8-0.1L182.6,208.8z M185,217.4
				l4.3,0.2c1.1,0,1.9-0.2,2.4-0.8c0.6-0.5,0.9-1.2,0.9-2.1c0-1-0.2-1.8-0.8-2.2c-0.5-0.4-1.1-0.7-2.1-0.7l-4.5-0.2L185,217.4z"/>
			<path fill="#B1822C" stroke="#B1822C" stroke-miterlimit="10" d="M199.9,219.5c0.3-2.2,0.6-3.7,0.8-4.5c0.2-0.7,0.5-1.3,0.9-1.7
				c0.6-0.8,1.4-1.5,2.5-2.1c1.1-0.6,2.3-0.8,3.8-0.6c1.5,0.2,2.7,0.7,3.6,1.6c0.9,0.8,1.5,1.7,1.8,2.7c0.3,0.5,0.4,1.1,0.4,1.9
				c0,0.8-0.1,2.3-0.4,4.5c-0.3,2.2-0.6,3.7-0.8,4.4c-0.2,0.8-0.5,1.3-0.9,1.8c-0.6,0.8-1.4,1.5-2.4,2.1c-1.1,0.6-2.4,0.8-3.8,0.6
				c-1.5-0.2-2.6-0.8-3.5-1.6c-0.9-0.8-1.5-1.7-1.8-2.6c-0.1-0.3-0.2-0.6-0.3-0.9c-0.1-0.3-0.1-0.6-0.1-1.1
				C199.4,223.2,199.6,221.7,199.9,219.5z M202.7,219.9c-0.3,1.9-0.4,3.2-0.3,3.9c0,0.7,0.2,1.3,0.5,1.7c0.2,0.4,0.6,0.8,1,1.1
				c0.4,0.4,1,0.6,1.7,0.7c0.7,0.1,1.3,0,1.8-0.2c0.5-0.2,0.9-0.5,1.3-0.8c0.4-0.4,0.7-0.9,1-1.5c0.2-0.7,0.5-1.9,0.7-3.8
				c0.3-1.9,0.4-3.2,0.3-3.9c0-0.7-0.2-1.2-0.5-1.7c-0.2-0.4-0.6-0.8-1-1.1c-0.5-0.3-1-0.5-1.7-0.6c-0.7-0.1-1.3,0-1.8,0.2
				c-0.5,0.2-1,0.5-1.3,0.8c-0.4,0.4-0.7,0.9-0.9,1.5C203.2,216.7,202.9,218,202.7,219.9z"/>
			<path fill="#B1822C" stroke="#B1822C" stroke-miterlimit="10" d="M220.9,212.9l2.8,0.6l-3.7,16.2l8.9,2.1l-0.6,2.7l-11.7-2.7
				L220.9,212.9z"/>
		</g>
		<polygon fill="#B1822C" points="180,138.4 189,156.6 209.1,159.5 194.5,173.7 198,193.7 180,184.2 162,193.7 165.5,173.7 
			150.9,159.5 171,156.6 		"/>
	</g>
</g>
</svg>
