<?xml version="1.0" encoding="utf-8"?>
<!-- Generator: Adobe Illustrator 18.1.1, SVG Export Plug-In . SVG Version: 6.00 Build 0)  -->
<svg version="1.1" id="Layer_1" xmlns="http://www.w3.org/2000/svg" xmlns:xlink="http://www.w3.org/1999/xlink" x="0px" y="0px"
	 viewBox="0 0 360 360" enable-background="new 0 0 360 360" xml:space="preserve">
<g>
	<g>
		<circle fill="#87D2DD" cx="180" cy="180" r="180"/>
		<polygon fill="#FFFFFF" points="124.7,109.9 124.7,99.3 150.9,89.5 186.6,103.3 239.1,128.1 239.1,255 203.8,272.5 		"/>
		<polygon fill="#9D928E" stroke="#FFFFFF" stroke-width="0.25" stroke-miterlimit="10" points="219.4,264.7 215,266.9 215,139.1 
			132.9,101.2 134.8,97.3 219.4,136.3 		"/>
		<polygon fill="#9D928E" stroke="#FFFFFF" stroke-width="0.25" stroke-miterlimit="10" points="227.1,260.9 222.7,263.1 
			222.7,134.4 140.6,96.6 142.4,92.6 227.1,131.6 		"/>
		<path fill="#802E41" d="M131.3,105c15.8,7.4,31.3,14.6,46.9,21.8c9.1,4.2,18.2,8.5,27.5,12.6c3.5,1.5,5.1,3.5,5.1,6.9
			c-0.2,27.6-0.1,96.3-0.1,123.8c0,5.4-4.7,7.6-10.2,4.7c-25.6-13.2-51.2-26.4-76.8-39.6c-3.1-1.6-4.7-3.7-4.7-6.9
			c-0.2-26.3-0.5-95-0.9-121.3c-0.1-5.3,2.2-9.3,6.7-12.8c7.9-5.9,17-9.9,27.6-10.6c3.3-0.2,7.1,0.7,10.1,2
			c24.5,10.3,40.4,18.3,64.7,28.8c15.4,6.7,14.7,7.3,14.8,21.6c0.2,25.4-0.1,87.5,0.2,112.9c0,14.7-10.6,9.5-10.6,9.5
			s-0.2-0.6-0.2-7.8c0.1-25.3-0.1-89.4,0.2-114.7c0-5.9,1.5-7.2-4.4-9.9c-22.2-9.9-44.4-19.7-66.6-29.6c-2.6-1.1-9.9-4.1-9.9-4.1
			S137.1,96.6,131.3,105z"/>
	</g>
	<g opacity="0.5">
		<g>
			<polygon fill="#E6E7E8" points="164.5,210.2 158.7,206.4 158.7,165.8 164.5,169.6 			"/>
			<path fill="#E6E7E8" d="M165.9,158.6l-0.1,9.3c0,0-0.8,1.8-4.4-0.6c-3.6-2.4-4.3-5.3-4.3-5.3l0.1-9.2c0,0-1.1-1.1-1.3-0.9
				c-1.2,1.2-2,3.4-2,6.4c0,6.3,3.4,13.7,7.6,16.5c4.2,2.8,7.6-0.1,7.6-6.4c0-3-0.8-6.2-2-9C167,159,165.9,158.6,165.9,158.6z"/>
			<path fill="#E6E7E8" d="M161.6,205.7c-4-2.6-7.2,0.1-7.2,6c0,6,3.2,12.9,7.2,15.6c4,2.6,7.2-0.1,7.2-6
				C168.8,215.3,165.6,208.3,161.6,205.7z M163.5,222.8l-3.9-2.6l-1.9-6.3l1.9-3.7l3.9,2.6l1.9,6.3L163.5,222.8z"/>
		</g>
	</g>
</g>
</svg>
