<?xml version="1.0" encoding="utf-8"?>
<!-- Generator: Adobe Illustrator 18.1.1, SVG Export Plug-In . SVG Version: 6.00 Build 0)  -->
<svg version="1.1" id="Layer_1" xmlns="http://www.w3.org/2000/svg" xmlns:xlink="http://www.w3.org/1999/xlink" x="0px" y="0px"
	 viewBox="0 0 360 360" enable-background="new 0 0 360 360" xml:space="preserve">
<g>
	<circle fill="#983667" cx="180" cy="180" r="180"/>
	<g>
		<g>
			<path fill="#EDD672" d="M276.6,178.3h-20.5c0,0.6,0,1.1,0,1.7c0,4.3-0.4,8.6-1.1,12.7l20.1,3.9c0.9-5.4,1.4-11,1.4-16.7
				C276.6,179.4,276.6,178.9,276.6,178.3z"/>
			<path fill="#EDD672" d="M276.5,198.7l-23.5-4.6l0.3-1.6c0.7-4.2,1.1-8.4,1.1-12.5l-0.1-3.4h23.9l0.1,3.4c0,5.7-0.5,11.4-1.5,17
				L276.5,198.7z M257,191.4l16.8,3.3c0.8-4.8,1.1-9.7,1.1-14.6h-17.1C257.8,183.8,257.5,187.6,257,191.4z"/>
		</g>
		<g>
			<path fill="#EEC06F" d="M245.2,219.2l16.8,11.9c3.8-6.1,6.9-12.5,9.3-19.4l-20.4-4C249.3,211.7,247.4,215.6,245.2,219.2z"/>
			<path fill="#EEC06F" d="M262.4,233.5l-19.5-13.8l0.8-1.4c2.2-3.6,4.1-7.4,5.6-11.2l0.5-1.3l23.7,4.6l-0.6,1.9
				c-2.4,6.9-5.6,13.5-9.5,19.7L262.4,233.5z M247.5,218.7l14,9.9c3-5,5.5-10.3,7.5-15.7l-17.1-3.3
				C250.7,212.7,249.2,215.8,247.5,218.7z"/>
		</g>
		<g>
			<path fill="#F2A470" d="M226.6,240.1l10.1,18.1c5.9-4.3,11.3-9.2,16.1-14.7l-16.8-11.9C233,234.7,229.9,237.6,226.6,240.1z"/>
			<path fill="#F2A470" d="M236.1,260.7l-11.7-21l1.2-0.9c3.3-2.6,6.4-5.4,9.1-8.4l1-1.1l19.6,13.9l-1.2,1.4
				c-4.9,5.6-10.4,10.6-16.4,15L236.1,260.7z M228.7,240.6l8.4,15.1c4.7-3.6,9.1-7.5,13-11.9l-14.1-10
				C233.8,236.2,231.4,238.5,228.7,240.6z"/>
		</g>
		<g>
			<path fill="#F3786F" d="M180,256.1c-42,0-76.1-34.1-76.1-76.1c0-42,34.1-76.1,76.1-76.1c17.2,0,33.1,5.7,45.8,15.4L215.5,136
				l59,1.8l-28-52l-9.9,16.1c-15.9-11.6-35.5-18.4-56.6-18.4c-53.3,0-96.6,43.3-96.6,96.6c0,53.3,43.3,96.6,96.6,96.6
				c15.6,0,30.3-3.7,43.4-10.3l-10-17.9C203.3,253.3,192,256.1,180,256.1z"/>
			<path fill="#F3786F" d="M180,278.3c-54.2,0-98.3-44.1-98.3-98.3s44.1-98.3,98.3-98.3c20.2,0,39.6,6.1,56.1,17.7l10.5-17
				l30.8,57.2l-64.9-1.9l11-17.9c-12.8-9.3-27.8-14.1-43.5-14.1c-41,0-74.4,33.4-74.4,74.4s33.4,74.4,74.4,74.4
				c11.4,0,22.4-2.6,32.6-7.6l1.5-0.7l11.6,20.9l-1.6,0.8C210.4,274.8,195.5,278.3,180,278.3z M180,85.1
				c-52.3,0-94.9,42.6-94.9,94.9s42.6,94.9,94.9,94.9c14.4,0,28.2-3.1,41-9.3l-8.3-15c-10.3,4.8-21.3,7.2-32.7,7.2
				c-42.9,0-77.8-34.9-77.8-77.8s34.9-77.8,77.8-77.8c17,0,33.2,5.4,46.8,15.7l1.2,0.9l-9.6,15.5l53.1,1.6l-25.2-46.8l-9.3,15.1
				l-1.5-1.1C219.3,91.3,200.1,85.1,180,85.1z"/>
		</g>
	</g>
	<g>
		<g>
			<path fill="#FFFFFF" d="M147.5,202.7l18.9-24.4c0.7-1,1.2-1.9,1.5-2.7c0.2-0.8,0.3-1.6,0.3-2.3c0-1.9-0.6-3.5-1.7-4.9
				c-1.2-1.4-2.8-2.1-5-2.2c-1.9,0-3.5,0.6-4.8,1.9c-1.3,1.3-2.1,3-2.3,5.3h-6.9c0.2-4.2,1.5-7.6,4.1-10.3c2.5-2.6,5.7-4,9.4-4
				c4.2,0,7.5,1.4,10.1,4.1c2.6,2.7,4,6.1,4,10.2c0,3.3-1,6.2-2.9,8.8l-15.6,20.2H175v7.1h-27.6V202.7z"/>
			<path fill="#FFFFFF" d="M176.4,210.8h-30.3v-8.6l19.2-24.8c0.6-0.8,1.1-1.6,1.3-2.3c0.1-0.6,0.2-1.2,0.2-1.8c0-1.6-0.5-2.9-1.4-4
				c-0.9-1.1-2.2-1.6-4-1.7c-1.5,0-2.8,0.5-3.8,1.5c-1.1,1.1-1.7,2.5-1.9,4.5l-0.1,1.2H146l0.1-1.4c0.2-4.5,1.7-8.2,4.4-11.2
				c2.8-2.9,6.3-4.4,10.4-4.5c4.6,0.1,8.3,1.6,11.1,4.5c2.9,2.9,4.4,6.7,4.4,11.1c0,3.6-1.1,6.8-3.2,9.6l-13.9,17.9h17.1V210.8z
				 M148.8,208h24.8v-4.4h-19.9l17.3-22.4c1.8-2.3,2.6-4.9,2.6-7.9c0-3.8-1.2-6.8-3.6-9.2c-2.4-2.5-5.4-3.7-9.2-3.7
				c-3.3,0-6.1,1.2-8.4,3.6c-2,2.2-3.2,4.8-3.6,8h4.2c0.4-2,1.3-3.7,2.6-4.9c1.5-1.5,3.4-2.3,5.7-2.3c2.6,0.1,4.6,0.9,6,2.6
				c1.3,1.7,2,3.6,2,5.8c0,0.8-0.1,1.7-0.3,2.6c-0.3,1.1-0.9,2.2-1.7,3.3l-18.6,24.1V208z"/>
		</g>
		<g>
			<path fill="#FFFFFF" d="M181.2,195.3l16.2-35.8h7.7l-16.3,35.8h12.6v-14.4h6.9v14.4h3.9v6.7h-3.9v7.4h-6.9V202l-20.2,0V195.3z"/>
			<path fill="#FFFFFF" d="M209.6,210.8H200v-7.4l-20.2,0l0.1-8.6l16.5-36.6h10.7l-16.3,35.8h9.1v-14.4h9.7v14.4h3.9v9.5h-3.9V210.8
				z M202.7,208h4.2v-7.4h3.9v-4h-3.9v-14.4h-4.2v14.4h-16.1l16.3-35.8h-4.7l-15.7,34.7v5l20.2,0V208z"/>
		</g>
	</g>
</g>
</svg>
