<?xml version="1.0" encoding="utf-8"?>
<!-- Generator: Adobe Illustrator 18.1.1, SVG Export Plug-In . SVG Version: 6.00 Build 0)  -->
<svg version="1.1" id="Layer_1" xmlns="http://www.w3.org/2000/svg" xmlns:xlink="http://www.w3.org/1999/xlink" x="0px" y="0px"
	 viewBox="0 0 360 360" enable-background="new 0 0 360 360" xml:space="preserve">
<g>
	<circle fill="#FFCB6F" cx="180" cy="180" r="180"/>
	<g>
		<g>
			<path fill="#ED5551" d="M288.4,175.9c0,0.8-0.6,1.4-1.4,1.4H183.2c-0.8,0-1.4-0.6-1.4-1.4v-23.5c0-0.8,0.6-1.4,1.4-1.4H287
				c0.8,0,1.4,0.6,1.4,1.4V175.9z"/>
		</g>
		<g>
			<path fill="#ED5551" d="M269,154.7c0,0.8-0.6,1.4-1.4,1.4h-8.7c-0.8,0-1.4-0.6-1.4-1.4v-45.1c0-0.8,0.6-1.4,1.4-1.4h8.7
				c0.8,0,1.4,0.6,1.4,1.4V154.7z"/>
		</g>
		<path d="M208.6,131.3c-4,0-11.9-2.5-20.3-6.3c-5.4-2.5-10.4-5.2-13.9-7.7c-4.5-3.2-6.1-5.5-5.2-7.4c0.5-1.2,1.8-1.7,3.7-1.7
			c4,0,11.9,2.5,20.3,6.3c5.4,2.5,10.4,5.2,13.9,7.7c4.5,3.2,6.1,5.5,5.2,7.4C211.8,130.7,210.5,131.3,208.6,131.3z M172.8,111.5
			c1.6,1.8,7.1,5.9,16.9,10.4c9,4.1,16,6,18.9,6c0,0,0.1,0,0.1,0c-1.6-1.8-7.1-5.9-16.9-10.4C182.6,113.3,175.5,111.4,172.8,111.5z"
			/>
		<circle fill="#666E78" cx="239.6" cy="205" r="48.9"/>
		<path fill="#ED5551" d="M184.2,211.8c-3.8,0-6.8-3.1-6.8-6.8c0-34.3,27.9-62.2,62.2-62.2c21.7,0,41.4,11,52.9,29.4
			c2,3.2,1,7.4-2.2,9.4c-3.2,2-7.4,1-9.4-2.2c-8.9-14.4-24.4-23-41.3-23c-26.8,0-48.5,21.8-48.5,48.5
			C191,208.7,188,211.8,184.2,211.8z"/>
		<path fill="none" stroke="#ED5551" stroke-width="4" stroke-miterlimit="10" d="M195.3,238.3"/>
		<path fill="none" stroke="#ED5551" stroke-width="4" stroke-miterlimit="10" d="M294.9,205"/>
		<circle fill="#808E8E" cx="239.6" cy="205" r="12.5"/>
		<rect x="184.9" y="123.1" transform="matrix(0.9111 0.4121 -0.4121 0.9111 69.5959 -65.4672)" width="3.4" height="11.2"/>
		<g>
			<path fill="#ED5551" d="M187.3,208.9c0,0.8-0.6,1.4-1.4,1.4H66.6c-0.8,0-1.4-0.6-1.4-1.4v-76.2c0-0.8,0.6-1.4,1.4-1.4h119.3
				c0.8,0,1.4,0.6,1.4,1.4V208.9z"/>
		</g>
		<g>
			<line fill="#634F4A" x1="68" y1="157.7" x2="94.5" y2="157.7"/>
			<rect x="68" y="156" fill="#634F4A" width="26.4" height="3.4"/>
		</g>
		<g>
			<line fill="#634F4A" x1="68" y1="168.1" x2="94.5" y2="168.1"/>
			<rect x="68" y="166.4" fill="#634F4A" width="26.4" height="3.4"/>
		</g>
		<g>
			<line fill="#634F4A" x1="68" y1="178.5" x2="94.5" y2="178.5"/>
			<rect x="68" y="176.8" fill="#634F4A" width="26.4" height="3.4"/>
		</g>
		<circle fill="#666E78" cx="103.7" cy="227" r="26.9"/>
		<circle fill="#808E8E" cx="103.7" cy="227" r="7.4"/>
	</g>
</g>
</svg>
