<?xml version="1.0" encoding="utf-8"?>
<!-- Generator: Adobe Illustrator 18.1.1, SVG Export Plug-In . SVG Version: 6.00 Build 0)  -->
<svg version="1.1" id="Layer_1" xmlns="http://www.w3.org/2000/svg" xmlns:xlink="http://www.w3.org/1999/xlink" x="0px" y="0px"
	 viewBox="0 0 360 360" enable-background="new 0 0 360 360" xml:space="preserve">
<g>
	<circle fill="#66C18F" cx="180" cy="180" r="180"/>
	<g>
		<path fill="#E6E7E8" d="M163.9,98.7c1.1,0.1,2.1,0.2,3.2,0.3c6.6,0.5,13.1,1.7,19.5,3.2c0.3,0.1,0.7,0.1,1,0.3
			c0.2,0.1,0.4,0.3,0.4,0.4c-0.1,1.9-0.2,3.9-0.3,5.8c-1.8,0.2-3.6,0.3-5.3,0.5c-13.7,1.7-20.2,3.6-30.3,13.2
			c-2.5,2.4-3.9,5.3-3.5,8.9c0.2,1.8,1.1,3.3,2.3,4.6c1.9,2.1,3.9,4.1,5.9,6.3c-6.6,6.5-13.2,13.1-19.9,19.7
			c-1.9-1.9-3.7-3.7-5.5-5.5c-2-2-4.5-2.6-7.2-2.3c-6.4,0.8-10.8,4.5-14.2,9.8c-0.8,1.3-1.3,2.7-1.1,4.2c0.1,0.7,0.3,1.5,0.8,2
			c1.2,1.1,1.2,2.5,1,3.8c-0.3,1.8-1.2,3.3-2.4,4.6c-1.1,1.1-2,2.2-3.1,3.3c-3.2,3.4-8,3.5-11.3,0.2c-4.7-4.8-9.5-9.6-14.2-14.4
			c-3.1-3.2-3.4-7.9-0.3-11.1c1-1.1,2-2.2,3-3.3c2.2-2.4,6.3-3.1,8.9-1.1c0.2,0.2,0.6,0.2,0.9,0.2c4.2-0.4,8.9-2.8,10-8.9
			c0.4-2.2,0.4-4.5,0.7-6.7c0.2-1.6,0.3-3.3,0.7-4.9c0.2-0.8,0.6-1.6,1.2-2.2c6.2-6.3,12.4-12.7,18.8-18.8
			c7.4-7.1,10.5-8.6,20.6-10.7c3.4-0.7,6.8-1,10.2-1.4c0.3,0,0.7-0.1,1-0.2C158.2,98.7,161,98.7,163.9,98.7z"/>
		<polygon fill="#E6E7E8" points="270,249.7 244.6,275.1 141.6,167 161.8,146.8 		"/>
	</g>
	<g>
		<g>
			
				<rect x="185.5" y="126.7" transform="matrix(0.7071 0.7071 -0.7071 0.7071 190.9767 -85.3987)" fill="#E6E7E8" width="26.2" height="122.3"/>
			<path fill="#E6E7E8" d="M281.1,133.1l-20,19.7c0,0-7.3,2.5-18.9-9c-11.5-11.5-8.5-19-8.5-19l19.8-19.5c0,0-2.8-4.2-4.2-4.1
				c-8.3,0.4-16.4,3.7-22.7,10c-13.4,13.4-13.4,35.2,0,48.7c13.4,13.4,35.2,13.4,48.7,0c6.3-6.3,9.6-14.5,10-22.8
				C285.3,135.7,281.1,133.1,281.1,133.1z"/>
			<path fill="#E6E7E8" d="M160.9,225.5c-12.7-12.7-33.3-12.7-46,0c-12.7,12.7-12.7,33.3,0,46s33.3,12.7,46,0
				C173.6,258.8,173.6,238.2,160.9,225.5z M133.4,265.3L121.1,253l4.5-16.8l16.8-4.5l12.3,12.3l-4.5,16.8L133.4,265.3z"/>
		</g>
	</g>
</g>
</svg>
