<?xml version="1.0" encoding="utf-8"?>
<!-- Generator: Adobe Illustrator 18.1.1, SVG Export Plug-In . SVG Version: 6.00 Build 0)  -->
<svg version="1.1" id="Layer_1" xmlns="http://www.w3.org/2000/svg" xmlns:xlink="http://www.w3.org/1999/xlink" x="0px" y="0px"
	 viewBox="0 0 360 360" enable-background="new 0 0 360 360" xml:space="preserve">
<g>
	<circle fill="#FFCE55" cx="180" cy="180" r="180"/>
	<g>
		<path fill="#4074A9" d="M250.1,117.8c-1.3,0-2.6,0.3-3.9,0.9L89.6,156.3c0,0-0.1,0-0.1,0c-5.3,0-9.6,12.1-9.6,27.1
			c0,15,4.3,27.1,9.6,27.1l15.2,3.6v30.4h68.8v-13.9l72.8,17.4c1.3,0.6,2.5,0.9,3.9,0.9c12.8,0,23.1-29.4,23.1-65.6
			C273.3,147.2,262.9,117.8,250.1,117.8z M165.7,236.9h-53.4V216l53.4,12.8V236.9z"/>
		<ellipse fill="#2A4F6D" cx="250.1" cy="183.9" rx="19.7" ry="62.5"/>
	</g>
	<g>
		<path fill="#FFFFFF" d="M135.2,181.4h13.9v13.9c0,3.1-1,5.5-3,7c-2,1.5-4.1,2.3-6.3,2.3h-9.3c-2.5,0-4.7-0.9-6.6-2.7
			c-1.8-1.8-2.8-4-2.8-6.6v-23.2c0-2.5,0.9-4.7,2.7-6.6c1.8-1.8,4-2.8,6.6-2.8h9.3c5.8,0,8.9,3.1,9.3,9.3h-4.6
			c-0.4-3.1-1.9-4.7-4.6-4.7h-4.7c-1.3,0-2.4,0.5-3.3,1.4c-0.9,0.9-1.4,2-1.4,3.3v23.2c0,1.3,0.5,2.4,1.4,3.3c0.9,0.9,2,1.4,3.3,1.4
			c3-0.1,4.5-1.7,4.7-4.7v-9.3h-4.7V181.4z"/>
		<path fill="#FFFFFF" d="M162.7,162.9h9.3c2.5,0,4.7,0.9,6.5,2.8s2.7,4,2.7,6.6v23.2c0,2.5-0.9,4.7-2.7,6.6s-4,2.8-6.5,2.8h-9.3
			c-2.5,0-4.7-0.9-6.6-2.7c-1.8-1.8-2.8-4-2.8-6.6v-23.2c0-2.6,0.9-4.8,2.8-6.6C158,163.8,160.2,162.9,162.7,162.9z M162.7,172.2
			v23.2c0,1.3,0.5,2.4,1.4,3.3c0.9,0.9,2,1.4,3.3,1.4c1.3,0,2.4-0.5,3.3-1.4c0.9-0.9,1.4-2,1.4-3.3v-23.2c0-1.3-0.5-2.4-1.4-3.3
			c-0.9-0.9-2-1.4-3.3-1.4c-1.3,0-2.4,0.5-3.3,1.4C163.2,169.8,162.7,170.9,162.7,172.2z"/>
		<path fill="#FFFFFF" d="M195.2,190.8v-27.9h9.3v27.9H195.2z M195.2,204.7v-9.3h9.3v9.3H195.2z"/>
	</g>
</g>
</svg>
