<?xml version="1.0" encoding="utf-8"?>
<!-- Generator: Adobe Illustrator 18.1.1, SVG Export Plug-In . SVG Version: 6.00 Build 0)  -->
<svg version="1.1" id="Layer_1" xmlns="http://www.w3.org/2000/svg" xmlns:xlink="http://www.w3.org/1999/xlink" x="0px" y="0px"
	 viewBox="0 0 360 360" enable-background="new 0 0 360 360" xml:space="preserve">
<g>
	<circle fill="#66C18F" cx="180" cy="180" r="180"/>
	<g>
		<path fill="#FFFFFF" d="M245.1,264.1c0,0.8-0.6,1.4-1.4,1.4l-126.5,0.6c-0.8,0-1.4-0.6-1.4-1.4L114.9,109c0-0.8,0.6-1.4,1.4-1.4
			l126.5-0.6c0.8,0,1.4,0.6,1.4,1.4L245.1,264.1z"/>
	</g>
	<g>
		
			<rect x="176.4" y="100" transform="matrix(4.638611e-03 1 -1 4.638611e-03 324.1712 -35.2343)" fill="#C7B6AF" width="6.8" height="90.4"/>
		
			<rect x="176.5" y="123.6" transform="matrix(4.638611e-03 1 -1 4.638611e-03 347.8329 -11.8968)" fill="#C7B6AF" width="6.8" height="90.4"/>
		
			<rect x="176.6" y="147.1" transform="matrix(4.638611e-03 1 -1 4.638611e-03 371.4947 11.4406)" fill="#C7B6AF" width="6.8" height="90.4"/>
		
			<rect x="176.7" y="170.7" transform="matrix(4.638611e-03 1 -1 4.638611e-03 395.1577 34.7802)" fill="#C7B6AF" width="6.8" height="90.4"/>
		
			<rect x="176.8" y="194.2" transform="matrix(4.638611e-03 1 -1 4.638611e-03 418.8206 58.1197)" fill="#C7B6AF" width="6.8" height="90.4"/>
	</g>
	<g>
		<path fill="#F3786F" d="M298.1,128.3l-5.6-3.6c-1.4-0.9-3.2-0.5-4.1,0.9l-3.9,6.1c-0.9,1.4-0.5,3.2,0.9,4.1l5.6,3.6
			c1.4,0.9,3.2,0.5,4.1-0.9l3.9-6.1C299.9,131,299.5,129.2,298.1,128.3z"/>
		<g>
			<polygon fill="#F39C33" points="238.7,227.8 228.1,221.1 285.5,130.3 296.1,137 			"/>
			<polygon fill="#FFEABB" points="238.7,227.8 225.7,236.6 228.1,221.1 			"/>
			<polygon fill="#636464" points="232.2,232.2 225.7,236.6 226.9,228.8 			"/>
			<g>
				<polygon fill="#FFEABB" points="228.1,221.1 231.5,219.6 231.6,223.3 				"/>
				<polygon fill="#FFEABB" points="231.6,223.3 235,221.8 235.1,225.6 				"/>
				<polygon fill="#FFEABB" points="235.1,225.6 238.6,224.1 238.7,227.8 				"/>
			</g>
		</g>
		<polygon fill="#E2E2E2" points="294.7,139.2 284.1,132.5 286.6,128.5 297.2,135.2 		"/>
	</g>
</g>
</svg>
