<?xml version="1.0" encoding="utf-8"?>
<!-- Generator: Adobe Illustrator 18.1.1, SVG Export Plug-In . SVG Version: 6.00 Build 0)  -->
<svg version="1.1" id="Layer_1" xmlns="http://www.w3.org/2000/svg" xmlns:xlink="http://www.w3.org/1999/xlink" x="0px" y="0px"
	 viewBox="0 0 360 360" enable-background="new 0 0 360 360" xml:space="preserve">
<g>
	<circle fill="#F3786F" cx="180" cy="180" r="180"/>
	<g>
		<rect x="204.3" y="226.9" fill="#F1C32D" width="90.8" height="9.5"/>
		<rect x="293.2" y="220.9" fill="#6D6E71" width="4.1" height="15.7"/>
		<path fill="#F9ED32" d="M141.9,236.6h60c13.4,0,24.3-10.9,24.3-24.3v-60c0-13.4-10.9-24.3-24.3-24.3h-60
			c-13.4,0-24.3,10.9-24.3,24.3v60C117.6,225.8,128.5,236.6,141.9,236.6z"/>
		<path fill="#F1C32D" d="M194.8,222.6H149c-9.6,0-17.4-7.8-17.4-17.4v-45.8c0-9.6,7.8-17.4,17.4-17.4h45.8
			c9.6,0,17.4,7.8,17.4,17.4v45.8C212.2,214.8,204.4,222.6,194.8,222.6z M149,152.3c-4,0-7.2,3.2-7.2,7.2v45.8c0,4,3.2,7.2,7.2,7.2
			h45.8c4,0,7.2-3.2,7.2-7.2v-45.8c0-4-3.2-7.2-7.2-7.2H149z"/>
		<rect x="139" y="123.4" fill="#6D6E71" width="26.7" height="4.9"/>
		<rect x="287.5" y="229.8" fill="#5C5C5C" width="1.7" height="6.7"/>
		<rect x="273.9" y="229.8" fill="#5C5C5C" width="1.7" height="6.7"/>
		<rect x="260.3" y="229.8" fill="#5C5C5C" width="1.7" height="6.7"/>
		<rect x="246.7" y="229.8" fill="#5C5C5C" width="1.7" height="6.7"/>
		<rect x="233.1" y="229.8" fill="#5C5C5C" width="1.7" height="6.7"/>
		<rect x="219.4" y="229.8" fill="#5C5C5C" width="1.7" height="6.7"/>
	</g>
</g>
</svg>
