<?xml version="1.0" encoding="utf-8"?>
<!-- Generator: Adobe Illustrator 18.1.1, SVG Export Plug-In . SVG Version: 6.00 Build 0)  -->
<svg version="1.1" id="Layer_1" xmlns="http://www.w3.org/2000/svg" xmlns:xlink="http://www.w3.org/1999/xlink" x="0px" y="0px"
	 viewBox="0 0 360 360" enable-background="new 0 0 360 360" xml:space="preserve">
<g>
	<g>
		<circle fill="#51A695" cx="180" cy="180" r="160.4"/>
		<path fill="#67C6B5" d="M180,360C80.7,360,0,279.3,0,180S80.7,0,180,0c99.3,0,180,80.7,180,180S279.3,360,180,360z M180,39.2
			c-77.7,0-140.9,63.2-140.9,140.8S102.3,320.8,180,320.8c77.7,0,140.8-63.2,140.8-140.8S257.7,39.2,180,39.2z"/>
	</g>
	<path fill="#FFFFFF" d="M124.9,116.9h110.3c16.6,0,30.1,13.5,30.1,30.1v66.7c0,16.6-13.5,30.1-30.1,30.1h-12.6
		c0,15.3,6.4,22.7,6.4,22.7s-39.1,0.3-44.5-22.7h-59.5c-16.6,0-30.1-13.5-30.1-30.1V147C94.8,130.4,108.2,116.9,124.9,116.9z"/>
	<g>
		<path fill="#67C6B5" d="M227.5,157.4c0,1.6-0.6,3-1.7,4.2L181.4,206l-8.3,8.3c-1.1,1.1-2.5,1.7-4.2,1.7c-1.6,0-3-0.6-4.2-1.7
			l-8.3-8.3l-22.2-22.2c-1.1-1.1-1.7-2.5-1.7-4.2c0-1.6,0.6-3,1.7-4.2l8.3-8.3c1.1-1.1,2.5-1.7,4.2-1.7c1.6,0,3,0.6,4.2,1.7l18,18.1
			l40.2-40.3c1.1-1.1,2.5-1.7,4.2-1.7c1.6,0,3,0.6,4.2,1.7l8.3,8.3C227,154.4,227.5,155.8,227.5,157.4z"/>
	</g>
	<g>
		<path fill="#51A695" d="M227.5,157.4c0,1.6-0.6,3-1.7,4.2L181.4,206l-8.3,8.3c-1.1,1.1-2.5,1.7-4.2,1.7c-1.6,0-3-0.6-4.2-1.7
			l-8.3-8.3l-22.2-22.2c-1.1-1.1-1.7-2.5-1.7-4.2c0-1.6,0.6-3,1.7-4.2l8.3-8.3c1.1-1.1,2.5-1.7,4.2-1.7c1.6,0,3,0.6,4.2,1.7l18,18.1
			l40.2-40.3c1.1-1.1,2.5-1.7,4.2-1.7c1.6,0,3,0.6,4.2,1.7l8.3,8.3C227,154.4,227.5,155.8,227.5,157.4z"/>
	</g>
</g>
</svg>
