<?xml version="1.0" encoding="utf-8"?>
<!-- Generator: Adobe Illustrator 18.1.1, SVG Export Plug-In . SVG Version: 6.00 Build 0)  -->
<svg version="1.1" id="Layer_1" xmlns="http://www.w3.org/2000/svg" xmlns:xlink="http://www.w3.org/1999/xlink" x="0px" y="0px"
	 viewBox="0 0 360 360" enable-background="new 0 0 360 360" xml:space="preserve">
<g>
	<circle fill="#66A169" cx="180" cy="180" r="180"/>
	<g>
		<path fill="#FFFFFF" d="M119,120h21.2l50.7,116.5h-29l-10-24.7h-45.2l-9.7,24.7H68.6L119,120z M128.8,153.9l-14.1,36.2h28.5
			L128.8,153.9z"/>
		<path fill="#FFFFFF" d="M249.6,226.4h-0.3c-2.7,4.3-6.4,7.3-10.9,9.2c-4.6,1.9-9.4,2.8-14.4,2.8c-3.7,0-7.3-0.5-10.8-1.6
			c-3.5-1-6.5-2.6-9.1-4.7c-2.6-2.1-4.7-4.7-6.2-7.7c-1.5-3.1-2.3-6.6-2.3-10.7c0-4.6,0.8-8.5,2.5-11.7c1.7-3.2,4-5.8,6.9-7.9
			c2.9-2.1,6.2-3.7,10-4.9c3.7-1.2,7.6-2,11.6-2.6c4-0.5,8-0.9,12-1c4-0.1,7.7-0.2,11.1-0.2c0-4.4-1.6-7.9-4.7-10.4
			c-3.1-2.6-6.8-3.9-11.1-3.9c-4.1,0-7.8,0.9-11.1,2.6c-3.3,1.7-6.3,4-9,7l-13.2-13.5c4.6-4.3,10-7.5,16.1-9.6
			c6.1-2.1,12.5-3.2,19.1-3.2c7.2,0,13.2,0.9,17.8,2.7c4.7,1.8,8.4,4.5,11.2,8c2.8,3.5,4.7,7.8,5.8,12.9c1.1,5.1,1.6,11,1.6,17.7
			v40.6h-22.7V226.4z M243.5,201.4c-1.9,0-4.2,0.1-7,0.2c-2.8,0.2-5.5,0.6-8.1,1.4c-2.6,0.8-4.8,1.9-6.6,3.5
			c-1.8,1.5-2.7,3.7-2.7,6.4c0,3,1.3,5.2,3.8,6.6c2.5,1.4,5.2,2.1,7.9,2.1c2.4,0,4.7-0.3,7-1c2.2-0.7,4.2-1.6,6-2.8
			c1.8-1.2,3.2-2.7,4.2-4.6c1-1.9,1.6-4.1,1.6-6.6v-5.3H243.5z"/>
	</g>
</g>
</svg>
