<?xml version="1.0" encoding="utf-8"?>
<!-- Generator: Adobe Illustrator 18.1.1, SVG Export Plug-In . SVG Version: 6.00 Build 0)  -->
<svg version="1.1" id="Layer_1" xmlns="http://www.w3.org/2000/svg" xmlns:xlink="http://www.w3.org/1999/xlink" x="0px" y="0px"
	 viewBox="0 0 360 360" enable-background="new 0 0 360 360" xml:space="preserve">
<g>
	<circle fill="#F39C33" cx="180" cy="180" r="180"/>
	<g>
		<rect x="83" y="104.7" fill="#58595B" width="194" height="150.6"/>
		<path fill="#D1D3D4" d="M283.8,262.1H76.2V97.9h207.6V262.1z M89.8,248.5h180.3v-137H89.8V248.5z"/>
	</g>
	<g>
		<g>
			<path fill="#E6E7E8" d="M118.4,176.8l31.2-22.2v8.3l-25.7,17.5l25.7,17.5v8.3L118.4,184V176.8z"/>
			<path fill="#E6E7E8" d="M152.3,211.5l-36.7-26.1v-10l36.7-26.1v15l-23.5,16.1l23.5,16V211.5z M121.1,182.6l25.7,18.3v-1.5
				l-25.7-17.5V182.6z M121.1,178.3v0.7l25.7-17.6V160L121.1,178.3z"/>
		</g>
		<g>
			<path fill="#E6E7E8" d="M181.7,144.7h4.8l-14.7,71.6h-4.8L181.7,144.7z"/>
			<polygon fill="#E6E7E8" points="174,219.1 163.6,219.1 179.4,142 189.8,142 			"/>
		</g>
		<g>
			<path fill="#E6E7E8" d="M203.3,197.9l25.7-17.5l-25.7-17.5v-8.3l31.2,22.2v7.2l-31.2,22.2V197.9z"/>
			<path fill="#E6E7E8" d="M200.5,211.5v-15.1l23.6-16l-23.6-16.1v-15l36.7,26.1v10L200.5,211.5z M206,199.4v1.5l25.7-18.3v-0.7
				L206,199.4z M206,161.4l25.7,17.6v-0.7L206,160V161.4z"/>
		</g>
	</g>
</g>
</svg>
