<?xml version="1.0" encoding="utf-8"?>
<!-- Generator: Adobe Illustrator 18.1.1, SVG Export Plug-In . SVG Version: 6.00 Build 0)  -->
<svg version="1.1" id="Layer_1" xmlns="http://www.w3.org/2000/svg" xmlns:xlink="http://www.w3.org/1999/xlink" x="0px" y="0px"
	 viewBox="0 0 360 360" enable-background="new 0 0 360 360" xml:space="preserve">
<g>
	<circle fill="#F3786F" cx="180" cy="180" r="180"/>
	<path fill="#F9ED32" d="M165.3,138.5l-4.2-1.9c3.5-3.6,2.9-20.9,2.4-34.8c-0.8-23-0.6-31.1,4.8-31.9c3.6-0.6,6.3,2.5,8.7,5.8
		l-4.6,1.5c-1.4-1.9-2.3-2.9-2.9-3.5c-1.8,3.7-1.3,17.6-1,28C169.2,121.2,169.3,134.3,165.3,138.5z"/>
	<path fill="#4074A9" d="M168.7,252.9c4.1-20.8-9.2-41.9-5.1-62.7c12.7,0,20.3,0,32.8,0c4.1,20.8-7.4,41.9-3.3,62.7
		C172.2,252.8,189.5,252.9,168.7,252.9z"/>
	<path fill="#F9ED32" d="M196,192.7H164c-2.5,0-4.6-2-4.6-4.6v-0.1c0-2.5,2-4.6,4.6-4.6H196c2.5,0,4.6,2,4.6,4.6v0.1
		C200.5,190.7,198.5,192.7,196,192.7z"/>
	<path fill="#F9ED32" d="M190.9,256.8h-21.7c-2.5,0-4.6-2-4.6-4.6v-0.1c0-2.5,2-4.6,4.6-4.6h21.7c2.5,0,4.6,2,4.6,4.6v0.1
		C195.4,254.7,193.4,256.8,190.9,256.8z"/>
	<path fill="#4074A9" d="M170.8,69.8c11.7-1.7,6.5-1.7,18.1,0.1c4.4,52.2,4,61.5,8.4,113.6c-21,0-13,0-34.5,0.1
		C167,131.6,166.5,122.3,170.8,69.8z"/>
	<path fill="#F9ED32" d="M188.8,66.1c0,0-5-2.7-9.1-2.7s-9.1,2.7-9.1,2.7v4.8h18.2V66.1z"/>
	<path fill="#F9ED32" d="M191.4,253.7c-8-0.2-15.3,0.1-22.8,0c1.6,7,1.6,7,0.3,15.8c-0.1,1-0.1,2.3,0.5,3c6.1,7.1,8.1,11,9.1,18.6
		v-19.7c-0.7-0.2-1.4-0.4-1.9-1c-1.8-1.6-1.8-5,0-6.6c1.8-1.6,4.6-1.6,6.4,0c1.8,1.6,1.8,5,0,6.6c-0.5,0.5-1.2,0.8-1.9,0.9v19.4
		c1.2-5.3,3.5-12.2,9.2-18c0.6-0.6,1-1.9,0.8-2.8C189.9,259.9,189.5,261.1,191.4,253.7z"/>
</g>
</svg>
