<?xml version="1.0" encoding="utf-8"?>
<!-- Generator: Adobe Illustrator 18.1.1, SVG Export Plug-In . SVG Version: 6.00 Build 0)  -->
<svg version="1.1" id="Layer_1" xmlns="http://www.w3.org/2000/svg" xmlns:xlink="http://www.w3.org/1999/xlink" x="0px" y="0px"
	 viewBox="0 0 360 360" enable-background="new 0 0 360 360" xml:space="preserve">
<g>
	<circle fill="#FFCE55" cx="180" cy="180" r="180"/>
	<g>
		<g>
			<line fill="#634F4A" x1="45.5" y1="216.3" x2="314.5" y2="216.3"/>
		</g>
		<rect x="45.5" y="212.9" fill="#634F4A" width="269" height="6.8"/>
	</g>
	<g>
		<g>
			<path fill="#C03B2B" d="M139.3,205.3c0,0.4-0.3,0.7-0.7,0.7H72.1c-0.4,0-0.7-0.3-0.7-0.7v-23.4c0-0.4,0.3-0.7,0.7-0.7h66.4
				c0.4,0,0.7,0.3,0.7,0.7V205.3z"/>
		</g>
		<g>
			<path fill="#C03B2B" d="M213.9,205.3c0,0.4-0.3,0.7-0.7,0.7h-66.4c-0.4,0-0.7-0.3-0.7-0.7v-23.4c0-0.4,0.3-0.7,0.7-0.7h66.4
				c0.4,0,0.7,0.3,0.7,0.7V205.3z"/>
		</g>
		<g>
			<path fill="#C03B2B" d="M288.6,205.3c0,0.4-0.3,0.7-0.7,0.7h-66.4c-0.4,0-0.7-0.3-0.7-0.7v-23.4c0-0.4,0.3-0.7,0.7-0.7h66.4
				c0.4,0,0.7,0.3,0.7,0.7V205.3z"/>
		</g>
	</g>
	<g>
		<g>
			<path fill="#C03B2B" d="M176.6,173.6c0,0.4-0.3,0.7-0.7,0.7h-66.4c-0.4,0-0.7-0.3-0.7-0.7v-23.4c0-0.4,0.3-0.7,0.7-0.7h66.4
				c0.4,0,0.7,0.3,0.7,0.7V173.6z"/>
		</g>
		<g>
			<path fill="#C03B2B" d="M251.3,173.6c0,0.4-0.3,0.7-0.7,0.7h-66.4c-0.4,0-0.7-0.3-0.7-0.7v-23.4c0-0.4,0.3-0.7,0.7-0.7h66.4
				c0.4,0,0.7,0.3,0.7,0.7V173.6z"/>
		</g>
	</g>
	<g>
		<path fill="#C03B2B" d="M213.9,141.9c0,0.4-0.3,0.7-0.7,0.7h-66.4c-0.4,0-0.7-0.3-0.7-0.7v-23.4c0-0.4,0.3-0.7,0.7-0.7h66.4
			c0.4,0,0.7,0.3,0.7,0.7V141.9z"/>
	</g>
</g>
</svg>
