<?xml version="1.0" encoding="utf-8"?>
<!-- Generator: Adobe Illustrator 18.1.1, SVG Export Plug-In . SVG Version: 6.00 Build 0)  -->
<svg version="1.1" id="Layer_1" xmlns="http://www.w3.org/2000/svg" xmlns:xlink="http://www.w3.org/1999/xlink" x="0px" y="0px"
	 viewBox="0 0 360 360" enable-background="new 0 0 360 360" xml:space="preserve">
<g>
	<circle fill="#983667" cx="180" cy="180" r="180"/>
	<path fill="#D3D3D3" d="M243.8,267.4c-0.1-0.5-0.3-1.1-0.5-1.7c-0.2-0.7-0.3-1.2-0.4-1.4c2.4-2.6,2.3-6.5-0.1-9.4
		c-7.4-8.6-15.4-16.6-24.1-23.9c-4.4-3.7-9-7.3-13.8-10.7c-1.1-0.8-2.1-1.5-3.2-2.2c-0.3-0.2-0.6-0.4-1-0.7c0-0.1,0-0.2-0.1-0.4
		c0.6-1.9-1.3-5.6,0.7-7.3c0.1-0.1,0.1-0.1,0.1-0.1c0,0.1,0.1,0.2,0.8,0.2c1.4,0,2.7,0,4-0.1c3.2-0.3,6-1.6,8.3-3.8
		c3.5-3.2,4.8-7.8,7.8-11.2c1.1-1.2,1.4-1,2.9-1c2.8,0,5.5-0.7,7.5-2.8c3.8-4,1.8-8.8-0.6-13.1c0.6-2.7,1-5.5,1-8.4
		c0-1.6-0.6-2.8-1.5-3.6c2-1.9,2.3-5.2,1.4-7.7c0-0.1,0.1-0.2,0.2-0.3c0.3-0.4,0.6-1.2,0.7-1.5c0.4-0.9,0.9-1.9,1.3-2.8
		c1.6,0,3.1-0.2,4.8-0.4c3-0.4,3.9-4.4,2.7-6.6c-2.3-4.3-5-8.4-7.2-12.7c-1-1.9-2.2-4-3.2-6.1c-0.1-0.8-0.1-1.6-0.1-2.4
		c0.1-3.4,1-6.7,0.9-10.1c-0.1-4.1-1.4-7.7-3-11.4c-2.6-6.2-5.5-12.1-10.5-16.8c-6.7-6.3-15.3-10.2-24.2-12.4
		c-9.8-4.7-21.1-4.3-31.7-3.2c-12.3,1.3-25.3,4.5-33.6,14.4c-3.3,3.9-5.5,8.6-7,13.6c-1.3,3.3-2.1,6.9-2.1,10.6
		c-0.4,4.1-0.5,8.3-0.3,12.2c0.2,5.2,1.1,10.4,2.7,15.2c0.3,4.4,0.4,8.9-0.5,13.3c-2.3,11.4-9.5,21-14.1,31.5
		c-2.5,5.8-4.3,11.6-4.9,17.8c-0.3,2.9-0.1,5.9,0.3,8.8c0.2,1.2,0.3,2.6,0.8,3.8c0.1,0.1,0.1,0.2,0.2,0.4c-0.1,0.1-0.2,0.2-0.3,0.2
		c-4,3.6-6.6,8.4-4,13.8c2.5,5.3,8.4,7.8,13.2,10.5c10.9,6.2,21.9,12.2,33.4,17.2c1.4,0.6,2.8,1.2,4.2,1.8c0.8,0.3,2.6,1.4,3.8,1.7
		c0,0.5-0.1,0.8,0,0.6c-0.1,1.7-0.2,3.4-0.3,5.1c-0.3,6.2-0.7,12.5-0.3,18.7c0.3,5.3,1.6,10.5,5.6,14.1c4.7,4.2,11.2,4,17.1,4.2
		c6.9,0.2,14,1,20.9,0.6c6.4-0.3,11.6-2.9,15.7-7.7c3.1-3.5,5.1-7.4,10-8.1c3.4-0.5,6.6-0.7,9.7-2.3c0.4-0.2,0.8-0.5,1.2-0.7
		c0.4,0.1,0.8,0.1,1.2,0.1c4.7-0.2,9.1-3,9.9-7.9C246.7,271.6,245.9,269.1,243.8,267.4z M105.6,212.3c0-0.3,0.2-0.5,0.5-0.4
		C106,211.9,105.8,212.1,105.6,212.3z M241.8,265.4c-0.1,0.1-0.2,0.2-0.4,0.3C241.6,265.5,241.7,265.5,241.8,265.4z M233.1,158.2
		C233.4,159.1,232.9,158.8,233.1,158.2L233.1,158.2z M232.9,157.5c0.1,0.2,0.2,0.3,0.2,0.5C233,157.8,232.9,157.6,232.9,157.5z
		 M238.8,279.4C238.8,279.4,238.8,279.4,238.8,279.4C239.9,278.2,240,279.4,238.8,279.4z"/>
	<path fill="#BCBEC0" d="M98.5,240.2c0-0.4,0.2-0.7,0.6-0.5C99.1,239.7,98.8,239.9,98.5,240.2z"/>
</g>
</svg>
