<?xml version="1.0" encoding="utf-8"?>
<!-- Generator: Adobe Illustrator 18.1.1, SVG Export Plug-In . SVG Version: 6.00 Build 0)  -->
<svg version="1.1" id="Layer_1" xmlns="http://www.w3.org/2000/svg" xmlns:xlink="http://www.w3.org/1999/xlink" x="0px" y="0px"
	 viewBox="0 0 360 360" enable-background="new 0 0 360 360" xml:space="preserve">
<g>
	<circle fill="#67C6B5" cx="180" cy="180" r="180"/>
	<circle fill="#366E63" cx="180" cy="180" r="129"/>
	<path fill="#51A695" d="M180,324.8c-79.8,0-144.8-65-144.8-144.8S100.2,35.2,180,35.2c79.8,0,144.8,65,144.8,144.8
		S259.8,324.8,180,324.8z M180,66.7c-62.5,0-113.3,50.8-113.3,113.3S117.5,293.3,180,293.3c62.5,0,113.3-50.8,113.3-113.3
		S242.5,66.7,180,66.7z"/>
	<path fill="#FFFFFF" d="M125.2,117.3h109.5c16.5,0,29.9,13.4,29.9,29.9v66.2c0,16.5-13.4,29.9-29.9,29.9h-12.6
		c0,15.2,6.3,22.6,6.3,22.6s-38.8,0.3-44.2-22.6h-59.1c-16.5,0-29.9-13.4-29.9-29.9v-66.2C95.3,130.7,108.7,117.3,125.2,117.3z"/>
	<g>
		<path fill="#67C6B5" d="M227.2,157.6c0,1.6-0.6,3-1.7,4.1l-44.1,44.1l-8.3,8.3c-1.1,1.1-2.5,1.7-4.1,1.7c-1.6,0-3-0.6-4.1-1.7
			l-8.3-8.3l-22.1-22.1c-1.1-1.1-1.7-2.5-1.7-4.1s0.6-3,1.7-4.1l8.3-8.3c1.1-1.1,2.5-1.7,4.1-1.7c1.6,0,3,0.6,4.1,1.7l17.9,18l40-40
			c1.1-1.1,2.5-1.7,4.1-1.7c1.6,0,3,0.6,4.1,1.7l8.3,8.3C226.6,154.6,227.2,155.9,227.2,157.6z"/>
	</g>
	<g>
		<path fill="#366E63" d="M227.2,157.6c0,1.6-0.6,3-1.7,4.1l-44.1,44.1l-8.3,8.3c-1.1,1.1-2.5,1.7-4.1,1.7c-1.6,0-3-0.6-4.1-1.7
			l-8.3-8.3l-22.1-22.1c-1.1-1.1-1.7-2.5-1.7-4.1s0.6-3,1.7-4.1l8.3-8.3c1.1-1.1,2.5-1.7,4.1-1.7c1.6,0,3,0.6,4.1,1.7l17.9,18l40-40
			c1.1-1.1,2.5-1.7,4.1-1.7c1.6,0,3,0.6,4.1,1.7l8.3,8.3C226.6,154.6,227.2,155.9,227.2,157.6z"/>
	</g>
</g>
</svg>
