<?xml version="1.0" encoding="utf-8"?>
<!-- Generator: Adobe Illustrator 18.1.1, SVG Export Plug-In . SVG Version: 6.00 Build 0)  -->
<svg version="1.1" id="Layer_1" xmlns="http://www.w3.org/2000/svg" xmlns:xlink="http://www.w3.org/1999/xlink" x="0px" y="0px"
	 viewBox="0 0 405.4 405.4" enable-background="new 0 0 405.4 405.4" xml:space="preserve">
<g>
	<circle fill="#E6E7E8" cx="202.7" cy="202.7" r="201.2"/>
	<path fill="#3A4050" d="M188.9,316.4c-12.3-8-24.4-16.2-36.6-24.4l-1.7-1.1l1.7-1.3c2.7-2,5.3-4.1,8.1-6l8.2-5.9L168,281
		l-12.8-16.7l-2.3-3l3.6-1.2l32.9-10.7c10.9-3.6,21.9-7,32.9-10.5l-0.1,6.3l-60.6-19.9l-0.6-0.2l-0.5-0.4l-25.2-19.2l-5.5-4.2
		l6.5-2.3l31.5-10.9l31.6-10.7l63.2-21.3l-0.7,6.1l-29.4-17.9c-9.8-5.9-19.5-12.1-29.3-18.1l-2-1.2l0.7-2.1l4.4-13.1l1.9,3.5
		l-49-13.7l-9.8-2.7l10-1.4c13.9-1.9,27.9-3.6,41.8-5.3c13.9-1.7,27.9-3.5,41.8-5c-13.8,2.6-27.7,5-41.5,7.4
		c-13.8,2.4-27.7,4.9-41.5,7.1l0.2-4.1l49.3,12.5l2.7,0.7l-0.9,2.8l-4,13.2l-1.3-3.4c9.9,5.8,19.8,11.6,29.7,17.5l29.5,17.7l6.2,3.7
		l-6.9,2.4L202,184.5l-31.5,10.9l-31.6,10.7l1.1-6.4l25,19.4l-1-0.6l60.4,20.4l9.8,3.3l-9.8,3c-11,3.4-22,6.8-33.1,10.1l-33.1,9.9
		l1.3-4.1l12.4,17l1.6,2.1l-2.1,1.3l-8.6,5.3c-2.8,1.8-5.8,3.4-8.7,5.1l0-2.4C165.7,298.5,177.4,307.3,188.9,316.4z"/>
	<polygon fill="#3A4050" points="230.8,168.8 275.1,193.2 273.6,193.1 294.1,187.7 294.6,187.6 294.9,187.8 325.4,203.2 293.9,190 
		294.8,190.1 274.7,196.9 274.1,197.2 273.3,196.8 227.4,175.6 	"/>
	<polygon fill="#3A4050" points="190.5,187.2 141,176.9 142.2,176.7 118.6,187.1 118.1,187.3 117.8,187.2 84.6,179 118.3,184.8 
		117.5,184.9 140.5,173.1 141,172.9 141.7,173 191.8,179.7 	"/>
	<polygon fill="#3A4050" points="158,267.6 124.7,271.1 125.8,270.5 113.1,281.9 112.7,282.2 112.3,282.2 89.8,283.8 112,279.8 
		111.3,280.1 123,267.7 123.4,267.3 124.1,267.1 156.7,260 	"/>
	<polygon fill="#3A4050" points="224.4,131.9 256.3,122 257,121.7 257.5,121.9 273.8,127 273.1,127 294.3,119.5 274,129.3 
		273.7,129.4 273.2,129.3 256.5,125.8 257.7,125.7 227.1,139 	"/>
</g>
</svg>
