<svg xmlns="http://www.w3.org/2000/svg" viewBox="0 0 34 34">
  <path fill="#191717" fill-rule="evenodd" d="M17.29 1C9.29377592.99187284 2.47389604 6.78869798 1.1936032 14.6817656-.08668967 22.5748331 4.5511875 30.2301606 12.14 32.75c.81.15 1.11-.35 1.11-.79v-2.77C8.7 30.18 7.74 27 7.74 27c-.29999845-.9839024-.94199223-1.828071-1.81-2.38-1.48-1 .11-1 .11-1 1.04834404.1431287 1.9714094.7634287 2.5 1.68.4466386.8105981 1.1985889 1.4091848 2.0886942 1.6626958.8901053.2535111 1.8446013.1409375 2.6513058-.3126958.064482-.8222049.4188771-1.5947863 1-2.18-3.58-.39-7.38-1.79-7.38-8.03-.02214262-1.6183907.57943958-3.1832206 1.68-4.37-.49652543-1.40476536-.43931337-2.94591543.16-4.31 0 0 1.37-.44 4.48 1.67 2.6707835-.73176187 5.4892165-.73176187 8.16 0 3.11-2.11 4.48-1.67 4.48-1.67.5937957 1.36642338.6438676 2.90792167.14 4.31 1.0978125 1.1877775 1.6958873 2.7527995 1.67 4.37 0 6.26-3.81 7.63-7.44 8 .7830562.7945737 1.1872902 1.8870982 1.11 3v4.47c0 .54.29.94 1.12.78 7.4987005-2.5850201 12.0455437-10.1952475 10.7684169-18.0235158C31.9512902 6.8382159 25.2214724 1.06769626 17.29 1z"/>
</svg>
