<svg viewBox="0 0 127 127" version="1.1" xmlns="http://www.w3.org/2000/svg" xmlns:xlink="http://www.w3.org/1999/xlink">
    <g id="Page-1" stroke="none" stroke-width="1" fill="none" fill-rule="evenodd">
        <g id="Logo-stacked-color" transform="translate(-126.000000, -87.000000)" fill="#0071CE">
            <g id="Mask-+-Fill-10" transform="translate(88.000000, 87.000000)">
                <path d="M119.249487,65.9980568 L131.740638,82.5237955 C132.776459,83.8961591 132.834293,86.1743523 131.86961,87.5971364 L131.239211,88.5249886 C130.277997,89.944875 128.344003,91.9176477 126.943245,92.9115682 L125.441855,93.9680795 C124.045724,94.9591023 121.781493,94.9243295 120.417171,93.8863636 L103.920963,81.3525341 C102.556063,80.3157273 100.320749,80.3157273 98.955849,81.3525341 L82.4590627,93.8863636 C81.0947407,94.9243295 78.8200997,94.9753295 77.4118234,94.0045909 L76.3204815,93.2540795 C74.9133618,92.2787045 72.9521852,90.3291136 71.9713077,88.9225568 L71.0297578,87.5704773 C70.0506154,86.1673977 70.0928348,83.8961591 71.1246068,82.5237955 L83.6319516,65.9899432 C84.6637236,64.6181591 84.6637236,62.3811136 83.6319516,61.0104886 L71.1246068,44.472 C70.0928348,43.1002159 70.0529288,40.8365114 71.0419031,39.4334318 L72.104906,37.9283523 C73.0892536,36.5258523 75.0579487,34.5872727 76.4743219,33.6246477 L77.4037265,32.9923636 C78.8200997,32.0245227 81.0947407,32.0876932 82.4590627,33.1210227 L98.955849,45.6548523 C100.320749,46.6928182 102.556063,46.6928182 103.920963,45.6548523 L120.417171,33.1210227 C121.781493,32.0876932 124.104715,31.9503409 125.582972,32.8231364 L127.308182,33.8442955 C128.788174,34.7170909 130.674165,36.6620455 131.505829,38.1648068 L132.114829,39.2642045 C132.941288,40.7629091 132.776459,43.1129659 131.740638,44.48475 L119.249487,61.0186023 C118.213667,62.3898068 118.213667,64.6291705 119.249487,65.9980568 L119.249487,65.9980568 Z M101.642274,0.0208636364 C66.747094,0.0208636364 38.4612707,28.3658523 38.4612707,63.3286705 C38.4612707,98.2967045 66.747094,126.64517 101.642274,126.64517 C136.537453,126.64517 164.823855,98.2967045 164.823855,63.3286705 C164.823855,28.3658523 136.537453,0.0208636364 101.642274,0.0208636364 L101.642274,0.0208636364 Z" id="Fill-10"></path>
            </g>
        </g>
    </g>
</svg>
