<svg xmlns="http://www.w3.org/2000/svg" viewBox="0 0 36 36">
  <path fill="#0071CE" fill-rule="nonzero" d="M22.7374421 18.7155921l3.3609563 4.4373402c.2787053.3684945.2942665.9802141.0347021 1.362247l-.1696195.2491384c-.258631.3812549-.7790049.9109658-1.1559027 1.1778442l-.4039744.2836848c-.3756528.2661004-.9848826.2567635-1.3519766-.0219416l-4.438585-3.3654692c-.3672496-.2783939-.9686988-.2783939-1.3359483 0l-4.4387406 3.3654692c-.367094.2787051-.9791248.2923991-1.3580455.0317453l-.2936441-.2015205c-.37860943-.2618987-.9062973-.785385-1.17021906-1.1630608l-.25334-.363048c-.2634549-.3767421-.25209505-.9865943.02552073-1.3550888l3.36531363-4.4395187c.2776158-.368339.2776158-.9690099 0-1.3370376l-3.36531363-4.4407636c-.27761578-.368339-.28835317-.9761682-.02225283-1.3529103l.286019-.4041301c.26485543-.3765865.7945663-.89711616 1.17566556-1.1555914l.2500721-.16977515c.3810993-.2598758.9931301-.24291382 1.3602241.03454636l4.4387406 3.3654692c.3672495.2787051.9686987.2787051 1.3359483 0l4.438585-3.3654692c.367094-.27746017.9921963-.31434075 1.3899465-.0799857l.464197.2741923c.398217.23435504.905675.75659645 1.1294483 1.1601042l.1638618.2952002c.2223728.4024184.1780228 1.0334342-.1006825 1.4017731l-3.3609563 4.4395187c-.278705.3681833-.278705.9694767 0 1.3370375zM17.9999223 1C8.6107813 1 1 8.61093697 1 17.998833 1 27.3881295 8.6107813 35 17.9999223 35 27.389063 35 35 27.3881295 35 17.998833 35 8.61093697 27.389063 1 17.9999223 1z"/>
</svg>
