<svg xmlns="http://www.w3.org/2000/svg" viewBox="0 0 307 94">
   <path fill="#0071CE" d="M59.6815886 49.0869667l9.210027 12.1474672c.763747 1.008249.8070761 2.6842394.0959017 3.7294248l-.4656431.6821696c-.7088636 1.042877-2.1346788 2.4932088-3.1664884 3.2232804l-1.107491.7779735c-1.0300764.7283401-2.6985344.7017921-3.7043465-.061176l-12.163914-9.2121756c-1.0058122-.762968-2.65405-.762968-3.6604398 0l-12.1633363 9.2121756c-1.0069676.7629681-2.6840914.8004816-3.7216782.0871469l-.8041875-.5511607c-1.0381645-.7173747-2.4842-2.1503926-3.2069288-3.1840354l-.6938429-.9938208c-.7227288-1.0319114-.6915319-2.7015533.0687488-3.7098023l9.2227368-12.1532385c.7602808-1.0088262.7602808-2.6524972 0-3.660169L24.1979696 33.264325c-.7602807-1.008249-.7891667-2.6721196-.0606607-3.7034539l.7839673-1.1063614c.7256175-1.0313342 2.1774302-2.4556952 3.2219496-3.1632586l.6845993-.4651681c1.0439417-.7110262 2.7210655-.6642786 3.7280331.0952267l12.1633363 9.2127527c1.0063898.762391 2.6546276.762391 3.6604398 0l12.163914-9.2127527c1.0058121-.7595053 2.7175992-.8610804 3.8083363-.21931l1.2721414.7508483c1.0901594.6411932 2.4813114 2.0707484 3.0942733 3.1748012l.4483114.8085615c.6100733 1.1011672.4887519 2.8285223-.2749951 3.8367713l-9.210027 12.1538157c-.763747 1.0076719-.763747 2.6548056 0 3.660169zM46.6996218.5911702c-25.7282235 0-46.5845265 20.834453-46.5845265 46.534126 0 25.7025586 20.856303 46.5398972 46.5845265 46.5398972 25.7288013 0 46.5851043-20.8373386 46.5851043-46.5398972 0-25.699673-20.856303-46.534126-46.5851043-46.534126z"/>

   <path fill="white" d="M115.34788835 30.04970208c0-2.73271843 2.16356485-4.8940765 4.8990734-4.8940765 2.73666402 0 4.89965115 2.16135807 4.89965115 4.8940765V65.5213683c0 2.7338727-2.16298713 4.8952308-4.89965114 4.8952308-2.73550856 0-4.89907342-2.1613581-4.89907342-4.8952308V30.04970208M136.2821837 30.43176324c0-2.7338727 2.1641425-4.89523076 4.9008065-4.89523076h24.9442563c2.4818891 0 4.4542283 1.97090462 4.4542283 4.4496851 0 2.47935764-1.9723392 4.45026226-4.4542283 4.45026226h-20.0446051v9.47130776h17.1814202c2.4813113 0 4.4530729 1.9709046 4.4530729 4.4496851 0 2.4799347-1.9717616 4.4496851-4.4530729 4.4496851h-17.1814202v12.7142105c0 2.7338727-2.1641426 4.8952308-4.8996512 4.8952308-2.736664 0-4.9008065-2.1613581-4.9008065-4.8952308V30.43176324M178.4719871 30.04970208c0-2.73271843 2.1635649-4.8940765 4.8990734-4.8940765 2.7366641 0 4.9002289 2.16135807 4.9002289 4.8940765V65.5213683c0 2.7338727-2.1635648 4.8952308-4.9002289 4.8952308-2.7355085 0-4.8990734-2.1613581-4.8990734-4.8952308V30.04970208M251.841389 30.04970208c0-2.73271843 2.163565-4.8940765 4.899651-4.8940765 2.736086 0 4.899651 2.16135807 4.899651 4.8940765V65.5213683c0 2.7338727-2.163565 4.8952308-4.899651 4.8952308-2.736086 0-4.899651-2.1613581-4.899651-4.8952308V30.04970208M283.149241 34.5634488h-9.418584c-2.481312 0-4.516622-2.03381197-4.516622-4.51374672 0-2.47820336 2.03531-4.5131696 4.516622-4.5131696h28.63647c2.481889 0 4.517778 2.03496624 4.517778 4.5131696 0 2.47993475-2.035889 4.51374673-4.517778 4.51374673h-9.418006v30.9579195c0 2.7338727-2.164143 4.8952308-4.900229 4.8952308-2.736086 0-4.899651-2.1613581-4.899651-4.8952308V34.5634488M227.117822 48.047553l13.955426-13.94119247c1.950386-1.94724223 1.950386-5.10588382 0-7.0542803-1.949808-1.94781937-5.112252-1.94781937-7.061482 0L220.056339 40.9932727l-13.9554265-13.94119248c-1.9498081-1.94781936-5.111097-1.94781936-7.0614828 0-1.9503859 1.9483965-1.9503859 5.10646095 0 7.0542803L212.9948562 48.047553l-13.9554265 13.9406153c-1.9503859 1.9478194-1.9503859 5.1064609 0 7.0548574.9751929.9741983 2.2525338 1.4607203 3.5310302 1.4607203 1.277341 0 2.5558374-.486522 3.5304526-1.4607203l13.9554265-13.9411924 13.954849 13.9411924c.975771.9741983 2.252534 1.4607203 3.53103 1.4607203 1.277919 0 2.556415-.486522 3.53103-1.4607203 1.949809-1.9483965 1.949809-5.107038 0-7.0548574L227.117822 48.047553"/>
</svg>
